
<svg width="277px" height="199px" viewBox="0 0 277 199" version="1.1" xmlns="http://www.w3.org/2000/svg" xmlns:xlink="http://www.w3.org/1999/xlink">
    <g id="Pages" stroke="none" stroke-width="1" fill="none" fill-rule="evenodd">
        <g id="Desktop" transform="translate(-705.000000, -278.000000)" fill-rule="nonzero">
            <g id="object_turtle" transform="translate(705.000000, 278.000000)">
                <path d="M237.745836,69.7225128 L266.161166,47.50706 L277,26.0332963 L274.363513,7.05989973 L254.150573,0 L237.745836,9.56022491 L213.120441,27.9268956 L211.355802,28.1372955 L212.626095,26.9892894 L189.337254,21.9150074 L154.40395,21.9150074 L112.440057,35.9244435 L82.3403129,55.4493632 L62.5667457,83.6888362 L48.7252529,114.796372 L48.7178951,114.863791 L19.357852,139.432348 L3.97842943,164.73021 C3.97842943,164.73021 0.553496576,192.481632 1.04901362,191.940142 L19.357852,199 L37.0808323,183.262363 L43.9845431,159.200537 L55.0967417,166.311316 L76.6279667,152.522523 L121.448033,135.534702 L134.331225,130.204934 L132.433311,135.534702 C132.433311,134.946405 112.659744,172.378365 112.659744,172.378365 L120.276233,189.586786 L144.883318,183.262321 L159.530397,163.994776 L176.374548,136.858433 L180.10955,111.266381 C180.988379,110.383893 212.626053,93.3409537 212.626053,93.3409537 L227.676009,78.9450988 L243.38494,91.7414189 L251.074672,114.575688 L249.463458,143.697648 L264.623194,143.697648 L275.681715,124.062407 L275.681715,103.325924 L261.181121,80.8207309 L237.745836,69.7225128 Z" id="Path" fill="#4593A9"></path>
                <g id="Group">
                    <polygon id="Path" fill="#556BA7" points="237.368371 69.8022874 260.824832 80.8782503 253.201474 86.6028309"></polygon>
                    <polygon id="Path" fill="#6A89C5" points="260.824832 80.8782503 275.338502 103.338144 253.201474 86.6028309"></polygon>
                    <polygon id="Path" fill="#556BA7" points="275.338502 103.338144 275.338502 124.032888 262.364148 122.271465"></polygon>
                    <polygon id="Path" fill="#6A89C5" points="275.338502 124.032888 264.270009 143.628606 262.364148 122.271465"></polygon>
                    <polygon id="Path" fill="#909FD0" points="264.270009 143.628606 249.09656 143.628606 262.364148 122.271465"></polygon>
                    <polygon id="Path" fill="#C2CAE7" points="249.09656 143.628606 250.709227 114.565264 262.364148 122.271465"></polygon>
                    <polygon id="Path" fill="#C2CAE7" points="250.709227 114.565264 243.01256 91.7769985 253.201474 86.6028309"></polygon>
                    <polygon id="Path" fill="#C2CAE7" points="243.01256 91.7769985 226.299836 78.2025592 237.368371 69.8022874"></polygon>
                    <polygon id="Path" fill="#909FD0" points="243.01256 91.7769985 253.201474 86.6028309 237.368371 69.8022874"></polygon>
                    <polygon id="Path" fill="#6A89C5" points="250.709227 114.565264 275.338502 103.338144 262.364148 122.271465"></polygon>
                    <polygon id="Path" fill="#909FD0" points="250.709227 114.565264 253.201474 86.6028309 275.338502 103.338144"></polygon>
                    <polygon id="Path" fill="#9DD4CB" points="76.105206 152.435676 120.965691 135.482049 99.4150489 121.170597"></polygon>
                    <polygon id="Path" fill="#9DD4CB" points="120.965691 135.482049 179.680151 111.26266 136.358982 81.6488621"></polygon>
                    <polygon id="Path" fill="#D0E9D2" points="99.4150489 121.170597 136.358982 81.6488621 120.965691 135.482049"></polygon>
                    <polygon id="Path" fill="#BDE2CF" points="136.358982 81.6488621 153.951328 67.447468 179.680151 111.26266"></polygon>
                    <polygon id="Path" fill="#D0E9D2" points="153.951328 67.447468 188.806171 72.2913375 179.680151 111.26266"></polygon>
                    <path d="M179.680151,111.26266 C180.559772,110.381948 212.225977,93.3733137 212.225977,93.3733137 L188.806171,72.2913794 L179.680151,111.26266 Z" id="Path" fill="#9DD4CB"></path>
                    <polygon id="Path" fill="#D0E9D2" points="212.225977 93.3732718 235.0227 71.6308251 215.964347 62.6035985"></polygon>
                    <polygon id="Path" fill="#BDE2CF" points="188.806171 72.2913375 215.964347 62.6035985 212.225977 93.3732718"></polygon>
                    <polygon id="Path" fill="#D0E9D2" points="188.806171 72.2913375 212.720769 28.0908819 215.964347 62.6035985"></polygon>
                    <polygon id="Path" fill="#D0E9D2" points="212.720769 28.0908819 237.368371 9.76118042 244.845112 24.1460316"></polygon>
                    <polygon id="Path" fill="#BDE2CF" points="237.368371 9.76118042 253.787902 0.220156842 244.845112 24.1460316"></polygon>
                    <polygon id="Path" fill="#6BA9B5" points="253.787902 0.220156842 274.01907 7.26584611 244.845112 24.1460316"></polygon>
                    <polygon id="Path" fill="#6BA9B5" points="274.01907 7.26584611 276.657934 26.2010522 260.824832 28.6963446"></polygon>
                    <polygon id="Path" fill="#D0E9D2" points="244.845112 24.1460316 260.824832 28.6963446 274.01907 7.26584611"></polygon>
                    <polygon id="Path" fill="#9DD4CB" points="276.657934 26.2010522 265.809326 47.6315507 260.824832 28.6963446"></polygon>
                    <polygon id="Path" fill="#9DD4CB" points="265.809326 47.6315507 235.0227 71.6308251 240.593622 46.6040823"></polygon>
                    <polygon id="Path" fill="#D0E9D2" points="240.593622 46.6040823 260.824832 28.6963446 265.809326 47.6315507"></polygon>
                    <polygon id="Path" fill="#BDE2CF" points="244.845112 24.1460316 240.593622 46.6040823 260.824832 28.6963446"></polygon>
                    <polygon id="Path" fill="#D0E9D2" points="244.845112 24.1460316 225.493524 38.1639686 240.593622 46.6040823"></polygon>
                    <polygon id="Path" fill="#9DD4CB" points="225.493524 38.1639686 212.720769 28.0908819 244.845112 24.1460316"></polygon>
                    <polygon id="Path" fill="#BDE2CF" points="225.493524 38.1639686 215.964347 62.6035985 212.720769 28.0908819"></polygon>
                    <polygon id="Path" fill="#BDE2CF" points="215.964347 62.6035985 240.593622 46.6040823 235.0227 71.6308251"></polygon>
                    <polygon id="Path" fill="#9DD4CB" points="215.964347 62.6035985 225.493524 38.1639686 240.593622 46.6040823"></polygon>
                    <polygon id="Path" fill="#BDE2CF" points="188.806171 72.2913375 191.884804 30.5678663 212.720769 28.0908819"></polygon>
                    <polygon id="Path" fill="#C2CAE7" points="48.2506802 114.785462 18.7834872 139.371849 26.7733471 144.802874"></polygon>
                    <polygon id="Path" fill="#6A89C5" points="18.7834872 139.371849 3.39019547 164.618791 26.7733471 144.802874"></polygon>
                    <path d="M3.39019547,164.618791 C3.39019547,164.618791 -0.0378259819,192.314312 0.458137915,191.773912 C0.915857402,191.275155 9.74910287,177.884424 9.74910287,177.884424 L3.39019547,164.618791 Z" id="Path" fill="#C2CAE7"></path>
                    <polygon id="Path" fill="#909FD0" points="0.458137915 191.773912 18.7834872 198.819559 9.74910287 177.884424"></polygon>
                    <polygon id="Path" fill="#6A89C5" points="18.7834872 198.819559 36.52245 183.113641 9.74910287 177.884424"></polygon>
                    <polygon id="Path" fill="#556BA7" points="36.52245 183.113641 43.4494166 159.040968 9.74910287 177.884424"></polygon>
                    <polygon id="Path" fill="#6A89C5" points="43.4494166 159.040968 26.7733471 144.802874 48.2506802 144.802874"></polygon>
                    <polygon id="Path" fill="#556BA7" points="48.2506802 144.802874 48.2506802 114.785462 26.7733471 144.802874"></polygon>
                    <polygon id="Path" fill="#909FD0" points="26.7733471 144.802874 9.74910287 177.884424 43.4494166 159.040968"></polygon>
                    <polygon id="Path" fill="#909FD0" points="9.74910287 177.884424 3.39019547 164.618791 26.7733471 144.802874"></polygon>
                    <polygon id="Path" fill="#C2CAE7" points="3.39019547 164.618791 43.4494166 159.040968 26.7733471 144.802874"></polygon>
                    <polygon id="Path" fill="#9DD4CB" points="43.3394535 159.040968 48.1773715 114.785462 64.670169 132.399602"></polygon>
                    <polygon id="Path" fill="#9DD4CB" points="48.1773715 114.785462 62.0313465 83.7405406 78.3042597 101.134523"></polygon>
                    <polygon id="Path" fill="#6BA9B5" points="64.670169 132.399602 78.3042597 101.134523 48.1773715 114.785462"></polygon>
                    <polygon id="Path" fill="#4593A9" points="62.0313465 83.7405406 81.8227036 55.5579512 96.1164894 71.6308251"></polygon>
                    <polygon id="Path" fill="#9DD4CB" points="81.8227036 55.5579512 111.949592 36.0722901 96.1164894 71.6308251"></polygon>
                    <polygon id="Path" fill="#4593A9" points="111.949592 36.0722901 153.951328 22.0910528 153.951328 37.5034143"></polygon>
                    <polygon id="Path" fill="#0B4746" points="153.951328 22.0910528 188.916134 22.0910528 153.951328 37.5034143"></polygon>
                    <polygon id="Path" fill="#0B4746" points="188.916134 22.0910528 212.225977 27.1551211 199.031697 39.0446798"></polygon>
                    <polygon id="Path" fill="#0B4746" points="199.031697 39.0446798 197.272454 55.5579512 178.580603 42.1271269"></polygon>
                    <polygon id="Path" fill="#1F5D66" points="197.272454 55.5579512 197.932191 69.6492459 178.580603 62.6035985"></polygon>
                    <polygon id="Path" fill="#0B4746" points="197.932191 69.6492459 188.256397 77.1352488 178.580603 62.6035985"></polygon>
                    <polygon id="Path" fill="#6BA9B5" points="188.256397 77.1352488 159.00913 72.2913375 178.580603 62.6035985"></polygon>
                    <polygon id="Path" fill="#1F5D66" points="159.00913 72.2913375 140.647127 78.8966712 153.951328 37.5034143"></polygon>
                    <polygon id="Path" fill="#31768C" points="140.647127 78.8966712 118.216905 108.400327 111.949592 78.3462162"></polygon>
                    <polygon id="Path" fill="#31768C" points="118.216905 108.400327 97.3259585 133.940825 89.4094073 115.99643"></polygon>
                    <polygon id="Path" fill="#6BA9B5" points="97.3259585 133.940825 76.105206 152.435676 89.4094073 115.99643"></polygon>
                    <polygon id="Path" fill="#6BA9B5" points="76.105206 152.435676 54.5545642 166.196714 64.670169 132.399602"></polygon>
                    <polygon id="Path" fill="#4593A9" points="43.3394535 159.040968 54.5545642 166.196714 64.670169 132.399602"></polygon>
                    <polygon id="Path" fill="#31768C" points="89.4094073 115.99643 64.670169 132.399602 76.105206 152.435676"></polygon>
                    <polygon id="Path" fill="#4593A9" points="78.3042597 101.134523 89.4094073 115.99643 64.670169 132.399602"></polygon>
                    <polygon id="Path" fill="#6BA9B5" points="89.4094073 115.99643 111.949592 78.3462162 118.216905 108.400327"></polygon>
                    <polygon id="Path" fill="#31768C" points="78.3042597 101.134523 111.949592 78.3462162 89.4094073 115.99643"></polygon>
                    <polygon id="Path" fill="#6BA9B5" points="78.3042597 101.134523 96.1164894 71.6308251 62.0313465 83.7405406"></polygon>
                    <polygon id="Path" fill="#4593A9" points="96.1164894 71.6308251 111.949592 78.3462162 78.3042597 101.134523"></polygon>
                    <polygon id="Path" fill="#4593A9" points="178.580603 42.1271269 178.580603 62.6035985 197.272454 55.5579512"></polygon>
                    <polygon id="Path" fill="#1F5D66" points="178.580603 42.1271269 159.00913 72.2913375 178.580603 62.6035985"></polygon>
                    <polygon id="Path" fill="#4593A9" points="188.916134 22.0910528 178.580603 42.1271269 199.031697 39.0446798"></polygon>
                    <polygon id="Path" fill="#31768C" points="178.580603 42.1271269 153.951328 37.5034143 188.916134 22.0910528"></polygon>
                    <polygon id="Path" fill="#4593A9" points="153.951328 37.5034143 159.00913 72.2913375 178.580603 42.1271269"></polygon>
                    <polygon id="Path" fill="#6BA9B5" points="111.949592 36.0722901 111.949592 78.3462162 96.1164894 71.6308251"></polygon>
                    <polygon id="Path" fill="#31768C" points="111.949592 36.0722901 140.647127 78.8966712 153.951328 37.5034143"></polygon>
                    <polygon id="Path" fill="#4593A9" points="111.949592 78.3462162 140.647127 78.8966712 111.949592 36.0722901"></polygon>
                    <path d="M147.060974,80.7896429 C147.060974,80.7896429 140.024044,110.895662 140.610472,111.26266 C141.196859,111.629616 164.360126,80.0709387 164.360126,80.0709387 L147.060974,80.7896429 Z" id="Path" fill="#6A89C5"></path>
                    <polygon id="Path" fill="#556BA7" points="164.360126 80.0709387 181.219467 83.7405406 179.680151 111.26266"></polygon>
                    <polygon id="Path" fill="#909FD0" points="140.610472 111.26266 131.960917 135.482049 151.898892 136.803157"></polygon>
                    <polygon id="Path" fill="#909FD0" points="179.680151 111.26266 160.988258 111.26266 164.360126 80.0709387"></polygon>
                    <polygon id="Path" fill="#C2CAE7" points="160.988258 111.26266 140.610472 111.26266 164.360126 80.0709387"></polygon>
                    <polygon id="Path" fill="#556BA7" points="160.988258 111.26266 151.898892 136.803157 140.610472 111.26266"></polygon>
                    <polygon id="Path" fill="#6A89C5" points="151.898892 136.803157 179.680151 111.26266 160.988258 111.26266"></polygon>
                    <polygon id="Path" fill="#556BA7" points="151.898892 136.803157 175.94178 136.803157 179.680151 111.26266"></polygon>
                    <polygon id="Path" fill="#6A89C5" points="175.94178 136.803157 159.082439 163.884879 151.898892 136.803157"></polygon>
                    <polygon id="Path" fill="#556BA7" points="159.082439 163.884879 144.422151 183.113641 131.960917 169.315903"></polygon>
                    <polygon id="Path" fill="#909FD0" points="144.422151 183.113641 119.792876 189.425377 131.960917 169.315903"></polygon>
                    <polygon id="Path" fill="#6A89C5" points="119.792876 189.425377 112.169518 172.251593 131.960917 169.315903"></polygon>
                    <path d="M112.169518,172.251593 C112.169518,172.251593 131.960917,134.894978 131.960917,135.482091 C131.960917,136.069245 131.960917,169.315945 131.960917,169.315945 L112.169518,172.251593 Z" id="Path" fill="#C2CAE7"></path>
                    <polygon id="Path" fill="#909FD0" points="131.960917 169.315903 151.898892 136.803157 159.082439 163.884879"></polygon>
                    <polygon id="Path" fill="#6A89C5" points="131.960917 169.315903 131.960917 135.482049 151.898892 136.803157"></polygon>
                    <g transform="translate(228.462236, 13.406316)" id="Path">
                        <g>
                            <polygon fill="#F7B5D1" points="3.19822024 5.92647137 15.7303781 15.5853448 11.4228607 0.0509021053"></polygon>
                            <polygon fill="#F38CB9" points="15.7303781 15.5853448 20.9078094 0.377848632 11.4228607 0.0509021053"></polygon>
                            <polygon fill="#D075AF" points="15.7303781 15.5853448 28.1229062 6.17675053 20.9078094 0.377848632"></polygon>
                            <polygon fill="#9C2855" points="15.7303781 15.5853448 32.0272672 15.7490276 28.1229062 6.17675053"></polygon>
                            <polygon fill="#9B224B" points="15.7303781 15.5853448 29.6545237 24.8941459 32.0272672 15.7490276"></polygon>
                            <polygon fill="#9C2855" points="15.7303781 15.5853448 21.6232393 31.2681368 29.6545237 24.8941459"></polygon>
                            <polygon fill="#AE3E75" points="15.7303781 15.5853448 11.9997906 31.5687316 21.6232393 31.2681368"></polygon>
                            <polygon fill="#C0579B" points="15.7303781 15.5853448 3.69715498 25.4278848 11.9997906 31.5687316"></polygon>
                            <polygon fill="#F38CB9" points="15.7303781 15.5853448 0.318047885 16.2250356 3.69715498 25.4278848"></polygon>
                            <polygon fill="#FCDDE8" points="15.7303781 15.5853448 3.19822024 5.92647137 0.318047885 16.2250356"></polygon>
                        </g>
                        <g transform="translate(4.602719, 4.189474)">
                            <polygon fill="#F1F2F5" points="8.80098459 15.3171347 8.44419018 7.28679347 15.3220332 9.92402526"></polygon>
                            <polygon fill="#C2CAE7" points="8.80098459 15.3171347 15.1013119 17.4618101 15.3220332 9.92402526"></polygon>
                            <polygon fill="#F1F2F5" points="15.1013119 17.4618101 22.1951899 15.8455531 15.3220332 9.92402526"></polygon>
                            <polygon fill="#C2CAE7" points="15.1013119 17.4618101 17.860098 21.2081213 22.1951899 15.8455531"></polygon>
                            <polygon fill="#F1F2F5" points="17.860098 21.2081213 11.1092063 23.2210377 15.1013119 17.4618101"></polygon>
                            <polygon fill="#E0E3EF" points="11.1092063 23.2210377 8.80098459 15.3171347 15.1013119 17.4618101"></polygon>
                            <polygon fill="#F1F2F5" points="11.1092063 23.2210377 4.07880408 20.6683076 8.80098459 15.3171347"></polygon>
                            <polygon fill="#E0E3EF" points="4.07880408 20.6683076 0.132223565 14.7555358 8.80098459 15.3171347"></polygon>
                            <polygon fill="#C2CAE7" points="8.44419018 7.28679347 0.132223565 14.7555358 8.80098459 15.3171347"></polygon>
                            <polygon fill="#C2CAE7" points="22.1951899 15.8455531 22.6767598 8.74812379 15.3220332 9.92402526"></polygon>
                            <polygon fill="#E0E3EF" points="15.3220332 9.92402526 18.3495763 2.06406989 22.6767598 8.74812379"></polygon>
                            <polygon fill="#909FD0" points="8.44419018 7.28679347 0.872968429 7.74202168 0.132223565 14.7555358"></polygon>
                            <polygon fill="#6A89C5" points="8.44419018 7.28679347 4.73623973 2.24568358 0.872968429 7.74202168"></polygon>
                            <polygon fill="#909FD0" points="8.44419018 7.28679347 18.3495763 2.06406989 15.3220332 9.92402526"></polygon>
                            <polygon fill="#909FD0" points="8.44419018 7.28679347 11.5934542 0.257694526 4.73623973 2.24568358"></polygon>
                            <polygon fill="#6A89C5" points="18.3495763 2.06406989 8.44419018 7.28679347 11.5934542 0.257694526"></polygon>
                        </g>
                        <g transform="translate(7.531722, 7.541053)">
                            <polygon fill="#D0E9D2" points="1.76978731 3.37935516 8.34682175 8.31723642 6.00604622 0.271394105"></polygon>
                            <polygon fill="#6BA9B5" points="8.34682175 8.31723642 10.9380689 0.378937895 6.00604622 0.271394105"></polygon>
                            <polygon fill="#0B4746" points="8.34682175 8.31723642 14.7262322 3.34550421 10.9380689 0.378937895"></polygon>
                            <polygon fill="#0C413B" points="8.34682175 8.31723642 16.8183772 8.295116 14.7262322 3.34550421"></polygon>
                            <polygon fill="#0B4746" points="8.34682175 8.31723642 15.6451023 13.0639939 16.8183772 8.295116"></polygon>
                            <polygon fill="#0C413B" points="8.34682175 8.31723642 11.5126137 16.4297752 15.6451023 13.0639939"></polygon>
                            <polygon fill="#0B4746" points="8.34682175 8.31723642 6.51268006 16.6493036 11.5126137 16.4297752"></polygon>
                            <polygon fill="#6BA9B5" points="8.34682175 8.31723642 2.15704335 13.5121419 6.51268006 16.6493036"></polygon>
                            <polygon fill="#1F5D66" points="8.34682175 8.31723642 0.340350151 8.75109832 2.15704335 13.5121419"></polygon>
                            <polygon fill="#6BA9B5" points="8.34682175 8.31723642 1.76978731 3.37935516 0.340350151 8.75109832"></polygon>
                        </g>
                    </g>
                </g>
            </g>
        </g>
    </g>
</svg>