
<svg width="366px" height="524px" viewBox="0 0 366 524" version="1.1" xmlns="http://www.w3.org/2000/svg" xmlns:xlink="http://www.w3.org/1999/xlink">
    <g id="Pages" stroke="none" stroke-width="1" fill="none" fill-rule="evenodd">
        <g id="Desktop-HD" transform="translate(-262.000000, -94.000000)" fill-rule="nonzero">
            <g id="object_astronaut" transform="translate(262.000000, 94.000000)">
                <g id="Group" transform="translate(91.000000, 57.000000)">
                    <polygon id="Path" fill="#C3CBE9" points="16.7 22.5 67.6 69.2 54.7 0.1"></polygon>
                    <polygon id="Path" fill="#909FD1" points="67.6 69.2 95.9 5.1 54.7 0.1"></polygon>
                    <polygon id="Path" fill="#566CA8" points="67.6 69.2 125.1 33 95.9 5.1"></polygon>
                    <polygon id="Path" fill="#313C62" points="67.6 69.2 138.4 76 125.1 33"></polygon>
                    <polygon id="Path" fill="#303657" points="67.6 69.2 124.7 114.9 138.4 76"></polygon>
                    <polygon id="Path" fill="#313C62" points="67.6 69.2 87.3 139.5 124.7 114.9"></polygon>
                    <polygon id="Path" fill="#566CA8" points="67.6 69.2 45.3 137.2 87.3 139.5"></polygon>
                    <polygon id="Path" fill="#909FD1" points="67.6 69.2 11.5 107.4 45.3 137.2"></polygon>
                    <polygon id="Path" fill="#C3CBE9" points="67.6 69.2 0.3 66.1 11.5 107.4"></polygon>
                    <polygon id="Path" fill="#E0E3EE" points="67.6 69.2 16.7 22.5 0.3 66.1"></polygon>
                </g>
                <g id="Group" transform="translate(101.000000, 69.000000)">
                    <polygon id="Path" fill="#6BA9B5" points="36.2 54.1 65.2 82.5 76.6 41.5"></polygon>
                    <polygon id="Path" fill="#9DD3CC" points="36.2 54.1 48 17.4 76.6 41.5"></polygon>
                    <polygon id="Path" fill="#6BA9B5" points="48 17.4 79.5 1.9 76.6 41.5"></polygon>
                    <polygon id="Path" fill="#566CA8" points="48 17.4 44.7 0.2 79.5 1.9"></polygon>
                    <polygon id="Path" fill="#909FD1" points="44.7 0.2 14.3 18.8 48 17.4"></polygon>
                    <polygon id="Path" fill="#BDDFCD" points="14.3 18.8 36.2 54.1 48 17.4"></polygon>
                    <polygon id="Path" fill="#FDF28D" points="14.3 18.8 0.2 53.9 36.2 54.1"></polygon>
                    <polygon id="Path" fill="#BDDFCD" points="0.2 53.9 9.1 88.6 36.2 54.1"></polygon>
                    <polygon id="Path" fill="#9DD3CC" points="65.2 82.5 9.1 88.6 36.2 54.1"></polygon>
                    <polygon id="Path" fill="#4393A8" points="79.5 1.9 107.8 24.1 76.6 41.5"></polygon>
                    <polygon id="Path" fill="#2F768C" points="76.6 41.5 118.3 62.9 107.8 24.1"></polygon>
                    <polygon id="Path" fill="#6A8AC6" points="65.2 82.5 37.9 109.5 9.1 88.6"></polygon>
                    <polygon id="Path" fill="#909FD1" points="65.2 82.5 71.6 113.5 37.9 109.5"></polygon>
                    <polygon id="Path" fill="#4393A8" points="65.2 82.5 118.3 62.9 76.6 41.5"></polygon>
                    <polygon id="Path" fill="#435382" points="65.2 82.5 102.2 94.4 71.6 113.5"></polygon>
                    <polygon id="Path" fill="#313C62" points="118.3 62.9 65.2 82.5 102.2 94.4"></polygon>
                </g>
                <polygon id="Path" fill="#6A8AC6" points="229.4 133 255.7 91.2 216.1 90"></polygon>
                <polygon id="Path" fill="#F0F2F5" points="91.3 123.1 54 150 102.5 164.4"></polygon>
                <polygon id="Path" fill="#E0E3EE" points="54 150 70.5 199.5 102.5 164.4"></polygon>
                <polygon id="Path" fill="#C3CBE9" points="70.5 199.5 136.3 194.2 102.5 164.4"></polygon>
                <polygon id="Path" fill="#909FD1" points="255.7 91.2 269.9 138.2 229.4 133"></polygon>
                <polygon id="Path" fill="#566CA8" points="215.7 171.9 269.9 138.2 229.4 133"></polygon>
                <polygon id="Path" fill="#F0F2F5" points="70.5 199.5 32.9 263.7 136.3 194.2"></polygon>
                <polygon id="Path" fill="#F0F2F5" points="32.9 263.7 8.8 372.3 43.9 310"></polygon>
                <polygon id="Path" fill="#E0E3EE" points="8.8 372.3 34.4 377.5 43.9 310"></polygon>
                <polygon id="Path" fill="#E0E3EE" points="43.9 310 136.3 194.2 32.9 263.7"></polygon>
                <polygon id="Path" fill="#6A8AC6" points="34.4 377.5 56.7 379.9 43.9 310"></polygon>
                <polygon id="Path" fill="#C3CBE9" points="310.7 123.7 335.1 109 286.5 163.1"></polygon>
                <polygon id="Path" fill="#909FD1" points="215.7 171.9 286.5 163.1 269.9 138.2"></polygon>
                <polygon id="Path" fill="#E0E3EE" points="310.7 123.7 296.7 54 335.1 109"></polygon>
                <polygon id="Path" fill="#435382" points="296.7 54 330.2 44.4 335.1 109"></polygon>
                <polygon id="Path" fill="#303657" points="330.2 44.4 365.7 144.4 335.1 109"></polygon>
                <polygon id="Path" fill="#F0F2F5" points="335.1 109 319.9 174.3 286.5 163.1"></polygon>
                <polygon id="Path" fill="#313C62" points="319.9 174.3 365.7 144.4 335.1 109"></polygon>
                <polygon id="Path" fill="#313C62" points="306.6 184.2 252.9 204.6 215.7 171.9"></polygon>
                <polygon id="Path" fill="#435382" points="56.7 379.9 75.5 278.8 43.9 310"></polygon>
                <polygon id="Path" fill="#313C62" points="126.9 228.9 122.9 287.2 104.5 250.1"></polygon>
                <polygon id="Path" fill="#313C62" points="43.9 310 75.5 278.8 104.5 250.1 126.9 228.9 136.3 194.2"></polygon>
                <polygon id="Path" fill="#F0F2F5" points="126.9 228.9 178.3 196.5 136.3 194.2"></polygon>
                <polygon id="Path" fill="#E0E3EE" points="178.3 196.5 156.5 236.7 126.9 228.9"></polygon>
                <polygon id="Path" fill="#C3CBE9" points="156.5 236.7 192.6 261.4 178.3 196.5"></polygon>
                <polygon id="Path" fill="#F0F2F5" points="192.6 261.4 175.1 290.5 156.5 236.7"></polygon>
                <polygon id="Path" fill="#E0E3EE" points="147.7 290.1 175.1 290.5 156.5 236.7"></polygon>
                <polygon id="Path" fill="#E0E3EE" points="192.6 261.4 199.3 285.5 175.1 290.5"></polygon>
                <polygon id="Path" fill="#C3CBE9" points="126.9 228.9 147.7 290.1 156.5 236.7"></polygon>
                <polygon id="Path" fill="#435382" points="122.9 287.2 147.7 290.1 126.9 228.9"></polygon>
                <polygon id="Path" fill="#ED6F24" points="8.8 372.3 0.3 395.2 34.4 377.5"></polygon>
                <polygon id="Path" fill="#EA5B14" points="0.3 395.2 21.4 414.3 34.4 377.5"></polygon>
                <polygon id="Path" fill="#DE3D14" points="21.4 414.3 53.1 418 34.4 377.5"></polygon>
                <polygon id="Path" fill="#CC2817" points="53.1 418 61.8 395.8 34.4 377.5"></polygon>
                <polygon id="Path" fill="#BB1818" points="61.8 395.8 56.7 379.9 34.4 377.5"></polygon>
                <polygon id="Path" fill="#EA5B14" points="287.8 21.1 304 1.9 296.7 54"></polygon>
                <polygon id="Path" fill="#DE3D14" points="304 1.9 326.2 0.9 296.7 54"></polygon>
                <polygon id="Path" fill="#CC2817" points="326.2 0.9 334.6 23.3 296.7 54"></polygon>
                <polygon id="Path" fill="#BB1818" points="334.6 23.3 330.2 44.4 296.7 54"></polygon>
                <polygon id="Path" fill="#ED6F24" points="122.9 287.2 127.9 302.2 147.7 290.1"></polygon>
                <polygon id="Path" fill="#EA5B14" points="127.9 302.2 159.2 304.5 147.7 290.1"></polygon>
                <polygon id="Path" fill="#F49931" points="159.2 304.5 175.1 290.5 147.7 290.1"></polygon>
                <polygon id="Path" fill="#ED6F24" points="159.2 304.5 194.6 300.9 175.1 290.5"></polygon>
                <polygon id="Path" fill="#EA5B14" points="194.6 300.9 199.3 285.5 175.1 290.5"></polygon>
                <polygon id="Path" fill="#566CA8" points="178.3 196.5 232.8 200.8 215.7 171.9"></polygon>
                <polygon id="Path" fill="#435382" points="178.3 196.5 212.2 221.9 232.8 200.8"></polygon>
                <polygon id="Path" fill="#909FD1" points="212.2 221.9 192.6 261.4 178.3 196.5"></polygon>
                <polygon id="Path" fill="#909FD1" points="192.6 261.4 224.3 275.1 199.3 285.5"></polygon>
                <polygon id="Path" fill="#6A8AC6" points="224.3 275.1 212.2 221.9 192.6 261.4"></polygon>
                <polygon id="Path" fill="#435382" points="212.2 221.9 245 259.4 224.3 275.1"></polygon>
                <polygon id="Path" fill="#313C62" points="232.8 200.8 245 259.4 212.2 221.9"></polygon>
                <polygon id="Path" fill="#ED6F24" points="194.6 300.9 220.6 290.8 199.3 285.5"></polygon>
                <polygon id="Path" fill="#DE3D14" points="220.6 290.8 224.3 275.1 199.3 285.5"></polygon>
                <polygon id="Path" fill="#CC2817" points="220.6 290.8 241.4 278.2 224.3 275.1"></polygon>
                <polygon id="Path" fill="#BB1818" points="241.4 278.2 245 259.4 224.3 275.1"></polygon>
                <polygon id="Path" fill="#BA1818" points="245 259.4 253.9 266.1 241.4 278.2"></polygon>
                <polygon id="Path" fill="#303657" points="245 259.4 253 247.1 252.9 204.6"></polygon>
                <polygon id="Path" fill="#313C62" points="252.9 204.6 232.8 200.8 245 259.4"></polygon>
                <polygon id="Path" fill="#303657" points="232.8 200.8 215.7 171.9 252.9 204.6"></polygon>
                <polygon id="Path" fill="#F0F2F5" points="310.7 123.7 269.9 138.2 286.5 163.1"></polygon>
                <polygon id="Path" fill="#435382" points="306.6 184.2 319.9 174.3 215.7 171.9"></polygon>
                <polygon id="Path" fill="#CC2817" points="253.9 266.1 253 247.1 245 259.4"></polygon>
                <polygon id="Path" fill="#6A8AC6" points="127.9 302.2 117.5 346.6 159.2 304.5"></polygon>
                <polygon id="Path" fill="#F0F2F5" points="117.5 346.6 107.8 392.1 138.8 362.8"></polygon>
                <polygon id="Path" fill="#F0F2F5" points="107.8 392.1 128.6 437.8 146 406"></polygon>
                <polygon id="Path" fill="#E0E3EE" points="138.8 362.8 146 406 107.8 392.1"></polygon>
                <polygon id="Path" fill="#E0E3EE" points="159.2 304.5 138.8 362.8 117.5 346.6"></polygon>
                <polygon id="Path" fill="#E0E3EE" points="159.2 304.5 180.2 325.6 194.6 300.9"></polygon>
                <polygon id="Path" fill="#F0F2F5" points="138.8 362.8 180.2 325.6 159.2 304.5"></polygon>
                <polygon id="Path" fill="#E0E3EE" points="180.8 362.3 170.5 393 138.8 362.8"></polygon>
                <polygon id="Path" fill="#C3CBE9" points="138.8 362.8 180.2 325.6 180.8 362.3"></polygon>
                <polygon id="Path" fill="#F0F2F5" points="170.5 393 146 406 138.8 362.8"></polygon>
                <polygon id="Path" fill="#F0F2F5" points="180.2 325.6 198.8 343.7 194.6 300.9"></polygon>
                <polygon id="Path" fill="#E0E3EE" points="198.8 343.7 220.6 290.8 194.6 300.9"></polygon>
                <polygon id="Path" fill="#E0E3EE" points="198.8 343.7 180.8 362.3 180.2 325.6"></polygon>
                <polygon id="Path" fill="#6A8AC6" points="180.8 362.3 182.9 411.8 170.5 393"></polygon>
                <polygon id="Path" fill="#435382" points="182.9 411.8 200 475.6 170.7 430.3"></polygon>
                <polygon id="Path" fill="#566CA8" points="170.5 393 170.7 430.3 182.9 411.8"></polygon>
                <polygon id="Path" fill="#E0E3EE" points="146 406 170.7 430.3 170.5 393"></polygon>
                <polygon id="Path" fill="#435382" points="198.8 343.7 182.9 411.8 180.8 362.3"></polygon>
                <polygon id="Path" fill="#E0E3EE" points="128.6 437.8 148.8 477.8 146 406"></polygon>
                <polygon id="Path" fill="#F0F2F5" points="148.8 477.8 170.7 430.3 146 406"></polygon>
                <polygon id="Path" fill="#E0E3EE" points="148.8 477.8 178.8 523.9 174.2 488"></polygon>
                <polygon id="Path" fill="#C3CBE9" points="174.2 488 170.7 430.3 148.8 477.8"></polygon>
                <polygon id="Path" fill="#6A8AC6" points="200 475.6 174.2 488 170.7 430.3"></polygon>
                <polygon id="Path" fill="#6A8AC6" points="178.8 523.9 192.8 496.9 174.2 488"></polygon>
                <polygon id="Path" fill="#566CA8" points="192.8 496.9 200 475.6 174.2 488"></polygon>
                <polygon id="Path" fill="#F0F2F5" points="148.8 477.8 144.8 506.1 178.8 523.9"></polygon>
                <polygon id="Path" fill="#566CA8" points="178.8 523.9 195.7 514.2 192.8 496.9"></polygon>
                <polygon id="Path" fill="#303657" points="195.7 514.2 205.3 484.8 192.8 496.9"></polygon>
                <path d="M200,475.6 L205.3,484.7 C205.3,484.7 192.1,499.8 192.8,496.9 C193.5,494 200,475.6 200,475.6 Z" id="Path" fill="#435382"></path>
                <polygon id="Path" fill="#C3CBE9" points="144.8 506.1 157.6 521.8 178.8 523.9"></polygon>
                <polygon id="Path" fill="#C3CBE9" points="198.8 343.7 231.5 317.1 220.6 290.8"></polygon>
                <polygon id="Path" fill="#6A8AC6" points="231.5 317.1 241.4 278.2 220.6 290.8"></polygon>
                <polygon id="Path" fill="#303657" points="253.9 266.1 266.7 311 241.4 278.2"></polygon>
                <polygon id="Path" fill="#303657" points="266.7 311 278 369.4 258.6 328.2"></polygon>
                <polygon id="Path" fill="#313C62" points="278 369.4 262.2 411 264.5 382.4"></polygon>
                <polygon id="Path" fill="#6A8AC6" points="262.2 411 252.8 426.9 252.1 413.1"></polygon>
                <polygon id="Path" fill="#313C62" points="241.4 278.2 258.6 328.2 266.7 311"></polygon>
                <polygon id="Path" fill="#6A8AC6" points="231.5 317.1 258.6 328.2 241.4 278.2"></polygon>
                <polygon id="Path" fill="#F0F2F5" points="198.8 343.7 210.3 345.6 231.5 317.1"></polygon>
                <polygon id="Path" fill="#909FD1" points="231.5 317.1 278 369.4 258.6 328.2"></polygon>
                <polygon id="Path" fill="#E0E3EE" points="210.3 345.6 278 369.4 231.5 317.1"></polygon>
                <polygon id="Path" fill="#6A8AC6" points="264.5 382.4 210.3 345.6 278 369.4"></polygon>
                <polygon id="Path" fill="#313C62" points="252.1 413.1 264.5 382.4 262.2 411"></polygon>
                <polygon id="Path" fill="#6A8AC6" points="252.1 413.1 234.3 400.2 264.5 382.4"></polygon>
                <polygon id="Path" fill="#C3CBE9" points="264.5 382.4 248.2 377.3 210.3 345.6"></polygon>
                <polygon id="Path" fill="#C3CBE9" points="248.2 377.3 234.3 400.2 264.5 382.4"></polygon>
                <polygon id="Path" fill="#E0E3EE" points="234.3 400.2 220.9 419.5 252.1 413.1"></polygon>
                <polygon id="Path" fill="#C3CBE9" points="220.9 419.5 252.8 426.9 252.1 413.1"></polygon>
                <polygon id="Path" fill="#F0F2F5" points="220.9 419.5 246.2 443.7 252.8 426.9"></polygon>
                <polygon id="Path" fill="#566CA8" points="246.2 443.7 259.8 447.9 252.8 426.9"></polygon>
                <polygon id="Path" fill="#313C62" points="259.8 447.9 271.5 440.4 252.8 426.9"></polygon>
                <polygon id="Path" fill="#313C62" points="271.5 440.4 277.7 430.3 262.2 411"></polygon>
                <polygon id="Path" fill="#313C62" points="262.2 411 252.8 426.9 271.5 440.4"></polygon>
                <polygon id="Path" fill="#F0F2F5" points="220.9 419.5 233.6 372.4 234.3 400.2"></polygon>
                <polygon id="Path" fill="#E0E3EE" points="233.6 372.4 248.2 377.3 234.3 400.2"></polygon>
                <polygon id="Path" fill="#F0F2F5" points="210.3 345.6 233.6 372.4 248.2 377.3"></polygon>
                <polygon id="Path" fill="#C3CBE9" points="319.9 174.3 286.5 163.1 215.7 171.9"></polygon>
            </g>
        </g>
    </g>
</svg>