
<svg width="692px" height="567px" viewBox="0 0 692 567" version="1.1" xmlns="http://www.w3.org/2000/svg" xmlns:xlink="http://www.w3.org/1999/xlink">
    <g id="Elements" stroke="none" stroke-width="1" fill="none" fill-rule="evenodd">
        <g id="Artboard" transform="translate(-2005.000000, -928.000000)" fill-rule="nonzero">
            <g id="object_robot" transform="translate(2005.000000, 927.000000)">
                <polygon id="Path" fill="#6A8AC6" points="541.3092 496.993 532.6319 490.0275 526.7545 489.8251 526.7545 476.0241 526.7545 458.5519 463.6287 458.5519 484.1909 375.4372 491.6033 259.5574 464.9352 250.2859 486.0804 88.1502 492.0438 0.9762 446.2155 243.7777 428.815 237.7281 388.3531 228.2223 380.963 266.2695 344.9745 277.2376 309.8809 268.1078 303.7451 227.6288 261.7779 237.7281 247.5507 242.7279 201.9205 0.9762 207.884 88.1502 228.8983 249.2827 199.6608 259.5574 206.402 375.4372 226.9642 458.5519 161.3859 458.5519 161.3859 473.5772 161.3859 490.5489 155.6846 490.3526 145.7932 497.4102 142.3293 509.7805 146.3932 520.8347 156.3785 528.2109 161.4212 528.0536 161.5641 546.9504 161.5641 567.7874 263.7259 567.4126 263.9213 547.4749 264.0407 524.6744 264.0407 515.9489 309.5152 548.0337 379.0999 547.4073 424.0996 516.8679 424.0996 523.3833 424.2779 546.9504 424.2779 567.7874 526.4396 567.4126 526.6351 547.4749 526.7405 527.3427 533.4923 527.132 543.1512 519.4757 546.0048 508.4909"></polygon>
                <polygon id="Path" fill="#BE5617" points="207.767 324.945 153.1883 340.2012 129.8171 364.2217 70.861 369.8387 0.4451 412.6165 69.1238 391.5533 78.3493 415.8624 14.403 444.1027 86.4643 434.3647 145.5195 383.0027 173.0347 368.7661 214.0243 380.0419 210.6884 338.9028"></polygon>
                <polygon id="Path" fill="#BE5617" points="622.6483 391.7946 691.327 412.8577 620.9111 370.08 561.6949 364.288 538.3237 340.2676 483.7449 325.0114 480.8235 338.9692 477.4877 380.1083 518.4772 368.8324 546.2526 383.244 605.3078 434.606 677.3691 444.344 613.4228 416.1037"></polygon>
                <polygon id="Path" fill="#FFE685" points="145.7932 497.4102 160.8651 509.0121 155.6847 490.3526"></polygon>
                <polygon id="Path" fill="#FDCC7E" points="160.8651 509.0121 167.0918 490.7453 155.6847 490.3526"></polygon>
                <polygon id="Path" fill="#E58B5A" points="160.8651 509.0121 175.7691 497.7108 167.0918 490.7453"></polygon>
                <polygon id="Path" fill="#AC4017" points="160.8651 509.0121 180.4647 509.2087 175.7691 497.7108"></polygon>
                <polygon id="Path" fill="#AA3A17" points="160.8651 509.0121 177.6111 520.1935 180.4647 509.2087"></polygon>
                <polygon id="Path" fill="#AC4017" points="160.8651 509.0121 167.9522 527.8499 177.6111 520.1935"></polygon>
                <polygon id="Path" fill="#BE5617" points="160.8651 509.0121 156.3785 528.2109 167.9522 527.8499"></polygon>
                <polygon id="Path" fill="#CF6D3C" points="160.8651 509.0121 146.3932 520.8347 156.3785 528.2109"></polygon>
                <polygon id="Path" fill="#FDCC7E" points="160.8651 509.0121 142.3293 509.7805 146.3932 520.8347"></polygon>
                <polygon id="Path" fill="#FDF28D" points="160.8651 509.0121 145.7932 497.4102 142.3293 509.7805"></polygon>
                <polygon id="Path" fill="#FFE685" points="511.3333 496.6924 526.4052 508.2943 521.2248 489.6348"></polygon>
                <polygon id="Path" fill="#FDCC7E" points="526.4052 508.2943 532.6319 490.0275 521.2248 489.6348"></polygon>
                <polygon id="Path" fill="#E58B5A" points="526.4052 508.2943 541.3092 496.993 532.6319 490.0275"></polygon>
                <polygon id="Path" fill="#AC4017" points="526.4052 508.2943 546.0048 508.4909 541.3092 496.993"></polygon>
                <polygon id="Path" fill="#AA3A17" points="526.4052 508.2943 543.1512 519.4758 546.0048 508.4909"></polygon>
                <polygon id="Path" fill="#AC4017" points="526.4052 508.2943 533.4923 527.132 543.1512 519.4758"></polygon>
                <polygon id="Path" fill="#BE5617" points="526.4052 508.2943 521.9186 527.4931 533.4923 527.132"></polygon>
                <polygon id="Path" fill="#CF6D3C" points="526.4052 508.2943 511.9333 520.1169 521.9186 527.4931"></polygon>
                <polygon id="Path" fill="#FDCC7E" points="526.4052 508.2943 507.8694 509.0627 511.9333 520.1169"></polygon>
                <polygon id="Path" fill="#FDF28D" points="526.4052 508.2943 511.3333 496.6924 507.8694 509.0627"></polygon>
                <polygon id="Path" fill="#F0F2F5" points="199.6608 259.5574 261.7779 237.7282 257.4697 280.8941"></polygon>
                <polygon id="Path" fill="#C3CBE9" points="257.4697 280.8941 303.7451 227.6289 261.7779 237.7282"></polygon>
                <polygon id="Path" fill="#566CA8" points="257.4697 280.8941 313.9879 295.2029 303.7451 227.6289"></polygon>
                <polygon id="Path" fill="#909FD1" points="375.2642 295.6095 345.2964 391.8973 313.9879 295.2029"></polygon>
                <polygon id="Path" fill="#6A8AC6" points="345.2964 391.8973 257.4697 280.8941 313.9879 295.2029"></polygon>
                <polygon id="Path" fill="#909FD1" points="257.4697 280.8941 278.6132 400.0294 345.2964 391.8973"></polygon>
                <polygon id="Path" fill="#C3CBE9" points="278.6132 400.0294 199.6608 259.5574 257.4697 280.8941"></polygon>
                <polygon id="Path" fill="#F0F2F5" points="278.6132 400.0294 206.402 375.4372 199.6608 259.5574"></polygon>
                <polygon id="Path" fill="#C3CBE9" points="278.6132 400.0294 296.0972 484.1967 206.402 375.4372"></polygon>
                <polygon id="Path" fill="#F0F2F5" points="296.0972 484.1967 236.3263 496.3948 206.402 375.4372"></polygon>
                <polygon id="Path" fill="#C3CBE9" points="296.0972 484.1967 309.5152 548.0337 236.3263 496.3948"></polygon>
                <polygon id="Path" fill="#6A8AC6" points="345.2964 391.8973 296.0972 484.1967 278.6132 400.0294"></polygon>
                <polygon id="Path" fill="#909FD1" points="345.2964 391.8973 392.2652 483.3835 296.0972 484.1967"></polygon>
                <polygon id="Path" fill="#566CA8" points="392.2652 483.3835 379.0999 547.4073 296.0972 484.1967"></polygon>
                <polygon id="Path" fill="#6A8AC6" points="379.0999 547.4073 309.5152 548.0337 296.0972 484.1967"></polygon>
                <polygon id="Path" fill="#6A8AC6" points="491.6033 259.5574 428.815 237.7282 433.1231 280.8941"></polygon>
                <polygon id="Path" fill="#909FD1" points="433.1231 280.8941 388.3531 228.2223 428.815 237.7282"></polygon>
                <polygon id="Path" fill="#C3CBE9" points="433.1231 280.8941 375.2642 295.6095 388.3531 228.2223"></polygon>
                <polygon id="Path" fill="#6A8AC6" points="345.2964 391.8973 433.1231 280.8941 375.2642 295.6095"></polygon>
                <polygon id="Path" fill="#909FD1" points="433.1231 280.8941 411.9797 400.0294 345.2964 391.8973"></polygon>
                <polygon id="Path" fill="#435382" points="411.9797 400.0294 491.6033 259.5574 433.1231 280.8941"></polygon>
                <polygon id="Path" fill="#313C62" points="411.9797 400.0294 484.1909 375.4372 491.6033 259.5574"></polygon>
                <polygon id="Path" fill="#435382" points="411.9797 400.0294 392.2652 483.3835 484.1909 375.4372"></polygon>
                <polygon id="Path" fill="#313C62" points="392.2652 483.3835 454.2666 496.3948 484.1909 375.4372"></polygon>
                <polygon id="Path" fill="#303657" points="392.2652 483.3835 379.0999 547.4073 454.2666 496.3948"></polygon>
                <polygon id="Path" fill="#6A8AC6" points="345.2964 391.8973 392.2652 483.3835 411.9797 400.0294"></polygon>
                <polygon id="Path" fill="#BE5617" points="214.0243 380.0419 210.6884 338.9028 187.6418 349.6147"></polygon>
                <polygon id="Path" fill="#AA3A17" points="187.6418 349.6147 173.0347 368.7661 214.0243 380.0419"></polygon>
                <polygon id="Path" fill="#F59F68" points="210.6884 338.9028 207.767 324.945 187.6418 349.6147"></polygon>
                <polygon id="Path" fill="#FDF28D" points="207.767 324.945 153.1883 340.2012 187.6418 349.6147"></polygon>
                <polygon id="Path" fill="#BE5617" points="187.6418 349.6147 129.8171 364.2217 173.0347 368.7661"></polygon>
                <polygon id="Path" fill="#F59F68" points="153.1883 340.2012 129.8171 364.2217 187.6418 349.6147"></polygon>
                <polygon id="Path" fill="#FDF28D" points="129.8171 364.2217 70.8609 369.8387 69.1238 391.5534"></polygon>
                <polygon id="Path" fill="#AA3A17" points="173.0347 368.7661 145.5195 383.0027 129.8171 364.2217"></polygon>
                <polygon id="Path" fill="#F59F68" points="145.5195 383.0027 69.1238 391.5534 129.8171 364.2217"></polygon>
                <polygon id="Path" fill="#BE5617" points="69.1238 391.5534 78.3493 415.8625 145.5195 383.0027"></polygon>
                <polygon id="Path" fill="#F59F68" points="70.8609 369.8387 0.4451 412.6165 69.1238 391.5534"></polygon>
                <polygon id="Path" fill="#BE5617" points="78.3493 415.8625 14.403 444.1027 86.4643 434.3647"></polygon>
                <polygon id="Path" fill="#AA3A17" points="78.3493 415.8625 86.4643 434.3647 145.5195 383.0027"></polygon>
                <polygon id="Path" fill="#BE5617" points="477.4877 380.1083 480.8235 338.9692 503.8702 349.681"></polygon>
                <polygon id="Path" fill="#AA3A17" points="503.8702 349.681 518.4772 368.8324 477.4877 380.1083"></polygon>
                <polygon id="Path" fill="#AA3A17" points="480.8235 338.9692 483.7449 325.0114 503.8702 349.681"></polygon>
                <polygon id="Path" fill="#BE5617" points="483.7449 325.0114 538.3237 340.2676 503.8702 349.681"></polygon>
                <polygon id="Path" fill="#BE5617" points="503.8702 349.681 561.6949 364.288 518.4772 368.8324"></polygon>
                <polygon id="Path" fill="#AC4017" points="538.3237 340.2676 561.6949 364.288 503.8702 349.681"></polygon>
                <polygon id="Path" fill="#F59F68" points="561.6949 364.288 620.9111 370.08 622.6483 391.7946"></polygon>
                <polygon id="Path" fill="#AA3A17" points="518.4772 368.8324 546.2526 383.244 561.6949 364.288"></polygon>
                <polygon id="Path" fill="#BE5617" points="546.2526 383.244 622.6483 391.7946 561.6949 364.288"></polygon>
                <polygon id="Path" fill="#F59F68" points="622.6483 391.7946 613.4228 416.1037 546.2526 383.244"></polygon>
                <polygon id="Path" fill="#FDF28D" points="620.9111 370.08 691.327 412.8577 622.6483 391.7946"></polygon>
                <polygon id="Path" fill="#BE5617" points="613.4228 416.1037 677.3691 444.344 605.3078 434.606"></polygon>
                <polygon id="Path" fill="#AA3A17" points="613.4228 416.1037 605.3078 434.606 546.2526 383.244"></polygon>
                <polygon id="Path" fill="#F8CDE1" points="302.8015 266.2661 285.112 297.9851 344.9745 277.2376"></polygon>
                <polygon id="Path" fill="#F08DB9" points="285.112 297.9851 346.1101 331.7265 344.9745 277.2376"></polygon>
                <polygon id="Path" fill="#AF3D75" points="344.9745 277.2376 405.2833 297.6362 386.9788 264.4362"></polygon>
                <polygon id="Path" fill="#BF569B" points="346.1101 331.7265 405.2833 297.6362 344.9745 277.2376"></polygon>
                <polygon id="Path" fill="#CDE5D1" points="161.3859 458.552 264.0407 458.552 264.0407 476.0241"></polygon>
                <polygon id="Path" fill="#BDDFCD" points="161.3859 458.552 161.3859 473.5772 264.0407 476.0241"></polygon>
                <polygon id="Path" fill="#9DD3CC" points="264.0407 476.0241 264.0407 495.6725 161.3859 473.5772"></polygon>
                <polygon id="Path" fill="#BDDFCD" points="161.3859 473.5772 161.3859 494.3815 264.0407 495.6725"></polygon>
                <polygon id="Path" fill="#6BA9B5" points="264.0407 495.6725 264.0407 524.6744 161.3859 494.3815"></polygon>
                <polygon id="Path" fill="#9DD3CC" points="161.3859 494.3815 161.3859 523.3833 264.0407 524.6744"></polygon>
                <polygon id="Path" fill="#4393A8" points="161.3859 523.3833 263.9213 547.4749 264.0407 524.6744"></polygon>
                <polygon id="Path" fill="#9DD3CC" points="161.3859 523.3833 161.5641 546.9505 263.9213 547.4749"></polygon>
                <polygon id="Path" fill="#0B4645" points="161.5641 546.9505 263.7259 567.4126 263.9213 547.4749"></polygon>
                <polygon id="Path" fill="#1C5D66" points="161.5641 546.9505 161.5641 567.7874 263.7259 567.4126"></polygon>
                <polygon id="Path" fill="#CDE5D1" points="424.0996 458.552 526.7545 458.552 526.7545 476.0241"></polygon>
                <polygon id="Path" fill="#BDDFCD" points="424.0996 458.552 424.0996 473.5772 526.7545 476.0241"></polygon>
                <polygon id="Path" fill="#9DD3CC" points="526.7545 476.0241 526.7545 495.6725 424.0996 473.5772"></polygon>
                <polygon id="Path" fill="#BDDFCD" points="424.0996 473.5772 424.0996 494.3815 526.7545 495.6725"></polygon>
                <polygon id="Path" fill="#6BA9B5" points="526.7545 495.6725 526.7545 524.6744 424.0996 494.3815"></polygon>
                <polygon id="Path" fill="#9DD3CC" points="424.0996 494.3815 424.0996 523.3833 526.7545 524.6744"></polygon>
                <polygon id="Path" fill="#4393A8" points="424.0996 523.3833 526.6351 547.4749 526.7545 524.6744"></polygon>
                <polygon id="Path" fill="#9DD3CC" points="424.0996 523.3833 424.2779 546.9505 526.6351 547.4749"></polygon>
                <polygon id="Path" fill="#0B4645" points="424.2779 546.9505 526.4396 567.4126 526.6351 547.4749"></polygon>
                <polygon id="Path" fill="#1C5D66" points="424.2779 546.9505 424.2779 567.7874 526.4396 567.4126"></polygon>
                <polygon id="Path" fill="#313C62" points="444.5767 252.4606 486.0804 88.1502 464.3931 254.4423"></polygon>
                <polygon id="Path" fill="#6A8AC6" points="444.5767 252.4606 492.0438 0.9762 486.0804 88.1502"></polygon>
                <polygon id="Path" fill="#C3CBE9" points="249.3877 252.4606 207.884 88.1502 229.5712 254.4423"></polygon>
                <polygon id="Path" fill="#6A8AC6" points="249.3877 252.4606 201.9205 0.9762 207.884 88.1502"></polygon>
            </g>
        </g>
    </g>
</svg>