
<svg width="421px" height="330px" viewBox="0 0 421 330" version="1.1" xmlns="http://www.w3.org/2000/svg" xmlns:xlink="http://www.w3.org/1999/xlink">
    <g id="Pages" stroke="none" stroke-width="1" fill="none" fill-rule="evenodd">
        <g id="Desktop-HD" transform="translate(-232.000000, -135.000000)" fill-rule="nonzero">
            <g id="jz19_logo_black_txt" transform="translate(232.000000, 135.000000)">
                <g id="Group">
                    <polygon id="Path" fill="#ED6F24" points="0.0985948478 323.918429 136.751054 284.438066 114.370023 235.984894"></polygon>
                    <polygon id="Path" fill="#ED6F24" points="277.248712 110.76435 349.321546 222.924471 393.590632 210.163142 420.507026 0.498489426"></polygon>
                    <polygon id="Path" fill="#CC2817" points="15.1836066 20.6374622 86.3690867 175.169184 127.187354 104.882175"></polygon>
                    <polygon id="Path" fill="#CC2817" points="136.751054 284.438066 136.751054 284.438066 236.72623 329.800604 410.154567 317.537764 302.390398 236.583082"></polygon>
                    <polygon id="Path" fill="#BA1818" points="206.950585 164.800604 114.370023 235.984894 136.751054 284.438066 302.390398 236.583082"></polygon>
                    <polygon id="Path" fill="#EA5B14" points="149.2726 66.7975831 149.2726 66.7975831 15.1836066 20.6374622 127.187354 104.882175"></polygon>
                    <polygon id="Path" fill="#EA5B14" points="302.390398 236.583082 410.154567 317.537764 349.321546 222.924471"></polygon>
                    <polygon id="Path" fill="#CC2817" points="277.248712 110.76435 206.950585 164.800604 302.390398 236.583082 349.321546 222.924471"></polygon>
                    <polygon id="Path" fill="#FCC139" points="420.507026 0.498489426 149.2726 66.7975831 277.248712 110.76435"></polygon>
                    <polygon id="Path" fill="#F9B235" points="86.3690867 175.169184 0.0985948478 323.918429 114.370023 235.984894"></polygon>
                    <polygon id="Path" fill="#FCC139" points="206.950585 164.800604 127.187354 104.882175 86.3690867 175.169184 114.370023 235.984894"></polygon>
                    <polygon id="Path" fill="#F9B235" points="127.187354 104.882175 206.950585 164.800604 277.248712 110.76435 149.2726 66.7975831 149.2726 66.7975831"></polygon>
                </g>
            </g>
        </g>
    </g>
</svg>