
<svg width="400px" height="387px" viewBox="0 0 400 387" version="1.1" xmlns="http://www.w3.org/2000/svg" xmlns:xlink="http://www.w3.org/1999/xlink">
    <defs>
        <linearGradient x1="0%" y1="50%" x2="100%" y2="50%" id="linearGradient-1">
            <stop stop-color="#F0F2F5" offset="0%"></stop>
            <stop stop-color="#566CA8" offset="100%"></stop>
        </linearGradient>
    </defs>
    <g id="Page-1" stroke="none" stroke-width="1" fill="none" fill-rule="evenodd">
        <g id="Group-3" fill-rule="nonzero">
            <g id="Group-2">
                <g id="zone_orange-blue" transform="translate(0.000000, 174.000000)">
                    <polygon id="Path" fill="#F59F68" points="356.440678 10.4237288 208.050847 0.0847457627 115.084746 3.38983051 13.3898305 15.7627119 0.508474576 29.4067797 39.4067797 124.915254 117.542373 196.864407 214.661017 212.966102 228.305085 209.661017 315.169492 188.135593 383.728814 114.152542 399.491525 25.6779661"></polygon>
                    <g id="Group" transform="translate(0.000000, 25.423729)">
                        <polygon id="Path" fill="#E58B5A" points="164.661017 28.8135593 235.762712 118.898305 300.677966 25.9322034"></polygon>
                        <polygon id="Path" fill="#CF6D3C" points="300.677966 25.9322034 332.457627 120.59322 235.762712 118.898305"></polygon>
                        <polygon id="Path" fill="#F59F68" points="164.661017 28.8135593 122.457627 130.932203 235.762712 118.898305"></polygon>
                        <polygon id="Path" fill="#FDCC7E" points="164.661017 28.8135593 45.1694915 20.0847458 122.457627 130.932203"></polygon>
                        <polygon id="Path" fill="#FDF28D" points="45.1694915 20.0847458 0.508474576 3.98305085 39.4067797 99.4915254"></polygon>
                        <polygon id="Path" fill="#FFE685" points="122.457627 130.932203 39.4067797 99.4915254 45.1694915 20.0847458"></polygon>
                        <polygon id="Path" fill="#CF6D3C" points="235.762712 118.898305 228.305085 184.237288 122.457627 130.932203"></polygon>
                        <polygon id="Path" fill="#BE5617" points="332.457627 120.59322 228.305085 184.237288 235.762712 118.898305"></polygon>
                        <polygon id="Path" fill="#BE5617" points="300.677966 25.9322034 388.305085 13.8983051 332.457627 120.59322"></polygon>
                        <polygon id="Path" fill="#AC4017" points="388.305085 13.8983051 383.728814 88.7288136 332.457627 120.59322"></polygon>
                        <polygon id="Path" fill="#FDCC7E" points="39.4067797 99.4915254 117.542373 171.440678 122.457627 130.932203"></polygon>
                        <polygon id="Path" fill="#F59F68" points="228.305085 184.237288 117.542373 171.440678 122.457627 130.932203"></polygon>
                        <polygon id="Path" fill="#AA3A17" points="383.728814 88.7288136 399.491525 0.254237288 388.305085 13.8983051"></polygon>
                        <polygon id="Path" fill="#AA3A17" points="228.305085 184.237288 214.661017 187.542373 117.542373 171.440678"></polygon>
                        <polygon id="Path" fill="#AA3A17" points="332.457627 120.59322 315.169492 162.711864 383.728814 88.7288136"></polygon>
                        <polygon id="Path" fill="#AC4017" points="228.305085 184.237288 315.169492 162.711864 332.457627 120.59322"></polygon>
                    </g>
                    <polygon id="Path" fill="url(#linearGradient-1)" points="399.491525 25.6779661 388.305085 39.3220339 300.677966 51.3559322 164.661017 54.2372881 45.1694915 45.5084746 0.508474576 29.4067797 13.3898305 15.7627119 115.084746 3.38983051 208.050847 0.0847457627 356.440678 10.4237288"></polygon>
                </g>
                <g id="object_tree" transform="translate(288.000000, 72.000000)">
                    <polygon id="Path" fill="#FFE685" points="20.761324 119 24 135 11 128.543446"></polygon>
                    <g id="Group">
                        <polygon id="Path" fill="#CF6D3C" points="29.9521127 113.206485 33.9319249 71.9232082 30.8723005 66.6015358 25.7652582 91.274744 16.3333333 64.4129693 13.5497653 70.5870307 21.256338 103.300341 10.7431925 128.549488 23.9478873 134.861775 32.3676056 130.346416 35.0591549 124.333618"></polygon>
                        <polygon id="Path" fill="#FDCC7E" points="10.7431925 128.549488 21.256338 103.300341 20.658216 119.219283"></polygon>
                        <polygon id="Path" fill="#FDCC7E" points="21.256338 103.300341 13.5497653 70.5870307 25.7652582 91.274744"></polygon>
                        <polygon id="Path" fill="#FDF28D" points="20.658216 119.219283 25.7652582 91.274744 21.256338 103.300341"></polygon>
                        <polygon id="Path" fill="#E58B5A" points="25.7652582 91.274744 16.3333333 64.4129693 13.5497653 70.5870307"></polygon>
                        <polygon id="Path" fill="#E58B5A" points="23.9478873 134.861775 25.7652582 91.274744 20.658216 119.219283"></polygon>
                        <polygon id="Path" fill="#BE5617" points="23.9478873 134.861775 32.3676056 130.346416 29.9521127 113.206485"></polygon>
                        <polygon id="Path" fill="#AC4017" points="32.3676056 130.346416 35.0591549 124.333618 29.9521127 113.206485"></polygon>
                        <polygon id="Path" fill="#BE5617" points="29.9521127 113.206485 30.8723005 66.6015358 25.7652582 91.274744"></polygon>
                        <polygon id="Path" fill="#AC4017" points="29.9521127 113.206485 33.9319249 71.9232082 30.8723005 66.6015358"></polygon>
                        <polygon id="Path" fill="#CF6D3C" points="25.7652582 91.274744 29.9521127 113.206485 23.9478873 134.861775"></polygon>
                        <polygon id="Path" fill="#2F768C" points="46.4694836 45.5682594 42.5356808 36.1228669 35.3122066 13.5230375 24.0169014 0.161262799 4.20985915 34.9249147 0.161032864 52.4564846 3.65774648 72.0383959 21.2793427 80.6313993 35.3352113 78.7653584 46.0323944 67.2005119 48.7929577 54.8984872"></polygon>
                        <g id="Path">
                            <path d="M30.6652582,26.1706485 C30.0671362,26.9078498 11.1802817,57.4786689 11.1802817,57.4786689 L30.228169,70.7713311 L30.6652582,26.1706485 Z" fill="#2F768C"></path>
                            <polygon fill="#1C5D66" points="11.157277 57.5017065 21.2793427 80.6313993 30.2051643 70.7943686"></polygon>
                            <polygon fill="#1C5D66" points="30.6652582 26.1706485 43.5938967 53.3319113 30.2051643 70.7943686"></polygon>
                            <polygon fill="#0B4645" points="43.5938967 53.3319113 42.5356808 36.1228669 30.6652582 26.1706485"></polygon>
                            <polygon fill="#2F768C" points="42.5356808 36.1228669 35.3122066 13.5230375 30.6652582 26.1706485"></polygon>
                            <polygon fill="#1C5D66" points="43.5938967 53.3319113 46.4694836 45.5682594 42.5356808 36.1228669"></polygon>
                            <polygon fill="#0B4645" points="21.2793427 80.6313993 35.3352113 78.7653584 30.2051643 70.7943686"></polygon>
                            <polygon fill="#0B403B" points="35.3352113 78.7653584 43.5938967 53.3319113 30.2051643 70.7943686"></polygon>
                            <polygon fill="#6BA9B5" points="21.2793427 80.6313993 3.65774648 72.0383959 11.157277 57.5017065"></polygon>
                            <polygon fill="#BDDFCD" points="3.65774648 72.0383959 0.161032864 52.4564846 11.157277 57.5017065"></polygon>
                            <polygon fill="#6BA9B5" points="0.161032864 52.4564846 11.7784038 36.6988055 11.157277 57.5017065"></polygon>
                            <polygon fill="#4393A8" points="11.7784038 36.6988055 30.6652582 26.1706485 11.157277 57.5017065"></polygon>
                            <polygon fill="#0B4645" points="43.5938967 53.3319113 46.0323944 67.2005119 35.3352113 78.7653584"></polygon>
                            <polygon fill="#4393A8" points="35.3122066 13.5230375 24.0169014 0.161262799 30.6652582 26.1706485"></polygon>
                            <polygon fill="#6BA9B5" points="11.7784038 36.6988055 24.0169014 0.161262799 30.6652582 26.1706485"></polygon>
                            <polygon fill="#CDE5D1" points="0.161032864 52.4564846 4.20985915 34.9249147 11.7784038 36.6988055"></polygon>
                            <polygon fill="#BDDFCD" points="4.20985915 34.9249147 24.0169014 0.161262799 11.7784038 36.6988055"></polygon>
                            <polygon fill="#0B403B" points="46.4694836 45.5682594 48.7929577 54.8984642 43.5938967 53.3319113"></polygon>
                            <polygon fill="#1C5D66" points="48.7929577 54.8984642 46.0323944 67.2005119 43.5938967 53.3319113"></polygon>
                        </g>
                    </g>
                </g>
                <g id="object_tree" transform="translate(313.000000, 0.000000)">
                    <polygon id="Path" fill="#FFE685" points="32.0174216 184 37 209 17 198.911635"></polygon>
                    <g id="Group">
                        <polygon id="Path" fill="#CF6D3C" points="46.456338 175.26041 52.629108 111.347782 47.8835681 103.109044 39.9624413 141.306826 25.3333333 99.7208191 21.0159624 109.279181 32.9690141 159.924232 16.6629108 199.013652 37.143662 208.786007 50.2028169 201.795563 54.3774648 192.48686"></polygon>
                        <polygon id="Path" fill="#FDCC7E" points="16.6629108 199.013652 32.9690141 159.924232 32.0413146 184.569113"></polygon>
                        <polygon id="Path" fill="#FDCC7E" points="32.9690141 159.924232 21.0159624 109.279181 39.9624413 141.306826"></polygon>
                        <polygon id="Path" fill="#FDF28D" points="32.0413146 184.569113 39.9624413 141.306826 32.9690141 159.924232"></polygon>
                        <polygon id="Path" fill="#E58B5A" points="39.9624413 141.306826 25.3333333 99.7208191 21.0159624 109.279181"></polygon>
                        <polygon id="Path" fill="#E58B5A" points="37.143662 208.786007 39.9624413 141.306826 32.0413146 184.569113"></polygon>
                        <polygon id="Path" fill="#BE5617" points="37.143662 208.786007 50.2028169 201.795563 46.456338 175.26041"></polygon>
                        <polygon id="Path" fill="#AC4017" points="50.2028169 201.795563 54.3774648 192.48686 46.456338 175.26041"></polygon>
                        <polygon id="Path" fill="#BE5617" points="46.456338 175.26041 47.8835681 103.109044 39.9624413 141.306826"></polygon>
                        <polygon id="Path" fill="#AC4017" points="46.456338 175.26041 52.629108 111.347782 47.8835681 103.109044"></polygon>
                        <polygon id="Path" fill="#CF6D3C" points="39.9624413 141.306826 46.456338 175.26041 37.143662 208.786007"></polygon>
                        <polygon id="Path" fill="#2F768C" points="72.0751174 70.5464164 65.9737089 55.9235495 54.7699531 20.9356655 37.2507042 0.249658703 6.52957746 54.068942 0.249765258 81.2104096 5.67323944 111.526109 33.0046948 124.829352 54.8056338 121.940444 71.3971831 104.036348 75.6788732 84.9909913"></polygon>
                        <g id="Path">
                            <path d="M47.5624413,40.516041 C46.6347418,41.6573379 17.3408451,88.9854949 17.3408451,88.9854949 L46.884507,109.564505 L47.5624413,40.516041 Z" fill="#2F768C"></path>
                            <polygon fill="#1C5D66" points="17.3051643 89.0211604 33.0046948 124.829352 46.8488263 109.600171"></polygon>
                            <polygon fill="#1C5D66" points="47.5624413 40.516041 67.6150235 82.5656997 46.8488263 109.600171"></polygon>
                            <polygon fill="#0B4645" points="67.6150235 82.5656997 65.9737089 55.9235495 47.5624413 40.516041"></polygon>
                            <polygon fill="#2F768C" points="65.9737089 55.9235495 54.7699531 20.9356655 47.5624413 40.516041"></polygon>
                            <polygon fill="#1C5D66" points="67.6150235 82.5656997 72.0751174 70.5464164 65.9737089 55.9235495"></polygon>
                            <polygon fill="#0B4645" points="33.0046948 124.829352 54.8056338 121.940444 46.8488263 109.600171"></polygon>
                            <polygon fill="#0B403B" points="54.8056338 121.940444 67.6150235 82.5656997 46.8488263 109.600171"></polygon>
                            <polygon fill="#6BA9B5" points="33.0046948 124.829352 5.67323944 111.526109 17.3051643 89.0211604"></polygon>
                            <polygon fill="#BDDFCD" points="5.67323944 111.526109 0.249765258 81.2104096 17.3051643 89.0211604"></polygon>
                            <polygon fill="#6BA9B5" points="0.249765258 81.2104096 18.2685446 56.8151877 17.3051643 89.0211604"></polygon>
                            <polygon fill="#4393A8" points="18.2685446 56.8151877 47.5624413 40.516041 17.3051643 89.0211604"></polygon>
                            <polygon fill="#0B4645" points="67.6150235 82.5656997 71.3971831 104.036348 54.8056338 121.940444"></polygon>
                            <polygon fill="#4393A8" points="54.7699531 20.9356655 37.2507042 0.249658703 47.5624413 40.516041"></polygon>
                            <polygon fill="#6BA9B5" points="18.2685446 56.8151877 37.2507042 0.249658703 47.5624413 40.516041"></polygon>
                            <polygon fill="#CDE5D1" points="0.249765258 81.2104096 6.52957746 54.068942 18.2685446 56.8151877"></polygon>
                            <polygon fill="#BDDFCD" points="6.52957746 54.068942 37.2507042 0.249658703 18.2685446 56.8151877"></polygon>
                            <polygon fill="#0B403B" points="72.0751174 70.5464164 75.6788732 84.9909556 67.6150235 82.5656997"></polygon>
                            <polygon fill="#1C5D66" points="75.6788732 84.9909556 71.3971831 104.036348 67.6150235 82.5656997"></polygon>
                        </g>
                    </g>
                </g>
                <g id="object_tree" transform="translate(49.000000, 122.000000) scale(1, 1) translate(-49.000000, -122.000000) translate(21.000000, 45.000000)">
                    <polygon id="Path" fill="#FFE685" points="23.2630662 136 27 154 12 146.736377"></polygon>
                    <g id="Group">
                        <polygon id="Path" fill="#CF6D3C" points="34.2309859 129.139249 38.7793427 82.0457338 35.2826291 75.9750853 29.4460094 104.120819 18.6666667 73.4784983 15.485446 80.5215017 24.2929577 117.838908 12.2779343 146.641638 27.3690141 153.842321 36.9915493 148.691468 40.0676056 141.832423"></polygon>
                        <polygon id="Path" fill="#FDCC7E" points="12.2779343 146.641638 24.2929577 117.838908 23.6093897 135.998294"></polygon>
                        <polygon id="Path" fill="#FDCC7E" points="24.2929577 117.838908 15.485446 80.5215017 29.4460094 104.120819"></polygon>
                        <polygon id="Path" fill="#FDF28D" points="23.6093897 135.998294 29.4460094 104.120819 24.2929577 117.838908"></polygon>
                        <polygon id="Path" fill="#E58B5A" points="29.4460094 104.120819 18.6666667 73.4784983 15.485446 80.5215017"></polygon>
                        <polygon id="Path" fill="#E58B5A" points="27.3690141 153.842321 29.4460094 104.120819 23.6093897 135.998294"></polygon>
                        <polygon id="Path" fill="#BE5617" points="27.3690141 153.842321 36.9915493 148.691468 34.2309859 129.139249"></polygon>
                        <polygon id="Path" fill="#AC4017" points="36.9915493 148.691468 40.0676056 141.832423 34.2309859 129.139249"></polygon>
                        <polygon id="Path" fill="#BE5617" points="34.2309859 129.139249 35.2826291 75.9750853 29.4460094 104.120819"></polygon>
                        <polygon id="Path" fill="#AC4017" points="34.2309859 129.139249 38.7793427 82.0457338 35.2826291 75.9750853"></polygon>
                        <polygon id="Path" fill="#CF6D3C" points="29.4460094 104.120819 34.2309859 129.139249 27.3690141 153.842321"></polygon>
                        <polygon id="Path" fill="#2F768C" points="53.1079812 51.98157 48.6122066 41.2068259 40.3568075 15.4262799 27.4478873 0.183959044 4.81126761 39.840273 0.184037559 59.8392491 4.18028169 82.1771331 24.3192488 91.9795222 40.3830986 89.8508532 52.6084507 76.6583618 55.7633803 62.624941"></polygon>
                        <g id="Path">
                            <path d="M35.0460094,29.8539249 C34.3624413,30.6948805 12.7774648,65.5682594 12.7774648,65.5682594 L34.5464789,80.7317406 L35.0460094,29.8539249 Z" fill="#2F768C"></path>
                            <polygon fill="#1C5D66" points="12.7511737 65.5945392 24.3192488 91.9795222 34.5201878 80.7580205"></polygon>
                            <polygon fill="#1C5D66" points="35.0460094 29.8539249 49.8215962 60.837884 34.5201878 80.7580205"></polygon>
                            <polygon fill="#0B4645" points="49.8215962 60.837884 48.6122066 41.2068259 35.0460094 29.8539249"></polygon>
                            <polygon fill="#2F768C" points="48.6122066 41.2068259 40.3568075 15.4262799 35.0460094 29.8539249"></polygon>
                            <polygon fill="#1C5D66" points="49.8215962 60.837884 53.1079812 51.98157 48.6122066 41.2068259"></polygon>
                            <polygon fill="#0B4645" points="24.3192488 91.9795222 40.3830986 89.8508532 34.5201878 80.7580205"></polygon>
                            <polygon fill="#0B403B" points="40.3830986 89.8508532 49.8215962 60.837884 34.5201878 80.7580205"></polygon>
                            <polygon fill="#6BA9B5" points="24.3192488 91.9795222 4.18028169 82.1771331 12.7511737 65.5945392"></polygon>
                            <polygon fill="#BDDFCD" points="4.18028169 82.1771331 0.184037559 59.8392491 12.7511737 65.5945392"></polygon>
                            <polygon fill="#6BA9B5" points="0.184037559 59.8392491 13.4610329 41.8638225 12.7511737 65.5945392"></polygon>
                            <polygon fill="#4393A8" points="13.4610329 41.8638225 35.0460094 29.8539249 12.7511737 65.5945392"></polygon>
                            <polygon fill="#0B4645" points="49.8215962 60.837884 52.6084507 76.6583618 40.3830986 89.8508532"></polygon>
                            <polygon fill="#4393A8" points="40.3568075 15.4262799 27.4478873 0.183959044 35.0460094 29.8539249"></polygon>
                            <polygon fill="#6BA9B5" points="13.4610329 41.8638225 27.4478873 0.183959044 35.0460094 29.8539249"></polygon>
                            <polygon fill="#CDE5D1" points="0.184037559 59.8392491 4.81126761 39.840273 13.4610329 41.8638225"></polygon>
                            <polygon fill="#BDDFCD" points="4.81126761 39.840273 27.4478873 0.183959044 13.4610329 41.8638225"></polygon>
                            <polygon fill="#0B403B" points="53.1079812 51.98157 55.7633803 62.6249147 49.8215962 60.837884"></polygon>
                            <polygon fill="#1C5D66" points="55.7633803 62.6249147 52.6084507 76.6583618 49.8215962 60.837884"></polygon>
                        </g>
                    </g>
                </g>
            </g>
            <g id="object_dude-blue" transform="translate(132.000000, 30.000000)">
                <g id="Group" transform="translate(0.000000, 43.576052)" fill="#CF6D3C">
                    <polygon id="Path" points="11.2763754 22.2126888 26.1242718 13.8380665 13.4834951 3.15045317 8.70809061 0.0398791541 5.57799353 11.7643505 5.77864078 25.1238671"></polygon>
                    <polygon id="Path" points="118.622654 25.1238671 118.783172 11.7643505 115.653074 0.0398791541 110.87767 3.15045317 98.2770227 13.8380665 113.08479 22.2126888"></polygon>
                    <polygon id="Path" points="108.630421 111.661631 93.8627832 110.744411 87.6828479 111.063444 79.0550162 111.980665 71.3501618 122.389124 78.77411 131.880363 88.3249191 131.880363 102.490615 131.880363 118.542395 131.880363 123.759223 122.10997"></polygon>
                    <polygon id="Path" points="36.3572816 111.063444 30.1773463 110.744411 15.4097087 111.661631 0.280906149 122.10997 5.49773463 131.880363 21.5495146 131.880363 35.7152104 131.880363 45.2660194 131.880363 52.6899676 122.389124 44.9851133 111.980665"></polygon>
                </g>
                <polygon id="Path" fill="#6989C5" points="115.127783 91.5181235 107.042823 57.02966 101.302501 33.1037886 62.7372388 1.57605178 24.6974991 33.1037886 18.9571771 57.02966 10.9126413 91.5181235 4 136.089061 29.2250771 160.53506 54.288455 164.576052 72.3179171 164.335993 96.7749229 160.53506 122 136.089061"></polygon>
                <g id="Group" transform="translate(5.000000, 43.576052)">
                    <g id="Path">
                        <polygon fill="#BD5416" points="20.9992531 13.7698413 8.30296762 3.13492063 4.7963745 12.6190476"></polygon>
                        <polygon fill="#AA3800" points="4.7963745 12.6190476 6.08615588 22.1031746 20.9992531 13.7698413"></polygon>
                        <polygon fill="#FFA166" points="8.30296762 3.13492063 3.50659312 0.0396825397 4.7963745 12.6190476"></polygon>
                        <polygon fill="#FFF48A" points="3.50659312 0.0396825397 0.362751013 11.7063492 4.7963745 12.6190476"></polygon>
                        <polygon fill="#BD5416" points="4.7963745 12.6190476 0.564279353 25 6.08615588 22.1031746"></polygon>
                        <polygon fill="#FFA166" points="0.362751013 11.7063492 0.564279353 25 4.7963745 12.6190476"></polygon>
                    </g>
                    <g transform="translate(93.106093, 0.000000)" id="Path">
                        <polygon fill="#AB3E00" points="0.362751013 13.7698413 13.0187308 3.13492063 16.5253239 12.6190476"></polygon>
                        <polygon fill="#AA3800" points="16.5253239 12.6190476 15.2355425 22.1031746 0.362751013 13.7698413"></polygon>
                        <polygon fill="#FFA166" points="13.0187308 3.13492063 17.8151053 0.0396825397 16.5253239 12.6190476"></polygon>
                        <polygon fill="#BD5416" points="17.8151053 0.0396825397 20.9589474 11.7063492 16.5253239 12.6190476"></polygon>
                        <polygon fill="#BD5416" points="16.5253239 12.6190476 20.7977247 25 15.2355425 22.1031746"></polygon>
                        <polygon fill="#AB3E00" points="20.9589474 11.7063492 20.7977247 25 16.5253239 12.6190476"></polygon>
                    </g>
                </g>
                <g id="Group" transform="translate(0.000000, 154.576052)">
                    <g transform="translate(71.067599, 0.000000)" id="Path">
                        <polygon fill="#AA3800" points="8.03023716 1.47777778 0.321209487 11.6277778 11.443088 11.3555556 16.6627421 0.583333333"></polygon>
                        <polygon fill="#AB3E00" points="16.6627421 0.583333333 22.8460247 0.272222222 35.4936483 11.6277778 11.443088 11.3555556"></polygon>
                        <polygon fill="#BD5416" points="22.8460247 0.272222222 37.6216611 1.16666667 52.7586582 11.3555556 35.4936483 11.6277778"></polygon>
                        <polygon fill="#AB3E00" points="52.7586582 11.3555556 47.539004 20.8833333 31.4785297 20.8833333 35.4936483 11.6277778"></polygon>
                        <polygon fill="#CF6D3C" points="31.4785297 20.8833333 17.3051611 20.8833333 11.443088 11.3555556 35.4936483 11.6277778"></polygon>
                        <polygon fill="#BD5416" points="17.3051611 20.8833333 7.74917886 20.8833333 0.321209487 11.6277778 11.443088 11.3555556"></polygon>
                    </g>
                    <g id="Path">
                        <polygon fill="#AA3800" points="45.0094793 1.47777778 52.718507 11.6277778 41.5966285 11.3555556 36.3769744 0.583333333"></polygon>
                        <polygon fill="#CF6D3C" points="36.3769744 0.583333333 30.1936917 0.272222222 17.5460682 11.6277778 41.5966285 11.3555556"></polygon>
                        <polygon fill="#FFE584" points="30.1936917 0.272222222 15.4180554 1.16666667 0.281058301 11.3555556 17.5460682 11.6277778"></polygon>
                        <polygon fill="#CF6D3C" points="0.281058301 11.3555556 5.50071246 20.8833333 21.5611868 20.8833333 17.5460682 11.6277778"></polygon>
                        <polygon fill="#BD5416" points="21.5611868 20.8833333 35.7345554 20.8833333 41.5966285 11.3555556 17.5460682 11.6277778"></polygon>
                        <polygon fill="#AB3E00" points="35.7345554 20.8833333 45.2905376 20.8833333 52.718507 11.6277778 41.5966285 11.3555556"></polygon>
                    </g>
                </g>
                <g id="Group" transform="translate(4.000000, 0.576052)">
                    <polygon id="Path" fill="#909FD1" points="0.3221843 135.089487 25.4525597 159.589242 23.7208191 142.266993"></polygon>
                    <polygon id="Path" fill="#6989C5" points="23.7208191 142.266993 50.421843 163.63912 25.4525597 159.589242"></polygon>
                    <polygon id="Path" fill="#546BA7" points="23.7208191 142.266993 46.4750853 144.552567 50.421843 163.63912"></polygon>
                    <polygon id="Path" fill="#425281" points="71.1624573 144.392176 68.3836177 163.398533 50.421843 163.63912"></polygon>
                    <polygon id="Path" fill="#6989C5" points="50.421843 163.63912 71.1624573 144.392176 46.4750853 144.552567"></polygon>
                    <polygon id="Path" fill="#909FD1" points="71.1624573 144.392176 59.1208191 97.7584352 46.4750853 144.552567"></polygon>
                    <polygon id="Path" fill="#6989C5" points="59.1208191 97.7584352 23.7208191 142.266993 46.4750853 144.552567"></polygon>
                    <polygon id="Path" fill="#909FD1" points="23.7208191 142.266993 32.2587031 94.5105134 59.1208191 97.7584352"></polygon>
                    <polygon id="Path" fill="#C2CAE8" points="32.2587031 94.5105134 0.3221843 135.089487 23.7208191 142.266993"></polygon>
                    <polygon id="Path" fill="#F0F2F5" points="32.2587031 94.5105134 7.20887372 90.4205379 0.3221843 135.089487"></polygon>
                    <polygon id="Path" fill="#C2CAE8" points="32.2587031 94.5105134 39.3064846 60.7481663 7.20887372 90.4205379"></polygon>
                    <polygon id="Path" fill="#F0F2F5" points="39.3064846 60.7481663 15.2232082 55.8562347 7.20887372 90.4205379"></polygon>
                    <polygon id="Path" fill="#E0E3EF" points="15.2232082 55.8562347 20.9419795 31.8777506 44.7030717 35.1657702"></polygon>
                    <polygon id="Path" fill="#C2CAE8" points="39.3064846 60.7481663 44.7030717 35.1657702 15.2232082 55.8562347"></polygon>
                    <polygon id="Path" fill="#6989C5" points="59.1208191 97.7584352 39.3064846 60.7481663 32.2587031 94.5105134"></polygon>
                    <polygon id="Path" fill="#909FD1" points="59.1208191 97.7584352 78.0088737 61.0689487 39.3064846 60.7481663"></polygon>
                    <polygon id="Path" fill="#546BA7" points="78.0088737 61.0689487 72.7331058 35.406357 39.3064846 60.7481663"></polygon>
                    <polygon id="Path" fill="#6989C5" points="72.7331058 35.406357 44.7030717 35.1657702 39.3064846 60.7481663"></polygon>
                    <polygon id="Path" fill="#909FD1" points="72.7331058 35.406357 58.8389078 0.280684597 44.7030717 35.1657702"></polygon>
                    <polygon id="Path" fill="#F0F2F5" points="20.9419795 31.8777506 58.8389078 0.280684597 44.7030717 35.1657702"></polygon>
                    <polygon id="Path" fill="#2F3657" points="117.879181 135.089487 92.7488055 159.589242 94.4805461 142.266993"></polygon>
                    <polygon id="Path" fill="#303C61" points="94.4805461 142.266993 68.3836177 163.398533 92.7488055 159.589242"></polygon>
                    <polygon id="Path" fill="#546BA7" points="94.4805461 142.266993 71.1624573 144.392176 68.3836177 163.398533"></polygon>
                    <polygon id="Path" fill="#6989C5" points="59.1208191 97.7584352 94.4805461 142.266993 71.1624573 144.392176"></polygon>
                    <polygon id="Path" fill="#909FD1" points="94.4805461 142.266993 85.9426621 94.5105134 59.1208191 97.7584352"></polygon>
                    <polygon id="Path" fill="#425281" points="85.9426621 94.5105134 117.879181 135.089487 94.4805461 142.266993"></polygon>
                    <polygon id="Path" fill="#2F3657" points="85.9426621 94.5105134 111.032765 90.4205379 117.879181 135.089487"></polygon>
                    <polygon id="Path" fill="#425281" points="85.9426621 94.5105134 78.0088737 61.0689487 111.032765 90.4205379"></polygon>
                    <polygon id="Path" fill="#2F3657" points="78.0088737 61.0689487 102.978157 55.8562347 111.032765 90.4205379"></polygon>
                    <polygon id="Path" fill="#2F3657" points="102.978157 55.8562347 97.2593857 31.8777506 72.7331058 35.406357"></polygon>
                    <polygon id="Path" fill="#425281" points="78.0088737 61.0689487 72.7331058 35.406357 102.978157 55.8562347"></polygon>
                    <polygon id="Path" fill="#6989C5" points="59.1208191 97.7584352 78.0088737 61.0689487 85.9426621 94.5105134"></polygon>
                    <polygon id="Path" fill="#546BA7" points="97.2593857 31.8777506 58.8389078 0.280684597 72.7331058 35.406357"></polygon>
                </g>
                <g id="Group" transform="translate(27.000000, 43.576052)">
                    <g id="Path">
                        <g>
                            <polygon fill="#FFB5DB" points="3.0283353 6.47228916 16.2318772 16.7542169 11.7095632 0.204819277"></polygon>
                            <polygon fill="#FB8AC4" points="16.2318772 16.7542169 21.6828808 0.573493976 11.7095632 0.204819277"></polygon>
                            <polygon fill="#D474B8" points="16.2318772 16.7542169 29.2335301 6.75903614 21.6828808 0.573493976"></polygon>
                            <polygon fill="#9B2754" points="16.2318772 16.7542169 33.3520661 16.9590361 29.2335301 6.75903614"></polygon>
                            <polygon fill="#9A214A" points="16.2318772 16.7542169 30.8486423 26.6674699 33.3520661 16.9590361"></polygon>
                            <polygon fill="#9B2754" points="16.2318772 16.7542169 22.4096812 33.4674699 30.8486423 26.6674699"></polygon>
                            <polygon fill="#AD3D74" points="16.2318772 16.7542169 12.3152302 33.7951807 22.4096812 33.4674699"></polygon>
                            <polygon fill="#BF569A" points="16.2318772 16.7542169 3.55324675 27.2409639 12.3152302 33.7951807"></polygon>
                            <polygon fill="#FB8AC4" points="16.2318772 16.7542169 0 17.4506024 3.55324675 27.2409639"></polygon>
                            <polygon fill="#FFDDE8" points="16.2318772 16.7542169 3.0283353 6.47228916 0 17.4506024"></polygon>
                        </g>
                        <g transform="translate(4.441558, 4.915663)">
                            <polygon fill="#F0F2F5" points="9.32727273 16.0168675 8.96387249 7.45542169 16.1914994 10.2819277"></polygon>
                            <polygon fill="#C2CAE8" points="9.32727273 16.0168675 15.9492326 18.3108434 16.1914994 10.2819277"></polygon>
                            <polygon fill="#F0F2F5" points="15.9492326 18.3108434 23.4191263 16.5903614 16.1914994 10.2819277"></polygon>
                            <polygon fill="#C2CAE8" points="15.9492326 18.3108434 18.8564345 22.2843373 23.4191263 16.5903614"></polygon>
                            <polygon fill="#F0F2F5" points="18.8564345 22.2843373 11.749941 24.4554217 15.9492326 18.3108434"></polygon>
                            <polygon fill="#E0E3EF" points="11.749941 24.4554217 9.32727273 16.0168675 15.9492326 18.3108434"></polygon>
                            <polygon fill="#F0F2F5" points="11.749941 24.4554217 4.36080283 21.7108434 9.32727273 16.0168675"></polygon>
                            <polygon fill="#E0E3EF" points="4.36080283 21.7108434 0.20188902 15.4433735 9.32727273 16.0168675"></polygon>
                            <polygon fill="#C2CAE8" points="8.96387249 7.45542169 0.20188902 15.4433735 9.32727273 16.0168675"></polygon>
                            <polygon fill="#C2CAE8" points="23.4191263 16.5903614 23.90366 9.01204819 16.1914994 10.2819277"></polygon>
                            <polygon fill="#E0E3EF" points="16.1914994 10.2819277 19.3813459 1.9253012 23.90366 9.01204819"></polygon>
                            <polygon fill="#909FD1" points="8.96387249 7.45542169 1.0094451 7.94698795 0.20188902 15.4433735"></polygon>
                            <polygon fill="#6989C5" points="8.96387249 7.45542169 5.0472255 2.08915663 1.0094451 7.94698795"></polygon>
                            <polygon fill="#909FD1" points="8.96387249 7.45542169 19.3813459 1.9253012 16.1914994 10.2819277"></polygon>
                            <polygon fill="#909FD1" points="8.96387249 7.45542169 12.2748524 0 5.0472255 2.08915663"></polygon>
                            <polygon fill="#6989C5" points="19.3813459 1.9253012 8.96387249 7.45542169 12.2748524 0"></polygon>
                        </g>
                        <g transform="translate(7.671783, 8.192771)">
                            <polygon fill="#CAFCD9" points="1.77662338 3.60481928 8.72160567 8.84819277 6.25855962 0.286746988"></polygon>
                            <polygon fill="#6AA9B5" points="8.72160567 8.84819277 11.4269185 0.409638554 6.25855962 0.286746988"></polygon>
                            <polygon fill="#0A4645" points="8.72160567 8.84819277 15.4243211 3.56385542 11.4269185 0.409638554"></polygon>
                            <polygon fill="#09403B" points="8.72160567 8.84819277 17.6047226 8.84819277 15.4243211 3.56385542"></polygon>
                            <polygon fill="#0A4645" points="8.72160567 8.84819277 16.3933884 13.9277108 17.6047226 8.84819277"></polygon>
                            <polygon fill="#09403B" points="8.72160567 8.84819277 12.0325856 17.4915663 16.3933884 13.9277108"></polygon>
                            <polygon fill="#0A4645" points="8.72160567 8.84819277 6.78347107 17.7373494 12.0325856 17.4915663"></polygon>
                            <polygon fill="#6AA9B5" points="8.72160567 8.84819277 2.18040142 14.3783133 6.78347107 17.7373494"></polygon>
                            <polygon fill="#1C5C65" points="8.72160567 8.84819277 0.282644628 9.33975904 2.18040142 14.3783133"></polygon>
                            <polygon fill="#6AA9B5" points="8.72160567 8.84819277 1.77662338 3.60481928 0.282644628 9.33975904"></polygon>
                        </g>
                    </g>
                    <g transform="translate(37.551358, 0.000000)" id="Path">
                        <g>
                            <polygon fill="#FFB5DB" points="3.10909091 6.47228916 16.272255 16.7542169 11.749941 0.204819277"></polygon>
                            <polygon fill="#FB8AC4" points="16.272255 16.7542169 21.7232586 0.573493976 11.749941 0.204819277"></polygon>
                            <polygon fill="#D474B8" points="16.272255 16.7542169 29.3142857 6.75903614 21.7232586 0.573493976"></polygon>
                            <polygon fill="#9B2754" points="16.272255 16.7542169 33.3924439 16.9590361 29.3142857 6.75903614"></polygon>
                            <polygon fill="#9A214A" points="16.272255 16.7542169 30.8890201 26.6674699 33.3924439 16.9590361"></polygon>
                            <polygon fill="#9B2754" points="16.272255 16.7542169 22.450059 33.4674699 30.8890201 26.6674699"></polygon>
                            <polygon fill="#AD3D74" points="16.272255 16.7542169 12.355608 33.7951807 22.450059 33.4674699"></polygon>
                            <polygon fill="#BF569A" points="16.272255 16.7542169 3.63400236 27.2409639 12.355608 33.7951807"></polygon>
                            <polygon fill="#FB8AC4" points="16.272255 16.7542169 0.080755608 17.4506024 3.63400236 27.2409639"></polygon>
                            <polygon fill="#FFDDE8" points="16.272255 16.7542169 3.10909091 6.47228916 0.080755608 17.4506024"></polygon>
                        </g>
                        <g transform="translate(4.441558, 4.915663)">
                            <polygon fill="#F0F2F5" points="9.36765053 16.0168675 9.0042503 7.45542169 16.2318772 10.2819277"></polygon>
                            <polygon fill="#C2CAE8" points="9.36765053 16.0168675 15.9896104 18.3108434 16.2318772 10.2819277"></polygon>
                            <polygon fill="#F0F2F5" points="15.9896104 18.3108434 23.4595041 16.5903614 16.2318772 10.2819277"></polygon>
                            <polygon fill="#C2CAE8" points="15.9896104 18.3108434 18.8968123 22.2843373 23.4595041 16.5903614"></polygon>
                            <polygon fill="#F0F2F5" points="18.8968123 22.2843373 11.7903188 24.4554217 15.9896104 18.3108434"></polygon>
                            <polygon fill="#E0E3EF" points="11.7903188 24.4554217 9.36765053 16.0168675 15.9896104 18.3108434"></polygon>
                            <polygon fill="#F0F2F5" points="11.7903188 24.4554217 4.40118064 21.7108434 9.36765053 16.0168675"></polygon>
                            <polygon fill="#E0E3EF" points="4.40118064 21.7108434 0.282644628 15.4433735 9.36765053 16.0168675"></polygon>
                            <polygon fill="#C2CAE8" points="9.0042503 7.45542169 0.282644628 15.4433735 9.36765053 16.0168675"></polygon>
                            <polygon fill="#C2CAE8" points="23.4595041 16.5903614 23.9844156 9.01204819 16.2318772 10.2819277"></polygon>
                            <polygon fill="#E0E3EF" points="16.2318772 10.2819277 19.4217237 1.9253012 23.9844156 9.01204819"></polygon>
                            <polygon fill="#909FD1" points="9.0042503 7.45542169 1.0498229 7.94698795 0.282644628 15.4433735"></polygon>
                            <polygon fill="#6989C5" points="9.0042503 7.45542169 5.08760331 2.08915663 1.0498229 7.94698795"></polygon>
                            <polygon fill="#909FD1" points="9.0042503 7.45542169 19.4217237 1.9253012 16.2318772 10.2819277"></polygon>
                            <polygon fill="#909FD1" points="9.0042503 7.45542169 12.3152302 0 5.08760331 2.08915663"></polygon>
                            <polygon fill="#6989C5" points="19.4217237 1.9253012 9.0042503 7.45542169 12.3152302 0"></polygon>
                        </g>
                        <g transform="translate(7.671783, 8.192771)">
                            <polygon fill="#CAFCD9" points="1.81700118 3.60481928 8.76198347 8.84819277 6.29893743 0.286746988"></polygon>
                            <polygon fill="#6AA9B5" points="8.76198347 8.84819277 11.4672963 0.409638554 6.29893743 0.286746988"></polygon>
                            <polygon fill="#0A4645" points="8.76198347 8.84819277 15.4646989 3.56385542 11.4672963 0.409638554"></polygon>
                            <polygon fill="#09403B" points="8.76198347 8.84819277 17.6451004 8.84819277 15.4646989 3.56385542"></polygon>
                            <polygon fill="#0A4645" points="8.76198347 8.84819277 16.4337662 13.9277108 17.6451004 8.84819277"></polygon>
                            <polygon fill="#09403B" points="8.76198347 8.84819277 12.0729634 17.4915663 16.4337662 13.9277108"></polygon>
                            <polygon fill="#0A4645" points="8.76198347 8.84819277 6.82384888 17.7373494 12.0729634 17.4915663"></polygon>
                            <polygon fill="#6AA9B5" points="8.76198347 8.84819277 2.26115702 14.3783133 6.82384888 17.7373494"></polygon>
                            <polygon fill="#1C5C65" points="8.76198347 8.84819277 0.323022432 9.33975904 2.26115702 14.3783133"></polygon>
                            <polygon fill="#6AA9B5" points="8.76198347 8.84819277 1.81700118 3.60481928 0.323022432 9.33975904"></polygon>
                        </g>
                    </g>
                </g>
            </g>
        </g>
    </g>
</svg>