
<svg width="400px" height="387px" viewBox="0 0 400 387" version="1.1" xmlns="http://www.w3.org/2000/svg" xmlns:xlink="http://www.w3.org/1999/xlink">
    <defs>
        <linearGradient x1="0%" y1="50%" x2="100%" y2="50%" id="linearGradient-1">
            <stop stop-color="#F0F2F5" offset="0%"></stop>
            <stop stop-color="#566CA8" offset="100%"></stop>
        </linearGradient>
    </defs>
    <g id="Page-1" stroke="none" stroke-width="1" fill="none" fill-rule="evenodd">
        <g id="Artboard" transform="translate(-397.000000, -295.000000)" fill-rule="nonzero">
            <g id="Group-2" transform="translate(397.000000, 294.259740)">
                <g id="zone_green-blue" transform="translate(0.000000, 174.740260)">
                    <polygon id="Path" fill="#6BA9B5" points="356.186441 10.4237288 207.79661 0.0847457627 114.745763 3.38983051 13.0508475 15.7627119 0.254237288 29.4067797 39.1525424 124.915254 117.288136 196.864407 214.40678 212.966102 228.050847 209.661017 314.830508 188.135593 383.474576 114.152542 399.237288 25.6779661"></polygon>
                    <g id="Group" transform="translate(0.000000, 25.423729)">
                        <polygon id="Path" fill="#4393A8" points="164.40678 28.8135593 235.508475 118.898305 300.423729 25.9322034"></polygon>
                        <polygon id="Path" fill="#2F768C" points="300.423729 25.9322034 332.20339 120.59322 235.508475 118.898305"></polygon>
                        <polygon id="Path" fill="#6BA9B5" points="164.40678 28.8135593 122.20339 130.932203 235.508475 118.898305"></polygon>
                        <polygon id="Path" fill="#9DD3CC" points="164.40678 28.8135593 44.9152542 20.0847458 122.20339 130.932203"></polygon>
                        <polygon id="Path" fill="#CDE5D1" points="44.9152542 20.0847458 0.254237288 3.98305085 39.1525424 99.4915254"></polygon>
                        <polygon id="Path" fill="#BDDFCD" points="122.20339 130.932203 39.1525424 99.4915254 44.9152542 20.0847458"></polygon>
                        <polygon id="Path" fill="#2F768C" points="235.508475 118.898305 228.050847 184.237288 122.20339 130.932203"></polygon>
                        <polygon id="Path" fill="#1C5D66" points="332.20339 120.59322 228.050847 184.237288 235.508475 118.898305"></polygon>
                        <polygon id="Path" fill="#1C5D66" points="300.423729 25.9322034 388.050847 13.8983051 332.20339 120.59322"></polygon>
                        <polygon id="Path" fill="#0B4645" points="388.050847 13.8983051 383.474576 88.7288136 332.20339 120.59322"></polygon>
                        <polygon id="Path" fill="#9DD3CC" points="39.1525424 99.4915254 117.288136 171.440678 122.20339 130.932203"></polygon>
                        <polygon id="Path" fill="#6BA9B5" points="228.050847 184.237288 117.288136 171.440678 122.20339 130.932203"></polygon>
                        <polygon id="Path" fill="#0B403B" points="383.474576 88.7288136 399.237288 0.254237288 388.050847 13.8983051"></polygon>
                        <polygon id="Path" fill="#0B403B" points="228.050847 184.237288 214.40678 187.542373 117.288136 171.440678"></polygon>
                        <polygon id="Path" fill="#0B403B" points="332.20339 120.59322 314.830508 162.711864 383.474576 88.7288136"></polygon>
                        <polygon id="Path" fill="#0B4645" points="228.050847 184.237288 314.830508 162.711864 332.20339 120.59322"></polygon>
                    </g>
                    <polygon id="Path" fill="url(#linearGradient-1)" points="399.237288 25.6779661 388.050847 39.3220339 300.423729 51.3559322 164.40678 54.2372881 44.9152542 45.5084746 0.254237288 29.4067797 13.0508475 15.7627119 114.745763 3.38983051 207.79661 0.0847457627 356.186441 10.4237288"></polygon>
                </g>
                <g id="object_rock_medium" transform="translate(5.000000, 139.740260) ">
                    <polygon id="Path" fill="#909FD1" points="35.024024 1 0 20.7185185 19.3123123 67 92.2517518 63.6864198 109 12.9506173"></polygon>
                    <g id="Group">
                        <polygon id="Path" fill="#566CA8" points="92.1595 63.3504065 41.9105 53.7089431 58.6965 24.8934959"></polygon>
                        <polygon id="Path" fill="#909FD1" points="41.9105 53.7089431 28.994 33.0642276 58.6965 24.8934959"></polygon>
                        <polygon id="Path" fill="#909FD1" points="92.1595 63.3504065 108.891 12.4739837 58.6965 24.8934959"></polygon>
                        <polygon id="Path" fill="#313C62" points="92.1595 63.3504065 19.293 66.6731707 41.9105 53.7089431"></polygon>
                        <polygon id="Path" fill="#909FD1" points="19.293 66.6731707 0 20.2634146 41.9105 53.7089431"></polygon>
                        <polygon id="Path" fill="#C3CBE9" points="28.994 33.0642276 0 20.2634146 41.9105 53.7089431"></polygon>
                        <polygon id="Path" fill="#6A8AC6" points="108.891 12.4739837 28.994 33.0642276 34.989 0.490243902"></polygon>
                        <polygon id="Path" fill="#909FD1" points="34.989 0.490243902 0 20.2634146 28.994 33.0642276"></polygon>
                    </g>
                </g>
              
               
                <g id="object_dude-green" transform="translate(125.000000, 0.000000)">
                    <g id="Group" transform="translate(0.000000, 50.740260)" fill="#BF569A">
                        <polygon id="Path" points="12.8993506 26.2513595 30.3181818 16.3540785 15.4886364 3.72326284 9.88636364 0.0471299094 6.21428571 13.9033233 6.4025974 29.6918429"></polygon>
                        <polygon id="Path" points="138.832792 29.6918429 139.021104 13.9033233 135.349026 0.0471299094 129.746753 3.72326284 114.917208 16.3540785 132.336039 26.2513595"></polygon>
                        <polygon id="Path" points="127.11039 131.963746 109.785714 130.879758 102.535714 131.256798 92.413961 132.340785 83.375 144.641692 92.0373377 155.85861 103.241883 155.85861 119.907468 155.85861 138.738636 155.85861 144.858766 144.311782"></polygon>
                        <polygon id="Path" points="42.3230519 131.256798 35.0730519 130.879758 17.7012987 131.963746 0 144.311782 6.12012987 155.85861 24.9512987 155.85861 41.5698052 155.85861 52.7743506 155.85861 61.4837662 144.641692 52.4448052 132.340785"></polygon>
                    </g>
                    <polygon id="Path" fill="#4393A9" points="132.974306 107.684295 123.634464 67.0598474 116.969853 38.8772259 72.1949298 1.74025974 28.0301473 38.8772259 21.3655361 67.0598474 11.9787598 107.684295 4 160.185031 33.286742 188.980319 62.3857485 193.74026 83.3182597 193.457491 111.713258 188.980319 141 160.185031"></polygon>
                    <g id="Group" transform="translate(6.000000, 50.740260)">
                        <g id="Path">
                            <polygon fill="#AD3D74" points="24.1561837 16.5238095 9.35229682 3.76190476 5.26360424 15.1428571"></polygon>
                            <polygon fill="#9A214A" points="5.26360424 15.1428571 6.76749117 26.5238095 24.1561837 16.5238095"></polygon>
                            <polygon fill="#BF569A" points="9.35229682 3.76190476 3.75971731 0.0476190476 5.26360424 15.1428571"></polygon>
                            <polygon fill="#FFCEE2" points="3.75971731 0.0476190476 0.0939929329 14.047619 5.26360424 15.1428571"></polygon>
                            <polygon fill="#AD3D74" points="5.26360424 15.1428571 0.281978799 30 6.76749117 26.5238095"></polygon>
                            <polygon fill="#BF569A" points="0.0939929329 14.047619 0.281978799 30 5.26360424 15.1428571"></polygon>
                        </g>
                        <g transform="translate(108.561837, 0.000000)" id="Path">
                            <polygon fill="#9B2754" points="0.0469964664 16.5238095 14.8508834 3.76190476 18.939576 15.1428571"></polygon>
                            <polygon fill="#9A214A" points="18.939576 15.1428571 17.435689 26.5238095 0.0469964664 16.5238095"></polygon>
                            <polygon fill="#BF569A" points="14.8508834 3.76190476 20.4434629 0.0476190476 18.939576 15.1428571"></polygon>
                            <polygon fill="#AD3D74" points="20.4434629 0.0476190476 24.1091873 14.047619 18.939576 15.1428571"></polygon>
                            <polygon fill="#AD3D74" points="18.939576 15.1428571 23.9212014 30 17.435689 26.5238095"></polygon>
                            <polygon fill="#9B2754" points="24.1091873 14.047619 23.9212014 30 18.939576 15.1428571"></polygon>
                        </g>
                    </g>
                    <g id="Group" transform="translate(0.000000, 181.740260)">
                        <g transform="translate(83.327922, 0.000000)" id="Path">
                            <polygon fill="#9A214A" points="9.08603896 1.75925926 0.0470779221 13.8425926 13.0876623 13.5185185 19.2077922 0.694444444"></polygon>
                            <polygon fill="#9B2754" points="19.2077922 0.694444444 26.4577922 0.324074074 41.2873377 13.8425926 13.0876623 13.5185185"></polygon>
                            <polygon fill="#AD3D74" points="26.4577922 0.324074074 43.7824675 1.38888889 61.5308442 13.5185185 41.2873377 13.8425926"></polygon>
                            <polygon fill="#9B2754" points="61.5308442 13.5185185 55.4107143 24.8611111 36.5795455 24.8611111 41.2873377 13.8425926"></polygon>
                            <polygon fill="#BF569A" points="36.5795455 24.8611111 19.913961 24.8611111 13.0876623 13.5185185 41.2873377 13.8425926"></polygon>
                            <polygon fill="#AD3D74" points="19.913961 24.8611111 8.70941558 24.8611111 0.0470779221 13.8425926 13.0876623 13.5185185"></polygon>
                        </g>
                        <g id="Path">
                            <polygon fill="#9B2754" points="52.4448052 1.75925926 61.4837662 13.8425926 48.4431818 13.5185185 42.3230519 0.694444444"></polygon>
                            <polygon fill="#BF569A" points="42.3230519 0.694444444 35.0730519 0.324074074 20.2435065 13.8425926 48.4431818 13.5185185"></polygon>
                            <polygon fill="#FFCEE2" points="35.0730519 0.324074074 17.7012987 1.38888889 0 13.5185185 20.2435065 13.8425926"></polygon>
                            <polygon fill="#BF569A" points="0 13.5185185 6.12012987 24.8611111 24.9512987 24.8611111 20.2435065 13.8425926"></polygon>
                            <polygon fill="#AD3D74" points="24.9512987 24.8611111 41.5698052 24.8611111 48.4431818 13.5185185 20.2435065 13.8425926"></polygon>
                            <polygon fill="#9A214A" points="41.5698052 24.8611111 52.7743506 24.8611111 61.4837662 13.8425926 48.4431818 13.5185185"></polygon>
                        </g>
                    </g>
                    <g id="Group" transform="translate(4.000000, 0.740260)">
                        <polygon id="Path" fill="#6AA9B5" points="0.0469178082 158.977262 29.3236301 187.809291 27.3061644 167.423961"></polygon>
                        <polygon id="Path" fill="#4393A9" points="27.3061644 167.423961 58.4126712 192.575306 29.3236301 187.809291"></polygon>
                        <polygon id="Path" fill="#2E758B" points="27.3061644 167.423961 53.814726 170.113692 58.4126712 192.575306"></polygon>
                        <polygon id="Path" fill="#1C5C65" points="82.5753425 169.924939 79.3380137 192.292176 58.4126712 192.575306"></polygon>
                        <polygon id="Path" fill="#4393A9" points="58.4126712 192.575306 82.5753425 169.924939 53.814726 170.113692"></polygon>
                        <polygon id="Path" fill="#6AA9B5" points="82.5753425 169.924939 68.5 115.044988 53.814726 170.113692"></polygon>
                        <polygon id="Path" fill="#4393A9" points="68.5 115.044988 27.3061644 167.423961 53.814726 170.113692"></polygon>
                        <polygon id="Path" fill="#6AA9B5" points="27.3061644 167.423961 37.2527397 111.222738 68.5 115.044988"></polygon>
                        <polygon id="Path" fill="#9CD4CC" points="37.2527397 111.222738 0.0469178082 158.977262 27.3061644 167.423961"></polygon>
                        <polygon id="Path" fill="#CAFCD9" points="37.2527397 111.222738 8.02294521 106.409535 0.0469178082 158.977262"></polygon>
                        <polygon id="Path" fill="#9CD4CC" points="37.2527397 111.222738 45.4164384 71.49022 8.02294521 106.409535"></polygon>
                        <polygon id="Path" fill="#CAFCD9" points="45.4164384 71.49022 17.4065068 65.7332518 8.02294521 106.409535"></polygon>
                        <polygon id="Path" fill="#BAEDD3" points="17.4065068 65.7332518 24.0688356 37.5146699 51.7503425 41.3841076"></polygon>
                        <polygon id="Path" fill="#9CD4CC" points="45.4164384 71.49022 51.7503425 41.3841076 17.4065068 65.7332518"></polygon>
                        <polygon id="Path" fill="#4393A9" points="68.5 115.044988 45.4164384 71.49022 37.2527397 111.222738"></polygon>
                        <polygon id="Path" fill="#6AA9B5" points="68.5 115.044988 90.5513699 71.8677262 45.4164384 71.49022"></polygon>
                        <polygon id="Path" fill="#2E758B" points="90.5513699 71.8677262 84.3582192 41.6672372 45.4164384 71.49022"></polygon>
                        <polygon id="Path" fill="#4393A9" points="84.3582192 41.6672372 51.7503425 41.3841076 45.4164384 71.49022"></polygon>
                        <polygon id="Path" fill="#6AA9B5" points="84.3582192 41.6672372 68.2184932 0.330317848 51.7503425 41.3841076"></polygon>
                        <polygon id="Path" fill="#CAFCD9" points="24.0688356 37.5146699 68.2184932 0.330317848 51.7503425 41.3841076"></polygon>
                        <polygon id="Path" fill="#09403B" points="137 158.977262 107.723288 187.809291 109.740753 167.423961"></polygon>
                        <polygon id="Path" fill="#0A4645" points="109.740753 167.423961 79.3380137 192.292176 107.723288 187.809291"></polygon>
                        <polygon id="Path" fill="#2E758B" points="109.740753 167.423961 82.5753425 169.924939 79.3380137 192.292176"></polygon>
                        <polygon id="Path" fill="#4393A9" points="68.5 115.044988 109.740753 167.423961 82.5753425 169.924939"></polygon>
                        <polygon id="Path" fill="#6AA9B5" points="109.740753 167.423961 99.7941781 111.222738 68.5 115.044988"></polygon>
                        <polygon id="Path" fill="#1C5C65" points="99.7941781 111.222738 137 158.977262 109.740753 167.423961"></polygon>
                        <polygon id="Path" fill="#09403B" points="99.7941781 111.222738 128.977055 106.409535 137 158.977262"></polygon>
                        <polygon id="Path" fill="#1C5C65" points="99.7941781 111.222738 90.5513699 71.8677262 128.977055 106.409535"></polygon>
                        <polygon id="Path" fill="#0A4645" points="90.5513699 71.8677262 119.640411 65.7332518 128.977055 106.409535"></polygon>
                        <polygon id="Path" fill="#0A4645" points="119.640411 65.7332518 112.978082 37.5146699 84.3582192 41.6672372"></polygon>
                        <polygon id="Path" fill="#1C5C65" points="90.5513699 71.8677262 84.3582192 41.6672372 119.640411 65.7332518"></polygon>
                        <polygon id="Path" fill="#4393A9" points="68.5 115.044988 90.5513699 71.8677262 99.7941781 111.222738"></polygon>
                        <polygon id="Path" fill="#2E758B" points="112.978082 37.5146699 68.2184932 0.330317848 84.3582192 41.6672372"></polygon>
                    </g>
                    <g id="Group" transform="translate(31.000000, 51.740260)">
                        <g id="Path">
                            <g>
                                <polygon fill="#FFE584" points="3.65762712 7.42409639 18.9915254 19.2180723 13.6926554 0.234939759"></polygon>
                                <polygon fill="#FFCC7D" points="18.9915254 19.2180723 25.2751412 0.657831325 13.6926554 0.234939759"></polygon>
                                <polygon fill="#E48B5A" points="18.9915254 19.2180723 34.0909605 7.75301205 25.2751412 0.657831325"></polygon>
                                <polygon fill="#AB3E00" points="18.9915254 19.2180723 38.8740113 19.453012 34.0909605 7.75301205"></polygon>
                                <polygon fill="#AA3800" points="18.9915254 19.2180723 35.9666667 30.5891566 38.8740113 19.453012"></polygon>
                                <polygon fill="#AB3E00" points="18.9915254 19.2180723 26.1661017 38.3891566 35.9666667 30.5891566"></polygon>
                                <polygon fill="#BD5416" points="18.9915254 19.2180723 14.3960452 38.7650602 26.1661017 38.3891566"></polygon>
                                <polygon fill="#CF6D3C" points="18.9915254 19.2180723 4.26723164 31.246988 14.3960452 38.7650602"></polygon>
                                <polygon fill="#FFCC7D" points="18.9915254 19.2180723 0.140677966 20.0168675 4.26723164 31.246988"></polygon>
                                <polygon fill="#FFF48A" points="18.9915254 19.2180723 3.65762712 7.42409639 0.140677966 20.0168675"></polygon>
                            </g>
                            <g transform="translate(5.158192, 5.638554)">
                                <polygon fill="#F0F2F5" points="10.9728814 18.3722892 10.5508475 8.55180723 18.9446328 11.7939759"></polygon>
                                <polygon fill="#C2CAE8" points="10.9728814 18.3722892 18.6632768 21.0036145 18.9446328 11.7939759"></polygon>
                                <polygon fill="#F0F2F5" points="18.6632768 21.0036145 27.3384181 19.0301205 18.9446328 11.7939759"></polygon>
                                <polygon fill="#C2CAE8" points="18.6632768 21.0036145 22.039548 25.5614458 27.3384181 19.0301205"></polygon>
                                <polygon fill="#F0F2F5" points="22.039548 25.5614458 13.7864407 28.0518072 18.6632768 21.0036145"></polygon>
                                <polygon fill="#E0E3EF" points="13.7864407 28.0518072 10.9728814 18.3722892 18.6632768 21.0036145"></polygon>
                                <polygon fill="#F0F2F5" points="13.7864407 28.0518072 5.20508475 24.9036145 10.9728814 18.3722892"></polygon>
                                <polygon fill="#E0E3EF" points="5.20508475 24.9036145 0.375141243 17.7144578 10.9728814 18.3722892"></polygon>
                                <polygon fill="#C2CAE8" points="10.5508475 8.55180723 0.375141243 17.7144578 10.9728814 18.3722892"></polygon>
                                <polygon fill="#C2CAE8" points="27.3384181 19.0301205 27.9011299 10.3373494 18.9446328 11.7939759"></polygon>
                                <polygon fill="#E0E3EF" points="18.9446328 11.7939759 22.6491525 2.20843373 27.9011299 10.3373494"></polygon>
                                <polygon fill="#909FD1" points="10.5508475 8.55180723 1.31299435 9.11566265 0.375141243 17.7144578"></polygon>
                                <polygon fill="#6989C5" points="10.5508475 8.55180723 6.00225989 2.39638554 1.31299435 9.11566265"></polygon>
                                <polygon fill="#909FD1" points="10.5508475 8.55180723 22.6491525 2.20843373 18.9446328 11.7939759"></polygon>
                                <polygon fill="#909FD1" points="10.5508475 8.55180723 14.3960452 0 6.00225989 2.39638554"></polygon>
                                <polygon fill="#6989C5" points="22.6491525 2.20843373 10.5508475 8.55180723 14.3960452 0"></polygon>
                            </g>
                            <g transform="translate(9.378531, 9.397590)">
                                <polygon fill="#E0E3EF" points="1.73502825 4.13493976 9.75367232 10.1493976 6.89322034 0.328915663"></polygon>
                                <polygon fill="#6989C5" points="9.75367232 10.1493976 12.9423729 0.469879518 6.89322034 0.328915663"></polygon>
                                <polygon fill="#303C61" points="9.75367232 10.1493976 17.5847458 4.08795181 12.9423729 0.469879518"></polygon>
                                <polygon fill="#2F3657" points="9.75367232 10.1493976 20.1169492 10.1493976 17.5847458 4.08795181"></polygon>
                                <polygon fill="#303C61" points="9.75367232 10.1493976 18.6632768 15.9759036 20.1169492 10.1493976"></polygon>
                                <polygon fill="#2F3657" points="9.75367232 10.1493976 13.6457627 20.0638554 18.6632768 15.9759036"></polygon>
                                <polygon fill="#303C61" points="9.75367232 10.1493976 7.54971751 20.3457831 13.6457627 20.0638554"></polygon>
                                <polygon fill="#6989C5" points="9.75367232 10.1493976 2.2039548 16.4927711 7.54971751 20.3457831"></polygon>
                                <polygon fill="#546BA7" points="9.75367232 10.1493976 0 10.713253 2.2039548 16.4927711"></polygon>
                                <polygon fill="#6989C5" points="9.75367232 10.1493976 1.73502825 4.13493976 0 10.713253"></polygon>
                            </g>
                        </g>
                        <g transform="translate(43.610169, 0.000000)" id="Path">
                            <g>
                                <polygon fill="#FFE584" points="3.70451977 7.42409639 19.0384181 19.2180723 13.7864407 0.234939759"></polygon>
                                <polygon fill="#FFCC7D" points="19.0384181 19.2180723 25.3689266 0.657831325 13.7864407 0.234939759"></polygon>
                                <polygon fill="#E48B5A" points="19.0384181 19.2180723 34.1378531 7.75301205 25.3689266 0.657831325"></polygon>
                                <polygon fill="#AB3E00" points="19.0384181 19.2180723 38.920904 19.453012 34.1378531 7.75301205"></polygon>
                                <polygon fill="#AA3800" points="19.0384181 19.2180723 36.0135593 30.5891566 38.920904 19.453012"></polygon>
                                <polygon fill="#AB3E00" points="19.0384181 19.2180723 26.2129944 38.3891566 36.0135593 30.5891566"></polygon>
                                <polygon fill="#BD5416" points="19.0384181 19.2180723 14.4898305 38.7650602 26.2129944 38.3891566"></polygon>
                                <polygon fill="#CF6D3C" points="19.0384181 19.2180723 4.31412429 31.246988 14.4898305 38.7650602"></polygon>
                                <polygon fill="#FFCC7D" points="19.0384181 19.2180723 0.187570621 20.0168675 4.31412429 31.246988"></polygon>
                                <polygon fill="#FFF48A" points="19.0384181 19.2180723 3.70451977 7.42409639 0.187570621 20.0168675"></polygon>
                            </g>
                            <g transform="translate(5.158192, 5.638554)">
                                <polygon fill="#F0F2F5" points="11.019774 18.3722892 10.5977401 8.55180723 18.9915254 11.7939759"></polygon>
                                <polygon fill="#C2CAE8" points="11.019774 18.3722892 18.7101695 21.0036145 18.9915254 11.7939759"></polygon>
                                <polygon fill="#F0F2F5" points="18.7101695 21.0036145 27.3853107 19.0301205 18.9915254 11.7939759"></polygon>
                                <polygon fill="#C2CAE8" points="18.7101695 21.0036145 22.0864407 25.5614458 27.3853107 19.0301205"></polygon>
                                <polygon fill="#F0F2F5" points="22.0864407 25.5614458 13.8333333 28.0518072 18.7101695 21.0036145"></polygon>
                                <polygon fill="#E0E3EF" points="13.8333333 28.0518072 11.019774 18.3722892 18.7101695 21.0036145"></polygon>
                                <polygon fill="#F0F2F5" points="13.8333333 28.0518072 5.2519774 24.9036145 11.019774 18.3722892"></polygon>
                                <polygon fill="#E0E3EF" points="5.2519774 24.9036145 0.422033898 17.7144578 11.019774 18.3722892"></polygon>
                                <polygon fill="#C2CAE8" points="10.5977401 8.55180723 0.422033898 17.7144578 11.019774 18.3722892"></polygon>
                                <polygon fill="#C2CAE8" points="27.3853107 19.0301205 27.9480226 10.3373494 18.9915254 11.7939759"></polygon>
                                <polygon fill="#E0E3EF" points="18.9915254 11.7939759 22.6960452 2.20843373 27.9480226 10.3373494"></polygon>
                                <polygon fill="#909FD1" points="10.5977401 8.55180723 1.35988701 9.11566265 0.422033898 17.7144578"></polygon>
                                <polygon fill="#6989C5" points="10.5977401 8.55180723 6.04915254 2.39638554 1.35988701 9.11566265"></polygon>
                                <polygon fill="#909FD1" points="10.5977401 8.55180723 22.6960452 2.20843373 18.9915254 11.7939759"></polygon>
                                <polygon fill="#909FD1" points="10.5977401 8.55180723 14.4429379 0 6.04915254 2.39638554"></polygon>
                                <polygon fill="#6989C5" points="22.6960452 2.20843373 10.5977401 8.55180723 14.4429379 0"></polygon>
                            </g>
                            <g transform="translate(9.378531, 9.397590)">
                                <polygon fill="#E0E3EF" points="1.7819209 4.13493976 9.84745763 10.1493976 6.98700565 0.328915663"></polygon>
                                <polygon fill="#6989C5" points="9.84745763 10.1493976 12.9892655 0.469879518 6.98700565 0.328915663"></polygon>
                                <polygon fill="#303C61" points="9.84745763 10.1493976 17.6316384 4.08795181 12.9892655 0.469879518"></polygon>
                                <polygon fill="#2F3657" points="9.84745763 10.1493976 20.1638418 10.1493976 17.6316384 4.08795181"></polygon>
                                <polygon fill="#303C61" points="9.84745763 10.1493976 18.7570621 15.9759036 20.1638418 10.1493976"></polygon>
                                <polygon fill="#2F3657" points="9.84745763 10.1493976 13.6926554 20.0638554 18.7570621 15.9759036"></polygon>
                                <polygon fill="#303C61" points="9.84745763 10.1493976 7.59661017 20.3457831 13.6926554 20.0638554"></polygon>
                                <polygon fill="#6989C5" points="9.84745763 10.1493976 2.25084746 16.4927711 7.59661017 20.3457831"></polygon>
                                <polygon fill="#546BA7" points="9.84745763 10.1493976 0.0468926554 10.713253 2.25084746 16.4927711"></polygon>
                                <polygon fill="#6989C5" points="9.84745763 10.1493976 1.7819209 4.13493976 0.0468926554 10.713253"></polygon>
                            </g>
                        </g>
                    </g>
                </g>
                <g id="object_rock_small" transform="translate(297.000000, 147.740260)">
                    <polygon id="Path" fill="#6989C5" points="64.7134921 26.3641304 43.284127 0 28.9801587 26.3641304 0 45.6445652 20.3126984 46.7630435 49.6650794 49 67 46.0173913"></polygon>
                    <polygon id="Path" fill="#C2CAE8" points="44 0 30 27 44 24.7090909"></polygon>
                    <polygon id="Path" fill="#6989C5" points="44 0 66 27 44 24.7090909"></polygon>
                    <polygon id="Path" fill="#C2CAE8" points="44 24 21 47 29.6782407 26.2729412"></polygon>
                    <polygon id="Path" fill="#909FD1" points="20.3266055 48 0 46.848564 29 27"></polygon>
                    <polygon id="Path" fill="#6989C5" points="20 47.751606 50 50 43.4782609 25"></polygon>
                    <polygon id="Path" fill="#546BA7" points="50.5508685 50 66 27.248394 44 25"></polygon>
                    <polygon id="Path" fill="#303C61" points="64.7576687 27 67 46.9694118 50 50"></polygon>
                </g>               
            </g>
        </g>
    </g>
</svg>