
<svg width="239px" height="261px" viewBox="0 0 239 261" version="1.1" xmlns="http://www.w3.org/2000/svg" xmlns:xlink="http://www.w3.org/1999/xlink">
    <defs>
        <linearGradient x1="0%" y1="50%" x2="100%" y2="50%" id="linearGradient-1">
            <stop stop-color="#F0F2F5" offset="0%"></stop>
            <stop stop-color="#566CA8" offset="100%"></stop>
        </linearGradient>
    </defs>
    <g id="Pages" stroke="none" stroke-width="1" fill="none" fill-rule="evenodd">
        <g id="Desktop" transform="translate(-446.000000, -372.000000)" fill-rule="nonzero">
            <g id="zone_green-blue" transform="translate(446.000000, 505.000000)">
                <polygon id="Path" fill="#6BA9B5" points="212.821398 6.24761905 124.158475 0.0507936508 68.5605932 2.03174603 7.79788136 9.44761905 0.15190678 17.6253968 23.3936441 74.8698413 70.079661 117.993651 128.108051 127.644444 136.260381 125.663492 188.111229 112.761905 229.126059 68.4190476 238.54428 15.3904762"></polygon>
                <g id="Group" transform="translate(0.000000, 15.238095)">
                    <polygon id="Path" fill="#4393A8" points="98.2330508 17.2698413 140.716314 71.2634921 179.503178 15.5428571"></polygon>
                    <polygon id="Path" fill="#2F768C" points="179.503178 15.5428571 198.491525 72.2793651 140.716314 71.2634921"></polygon>
                    <polygon id="Path" fill="#6BA9B5" points="98.2330508 17.2698413 73.0165254 78.4761905 140.716314 71.2634921"></polygon>
                    <polygon id="Path" fill="#9DD3CC" points="98.2330508 17.2698413 26.8368644 12.0380952 73.0165254 78.4761905"></polygon>
                    <polygon id="Path" fill="#CDE5D1" points="26.8368644 12.0380952 0.15190678 2.38730159 23.3936441 59.631746"></polygon>
                    <polygon id="Path" fill="#BDDFCD" points="73.0165254 78.4761905 23.3936441 59.631746 26.8368644 12.0380952"></polygon>
                    <polygon id="Path" fill="#2F768C" points="140.716314 71.2634921 136.260381 110.425397 73.0165254 78.4761905"></polygon>
                    <polygon id="Path" fill="#1C5D66" points="198.491525 72.2793651 136.260381 110.425397 140.716314 71.2634921"></polygon>
                    <polygon id="Path" fill="#1C5D66" points="179.503178 15.5428571 231.860381 8.33015873 198.491525 72.2793651"></polygon>
                    <polygon id="Path" fill="#0B4645" points="231.860381 8.33015873 229.126059 53.1809524 198.491525 72.2793651"></polygon>
                    <polygon id="Path" fill="#9DD3CC" points="23.3936441 59.631746 70.079661 102.755556 73.0165254 78.4761905"></polygon>
                    <polygon id="Path" fill="#6BA9B5" points="136.260381 110.425397 70.079661 102.755556 73.0165254 78.4761905"></polygon>
                    <polygon id="Path" fill="#0B403B" points="229.126059 53.1809524 238.54428 0.152380952 231.860381 8.33015873"></polygon>
                    <polygon id="Path" fill="#0B403B" points="136.260381 110.425397 128.108051 112.406349 70.079661 102.755556"></polygon>
                    <polygon id="Path" fill="#0B403B" points="198.491525 72.2793651 188.111229 97.5238095 229.126059 53.1809524"></polygon>
                    <polygon id="Path" fill="#0B4645" points="136.260381 110.425397 188.111229 97.5238095 198.491525 72.2793651"></polygon>
                </g>
                <polygon id="Path" fill="url(#linearGradient-1)" points="238.54428 15.3904762 231.860381 23.568254 179.503178 30.7809524 98.2330508 32.5079365 26.8368644 27.2761905 0.15190678 17.6253968 7.79788136 9.44761905 68.5605932 2.03174603 124.158475 0.0507936508 212.821398 6.24761905"></polygon>
            </g>
            <g id="object_tree" transform="translate(499.000000, 449.000000) scale(1, 1) translate(-499.000000, -449.000000) translate(471.000000, 372.000000)">
                <polygon id="Path" fill="#FFE685" points="24.2630662 136 28 154 13 146.736377"></polygon>
                <g id="Group">
                    <polygon id="Path" fill="#CF6D3C" points="34.2309859 129.139249 38.7793427 82.0457338 35.2826291 75.9750853 29.4460094 104.120819 18.6666667 73.4784983 15.485446 80.5215017 24.2929577 117.838908 12.2779343 146.641638 27.3690141 153.842321 36.9915493 148.691468 40.0676056 141.832423"></polygon>
                    <polygon id="Path" fill="#FDCC7E" points="12.2779343 146.641638 24.2929577 117.838908 23.6093897 135.998294"></polygon>
                    <polygon id="Path" fill="#FDCC7E" points="24.2929577 117.838908 15.485446 80.5215017 29.4460094 104.120819"></polygon>
                    <polygon id="Path" fill="#FDF28D" points="23.6093897 135.998294 29.4460094 104.120819 24.2929577 117.838908"></polygon>
                    <polygon id="Path" fill="#E58B5A" points="29.4460094 104.120819 18.6666667 73.4784983 15.485446 80.5215017"></polygon>
                    <polygon id="Path" fill="#E58B5A" points="27.3690141 153.842321 29.4460094 104.120819 23.6093897 135.998294"></polygon>
                    <polygon id="Path" fill="#BE5617" points="27.3690141 153.842321 36.9915493 148.691468 34.2309859 129.139249"></polygon>
                    <polygon id="Path" fill="#AC4017" points="36.9915493 148.691468 40.0676056 141.832423 34.2309859 129.139249"></polygon>
                    <polygon id="Path" fill="#BE5617" points="34.2309859 129.139249 35.2826291 75.9750853 29.4460094 104.120819"></polygon>
                    <polygon id="Path" fill="#AC4017" points="34.2309859 129.139249 38.7793427 82.0457338 35.2826291 75.9750853"></polygon>
                    <polygon id="Path" fill="#CF6D3C" points="29.4460094 104.120819 34.2309859 129.139249 27.3690141 153.842321"></polygon>
                    <polygon id="Path" fill="#2F768C" points="53.1079812 51.98157 48.6122066 41.2068259 40.3568075 15.4262799 27.4478873 0.183959044 4.81126761 39.840273 0.184037559 59.8392491 4.18028169 82.1771331 24.3192488 91.9795222 40.3830986 89.8508532 52.6084507 76.6583618 55.7633803 62.624941"></polygon>
                    <g id="Path">
                        <path d="M35.0460094,29.8539249 C34.3624413,30.6948805 12.7774648,65.5682594 12.7774648,65.5682594 L34.5464789,80.7317406 L35.0460094,29.8539249 Z" fill="#2F768C"></path>
                        <polygon fill="#1C5D66" points="12.7511737 65.5945392 24.3192488 91.9795222 34.5201878 80.7580205"></polygon>
                        <polygon fill="#1C5D66" points="35.0460094 29.8539249 49.8215962 60.837884 34.5201878 80.7580205"></polygon>
                        <polygon fill="#0B4645" points="49.8215962 60.837884 48.6122066 41.2068259 35.0460094 29.8539249"></polygon>
                        <polygon fill="#2F768C" points="48.6122066 41.2068259 40.3568075 15.4262799 35.0460094 29.8539249"></polygon>
                        <polygon fill="#1C5D66" points="49.8215962 60.837884 53.1079812 51.98157 48.6122066 41.2068259"></polygon>
                        <polygon fill="#0B4645" points="24.3192488 91.9795222 40.3830986 89.8508532 34.5201878 80.7580205"></polygon>
                        <polygon fill="#0B403B" points="40.3830986 89.8508532 49.8215962 60.837884 34.5201878 80.7580205"></polygon>
                        <polygon fill="#6BA9B5" points="24.3192488 91.9795222 4.18028169 82.1771331 12.7511737 65.5945392"></polygon>
                        <polygon fill="#BDDFCD" points="4.18028169 82.1771331 0.184037559 59.8392491 12.7511737 65.5945392"></polygon>
                        <polygon fill="#6BA9B5" points="0.184037559 59.8392491 13.4610329 41.8638225 12.7511737 65.5945392"></polygon>
                        <polygon fill="#4393A8" points="13.4610329 41.8638225 35.0460094 29.8539249 12.7511737 65.5945392"></polygon>
                        <polygon fill="#0B4645" points="49.8215962 60.837884 52.6084507 76.6583618 40.3830986 89.8508532"></polygon>
                        <polygon fill="#4393A8" points="40.3568075 15.4262799 27.4478873 0.183959044 35.0460094 29.8539249"></polygon>
                        <polygon fill="#6BA9B5" points="13.4610329 41.8638225 27.4478873 0.183959044 35.0460094 29.8539249"></polygon>
                        <polygon fill="#CDE5D1" points="0.184037559 59.8392491 4.81126761 39.840273 13.4610329 41.8638225"></polygon>
                        <polygon fill="#BDDFCD" points="4.81126761 39.840273 27.4478873 0.183959044 13.4610329 41.8638225"></polygon>
                        <polygon fill="#0B403B" points="53.1079812 51.98157 55.7633803 62.6249147 49.8215962 60.837884"></polygon>
                        <polygon fill="#1C5D66" points="55.7633803 62.6249147 52.6084507 76.6583618 49.8215962 60.837884"></polygon>
                    </g>
                </g>
            </g>
            <g id="object_kid-orange" transform="translate(538.000000, 432.000000)">
                <g id="Group" fill="#566CA8">
                    <polygon id="Path" points="60.4861111 78 51.9017361 77.4609375 48.3423611 77.6484375 43.340625 78.1875 38.8739583 84.3046875 43.1545139 89.8828125 48.6913194 89.8828125 54.6003472 89.8828125 59.2298611 89.8828125 66.9069444 84.1171875"></polygon>
                    <polygon id="Path" points="18.5645833 77.6484375 15.0052083 77.4609375 6.42083333 78 0 84.1171875 7.67708333 89.8828125 12.3298611 89.8828125 18.215625 89.8828125 23.7524306 89.8828125 28.0329861 84.3046875 23.5663194 78.1875"></polygon>
                    <polygon id="Path" points="42.5729167 6.1640625 37.6177083 11.90625 36.7336806 7.6640625 33.6861111 2.6015625 29.0798611 0.1171875 31.7086806 6.84375 31.3364583 10.8515625 25.5670139 7.21875 27.9631944 16.1953125 34.1048611 19.5234375 40.409375 16.5703125"></polygon>
                </g>
                <polyline id="Path" fill="#FDCC7E" points="34.1303837 10 19.6229444 22.815534 10.082224 37.6116505 5 51.3825243 5.32341425 74.4271845 13.7090838 78.2252427 25.0516836 81.7203883 41.4072044 82 55.1061081 78.761165 64 73.2621359 61.9671104 52.3145631 57.3238058 38.0776699 49.2615505 23.4213592 34.1303837 10"></polyline>
                <g id="Group" transform="translate(0.000000, 77.000000)">
                    <g transform="translate(38.937674, 0.000000)" id="Path">
                        <polygon fill="#303657" points="4.49998264 0.866666667 0.0233159722 7.15 6.45852431 6.95740741 9.51291667 0.312962963"></polygon>
                        <polygon fill="#313C62" points="9.51291667 0.312962963 13.0802604 0.12037037 18.0931944 7.15 6.45852431 6.95740741"></polygon>
                        <polygon fill="#435382" points="13.0802604 0.12037037 21.6838542 0.674074074 28.1190625 6.95740741 18.0931944 7.15"></polygon>
                        <polygon fill="#313C62" points="28.1190625 6.95740741 20.4247917 12.8796296 15.7849132 12.8796296 18.0931944 7.15"></polygon>
                        <polygon fill="#566CA8" points="15.7849132 12.8796296 9.86265625 12.8796296 6.45852431 6.95740741 18.0931944 7.15"></polygon>
                        <polygon fill="#435382" points="9.86265625 12.8796296 4.31345486 12.8796296 0.0233159722 7.15 6.45852431 6.95740741"></polygon>
                    </g>
                    <g id="Path">
                        <polygon fill="#313C62" points="23.6190799 0.866666667 28.0957465 7.15 21.6605382 6.95740741 18.6061458 0.312962963"></polygon>
                        <polygon fill="#566CA8" points="18.6061458 0.312962963 15.0388021 0.12037037 10.0258681 7.15 21.6605382 6.95740741"></polygon>
                        <polygon fill="#E0E3EE" points="15.0388021 0.12037037 6.43520833 0.674074074 0 6.95740741 10.0258681 7.15"></polygon>
                        <polygon fill="#566CA8" points="0 6.95740741 7.69427083 12.8796296 12.3574653 12.8796296 10.0258681 7.15"></polygon>
                        <polygon fill="#435382" points="12.3574653 12.8796296 18.2564063 12.8796296 21.6605382 6.95740741 10.0258681 7.15"></polygon>
                        <polygon fill="#303657" points="18.2564063 12.8796296 23.8056076 12.8796296 28.0957465 7.15 21.6605382 6.95740741"></polygon>
                    </g>
                </g>
                <g id="Group" transform="translate(5.000000, 10.000000)">
                    <path d="M29.1097276,0 L14.692607,12.815534 C14.692607,12.815534 21.5108949,17.2893204 21.7175097,16.6834951 C21.9011673,16.0776699 29.1097276,0 29.1097276,0 Z" id="Path" fill="#FDF28D"></path>
                    <polygon id="Path" fill="#E58B5A" points="21.6945525 16.6834951 37.3284047 17.0796117 29.1097276 0"></polygon>
                    <polygon id="Path" fill="#CF6D3C" points="29.1097276 0 39.9225681 15.2621359 37.3284047 17.0796117"></polygon>
                    <polygon id="Path" fill="#AC4017" points="43.5498054 32.3417476 52.1587549 28.0776699 44.1466926 13.4213592"></polygon>
                    <polygon id="Path" fill="#BE5617" points="52.1587549 28.0776699 56.7731518 42.3145631 43.5498054 32.3417476"></polygon>
                    <polygon id="Path" fill="#BE5617" points="56.7731518 42.3145631 58.7933852 63.2621359 49.5645914 47.3941748"></polygon>
                    <polygon id="Path" fill="#AC4017" points="49.5645914 47.3941748 49.9548638 68.761165 58.7933852 63.2621359"></polygon>
                    <polygon id="Path" fill="#BE5617" points="49.5645914 47.3941748 36.3412451 72 49.9548638 68.761165"></polygon>
                    <polygon id="Path" fill="#CF6D3C" points="36.3412451 72 36.7315175 51.0524272 49.5645914 47.3941748"></polygon>
                    <polygon id="Path" fill="#BE5617" points="36.7315175 51.0524272 43.5498054 32.3417476 49.5645914 47.3941748"></polygon>
                    <polygon id="Path" fill="#E58B5A" points="43.5498054 32.3417476 34.3210117 35.7902913 36.7315175 51.0524272"></polygon>
                    <polygon id="Path" fill="#CF6D3C" points="34.3210117 35.7902913 37.3284047 17.0796117 43.5498054 32.3417476"></polygon>
                    <polygon id="Path" fill="#BE5617" points="39.9225681 15.2621359 44.1466926 13.4213592 43.5498054 32.3417476"></polygon>
                    <polygon id="Path" fill="#F59F68" points="34.3210117 35.7902913 29.729572 22.7883495 37.3284047 17.0796117"></polygon>
                    <polygon id="Path" fill="#E58B5A" points="29.729572 22.7883495 21.6945525 16.6834951 37.3284047 17.0796117"></polygon>
                    <polygon id="Path" fill="#AC4017" points="49.5645914 47.3941748 56.7731518 42.3145631 43.5498054 32.3417476"></polygon>
                    <polygon id="Path" fill="#E58B5A" points="36.3412451 72 20.0875486 71.7203883 36.7315175 51.0524272"></polygon>
                    <polygon id="Path" fill="#F59F68" points="20.0875486 71.7203883 22.1996109 51.4951456 36.7315175 51.0524272"></polygon>
                    <polygon id="Path" fill="#F59F68" points="22.1996109 51.4951456 23.3474708 36.0699029 34.3210117 35.7902913"></polygon>
                    <polygon id="Path" fill="#FDCC7E" points="36.7315175 51.0524272 34.3210117 35.7902913 22.1996109 51.4951456"></polygon>
                    <polygon id="Path" fill="#E58B5A" points="23.3474708 36.0699029 29.729572 22.7883495 34.3210117 35.7902913"></polygon>
                    <polygon id="Path" fill="#F59F68" points="21.6945525 16.6834951 23.3474708 36.0699029 29.729572 22.7883495"></polygon>
                    <polygon id="Path" fill="#FDCC7E" points="21.6945525 16.6834951 14.5319066 31.2699029 23.3474708 36.0699029"></polygon>
                    <polygon id="Path" fill="#FFE685" points="14.5319066 31.2699029 22.1996109 51.4951456 23.3474708 36.0699029"></polygon>
                    <polygon id="Path" fill="#FDCC7E" points="14.5319066 31.2699029 10.4455253 46.0194175 22.1996109 51.4951456"></polygon>
                    <polygon id="Path" fill="#FFE685" points="22.1996109 51.4951456 8.8155642 68.2252427 10.4455253 46.0194175"></polygon>
                    <polygon id="Path" fill="#FDCC7E" points="8.8155642 68.2252427 20.0875486 71.7203883 22.1996109 51.4951456"></polygon>
                    <polygon id="Path" fill="#FDCC7E" points="10.4455253 46.0194175 0.160700389 41.3825243 8.8155642 68.2252427"></polygon>
                    <polygon id="Path" fill="#FFE685" points="0.160700389 41.3825243 0.482101167 64.4271845 8.8155642 68.2252427"></polygon>
                    <polygon id="Path" fill="#FDF28D" points="10.4455253 46.0194175 0.160700389 41.3825243 5.21128405 27.6116505"></polygon>
                    <polygon id="Path" fill="#FFE685" points="5.21128405 27.6116505 14.5319066 31.2699029 10.4455253 46.0194175"></polygon>
                    <polygon id="Path" fill="#FDF28D" points="5.21128405 27.6116505 14.692607 12.815534 14.5319066 31.2699029"></polygon>
                    <polygon id="Path" fill="#FFE685" points="21.6945525 16.6834951 14.692607 12.815534 14.5319066 31.2699029"></polygon>
                </g>
                <polygon id="Path" fill="#AC4017" points="44.7862595 25 49 23.1908397 34 10"></polygon>
                <polygon id="Path" fill="#CF6D3C" points="44.501845 25 48 42 42 26.8090041"></polygon>
                <g id="Group" transform="translate(20.000000, 23.000000)">
                    <g id="Path">
                        <polygon fill="#BDDFCD" points="2.78306452 5.39918699 14.1725806 14.2406504 10.2669355 0.0235772358"></polygon>
                        <polygon fill="#9DD3CC" points="14.1725806 14.2406504 18.8733871 0.330081301 10.2669355 0.0235772358"></polygon>
                        <polygon fill="#6BA9B5" points="14.1725806 14.2406504 25.4451613 5.63495935 18.8733871 0.330081301"></polygon>
                        <polygon fill="#1C5D66" points="14.1725806 14.2406504 29 14.3821138 25.4451613 5.63495935"></polygon>
                        <polygon fill="#0B4645" points="14.1725806 14.2406504 26.825 22.7520325 29 14.3821138"></polygon>
                        <polygon fill="#1C5D66" points="14.1725806 14.2406504 19.5282258 28.599187 26.825 22.7520325"></polygon>
                        <polygon fill="#4393A8" points="14.1725806 14.2406504 10.7814516 28.8585366 19.5282258 28.599187"></polygon>
                        <polygon fill="#6BA9B5" points="14.1725806 14.2406504 3.25080645 23.2471545 10.7814516 28.8585366"></polygon>
                        <polygon fill="#9DD3CC" points="14.1725806 14.2406504 0.163709677 14.8300813 3.25080645 23.2471545"></polygon>
                        <polygon fill="#CDE5D1" points="14.1725806 14.2406504 2.78306452 5.39918699 0.163709677 14.8300813"></polygon>
                    </g>
                    <g transform="translate(3.975806, 4.008130)" id="Path">
                        <polygon fill="#F0F2F5" points="8.09193548 13.8162602 7.76451613 6.4601626 14.008871 8.88861789"></polygon>
                        <polygon fill="#C3CBE9" points="8.09193548 13.8162602 13.8217742 15.7731707 14.008871 8.88861789"></polygon>
                        <polygon fill="#F0F2F5" points="13.8217742 15.7731707 20.2532258 14.3113821 14.008871 8.88861789"></polygon>
                        <polygon fill="#C3CBE9" points="13.8217742 15.7731707 16.3241935 19.2154472 20.2532258 14.3113821"></polygon>
                        <polygon fill="#F0F2F5" points="16.3241935 19.2154472 10.1733871 21.0544715 13.8217742 15.7731707"></polygon>
                        <polygon fill="#E0E3EE" points="10.1733871 21.0544715 8.09193548 13.8162602 13.8217742 15.7731707"></polygon>
                        <polygon fill="#F0F2F5" points="10.1733871 21.0544715 3.78870968 18.7203252 8.09193548 13.8162602"></polygon>
                        <polygon fill="#E0E3EE" points="3.78870968 18.7203252 0.210483871 13.297561 8.09193548 13.8162602"></polygon>
                        <polygon fill="#C3CBE9" points="7.76451613 6.4601626 0.210483871 13.297561 8.09193548 13.8162602"></polygon>
                        <polygon fill="#C3CBE9" points="20.2532258 14.3113821 20.6975806 7.80406504 14.008871 8.88861789"></polygon>
                        <polygon fill="#E0E3EE" points="14.008871 8.88861789 16.7685484 1.69756098 20.6975806 7.80406504"></polygon>
                        <polygon fill="#909FD1" points="7.76451613 6.4601626 0.888709677 6.88455285 0.210483871 13.297561"></polygon>
                        <polygon fill="#6A8AC6" points="7.76451613 6.4601626 4.39677419 1.86260163 0.888709677 6.88455285"></polygon>
                        <polygon fill="#909FD1" points="7.76451613 6.4601626 16.7685484 1.69756098 14.008871 8.88861789"></polygon>
                        <polygon fill="#909FD1" points="7.76451613 6.4601626 10.6177419 0.0471544715 4.39677419 1.86260163"></polygon>
                        <polygon fill="#6A8AC6" points="16.7685484 1.69756098 7.76451613 6.4601626 10.6177419 0.0471544715"></polygon>
                    </g>
                    <g transform="translate(7.016129, 7.073171)" id="Path">
                        <polygon fill="#FBDCE8" points="1.30967742 2.9 7.29677419 7.40325203 5.16854839 0.0471544715"></polygon>
                        <polygon fill="#F08DB9" points="7.29677419 7.40325203 9.65887097 0.141463415 5.16854839 0.0471544715"></polygon>
                        <polygon fill="#AF3D75" points="7.29677419 7.40325203 13.0967742 2.87642276 9.65887097 0.141463415"></polygon>
                        <polygon fill="#9B214B" points="7.29677419 7.40325203 14.991129 7.40325203 13.0967742 2.87642276"></polygon>
                        <polygon fill="#AF3D75" points="7.29677419 7.40325203 13.9387097 11.7650407 14.991129 7.40325203"></polygon>
                        <polygon fill="#9B214B" points="7.29677419 7.40325203 10.1733871 14.8300813 13.9387097 11.7650407"></polygon>
                        <polygon fill="#AF3D75" points="7.29677419 7.40325203 5.63629032 15.0422764 10.1733871 14.8300813"></polygon>
                        <polygon fill="#F08DB9" points="7.29677419 7.40325203 1.66048387 12.1658537 5.63629032 15.0422764"></polygon>
                        <polygon fill="#BF569B" points="7.29677419 7.40325203 0.0233870968 7.80406504 1.66048387 12.1658537"></polygon>
                        <polygon fill="#F08DB9" points="7.29677419 7.40325203 1.30967742 2.9 0.0233870968 7.80406504"></polygon>
                    </g>
                </g>
                <g id="Group" transform="translate(25.000000, 0.000000)">
                    <polygon id="Path" fill="#909FD1" points="6.168 11.0238095 2.688 16.452381 9.024 19.8333333"></polygon>
                    <polygon id="Path" fill="#E0E3EE" points="2.688 16.452381 0.216 7.33333333 6.168 11.0238095"></polygon>
                    <polygon id="Path" fill="#6A8AC6" points="9.024 19.8333333 12.648 12.0952381 6.168 11.0238095"></polygon>
                    <polygon id="Path" fill="#909FD1" points="6.168 11.0238095 11.736 7.78571429 12.648 12.0952381"></polygon>
                    <polygon id="Path" fill="#E0E3EE" points="6.168 11.0238095 6.552 6.95238095 11.736 7.78571429"></polygon>
                    <polygon id="Path" fill="#303657" points="9.024 19.8333333 15.528 16.8333333 12.648 12.0952381"></polygon>
                    <polygon id="Path" fill="#313C62" points="15.528 16.8333333 17.76 6.26190476 12.648 12.0952381"></polygon>
                    <polygon id="Path" fill="#909FD1" points="8.592 2.64285714 11.736 7.78571429 6.552 6.95238095"></polygon>
                    <polygon id="Path" fill="#E0E3EE" points="8.592 2.64285714 3.84 0.119047619 6.552 6.95238095"></polygon>
                </g>
            </g>
        </g>
    </g>
</svg>