
<svg width="503px" height="424px" viewBox="0 0 503 424" version="1.1" xmlns="http://www.w3.org/2000/svg" xmlns:xlink="http://www.w3.org/1999/xlink">
    <g id="Elements" stroke="none" stroke-width="1" fill="none" fill-rule="evenodd">
        <g id="Artboard" transform="translate(-4880.000000, -734.000000)" fill-rule="nonzero">
            <g id="object_computer" transform="translate(4880.000000, 734.000000)">
                <path d="M449.2609,350.7759 L452.2407,311.0208 L427.0016,278.7148 L422.8798,231.7416 L444.4459,131.0997 L430.4271,40.3556 L341.6474,3.8596 L222.6438,0.7189 L138.9258,36.2088 L121.6729,131.0998 L136.7692,230.304 L134.6997,281.4857 L71.2626,312.7446 L79.4656,350.776 L0.3705,419.599 L158.5607,419.599 L374.2746,422.6806 L532.4647,423.7078 L449.2609,350.7759 Z M168.7167,289.7601 L197.2174,261.2594 L267.0901,264.0176 L353.5116,259.4207 L388.3894,289.2421 L267.4908,313.04 L168.7167,289.7601 Z" id="Shape" fill="#BE5617"></path>
                <polygon id="Path" fill="#CDE5D1" points="212.9655 237.4886 154.156 197.3285 225.9051 151.2241"></polygon>
                <polygon id="Path" fill="#BDDFCD" points="212.9655 237.4886 266.8808 237.4886 225.9051 151.2241"></polygon>
                <polygon id="Path" fill="#CDE5D1" points="266.8808 237.4886 297.0733 162.0072 225.9051 151.2241"></polygon>
                <polygon id="Path" fill="#BDDFCD" points="266.8808 237.4886 340.2056 237.4886 297.0733 162.0072"></polygon>
                <polygon id="Path" fill="#9DD3CC" points="340.2056 237.4886 383.3378 151.2241 297.0733 162.0072"></polygon>
                <polygon id="Path" fill="#1C5D66" points="340.2056 237.4886 404.1146 201.0316 383.3378 151.2241"></polygon>
                <polygon id="Path" fill="#BDDFCD" points="154.156 197.3285 155.3904 88.7045 225.9051 151.2241"></polygon>
                <polygon id="Path" fill="#2F768C" points="404.1146 201.0316 406.5833 90.556 383.3378 151.2241"></polygon>
                <polygon id="Path" fill="#6BA9B5" points="406.5833 90.556 351.6108 42.8932 383.3378 151.2241"></polygon>
                <polygon id="Path" fill="#CDE5D1" points="155.3904 88.7045 211.5106 39.8073 225.9051 151.2241"></polygon>
                <polygon id="Path" fill="#9DD3CC" points="225.9051 151.2241 286.1895 94.1193 297.0733 162.0072"></polygon>
                <polygon id="Path" fill="#CDE5D1" points="286.1895 94.1193 383.3378 151.2241 297.0733 162.0072"></polygon>
                <polygon id="Path" fill="#CDE5D1" points="286.1895 94.1193 211.5106 39.8073 351.6108 42.8932"></polygon>
                <polygon id="Path" fill="#BDDFCD" points="211.5106 39.8073 225.9051 151.2241 286.1895 94.1193"></polygon>
                <polygon id="Path" fill="#9DD3CC" points="286.1895 94.1193 383.3378 151.2241 351.6108 42.8932"></polygon>
                <polygon id="Path" fill="#FDCC7E" points="154.156 197.3285 136.7692 230.304 212.9655 237.4886"></polygon>
                <polygon id="Path" fill="#FFE685" points="136.7692 230.304 121.6729 131.0998 154.156 197.3285"></polygon>
                <polygon id="Path" fill="#FDCC7E" points="154.156 197.3285 155.3904 88.7045 121.6729 131.0998"></polygon>
                <polygon id="Path" fill="#FFE685" points="121.6729 131.0998 138.9258 36.2088 155.3904 88.7045"></polygon>
                <polygon id="Path" fill="#FDF28D" points="138.9258 36.2088 211.5106 39.8073 155.3904 88.7045"></polygon>
                <polygon id="Path" fill="#FFE685" points="138.9258 36.2088 222.6438 0.7189 211.5106 39.8073"></polygon>
                <polygon id="Path" fill="#FDF28D" points="222.6438 0.7189 341.6474 3.8596 211.5106 39.8073"></polygon>
                <polygon id="Path" fill="#FFE685" points="211.5106 39.8073 351.6108 42.8932 341.6474 3.8596"></polygon>
                <polygon id="Path" fill="#FDCC7E" points="351.6108 42.8932 430.4271 40.3557 406.5833 90.556"></polygon>
                <polygon id="Path" fill="#FDCC7E" points="351.6108 42.8932 341.6474 3.8596 430.4271 40.3557"></polygon>
                <polygon id="Path" fill="#E58B5A" points="406.5833 90.556 444.4459 131.0998 404.1146 201.0316"></polygon>
                <polygon id="Path" fill="#F59F68" points="430.4271 40.3557 444.4459 131.0998 406.5833 90.556"></polygon>
                <polygon id="Path" fill="#AC4017" points="340.2056 237.4886 422.8798 231.7417 404.1146 201.0316"></polygon>
                <polygon id="Path" fill="#BE5617" points="444.4459 131.0998 422.8798 231.7417 404.1146 201.0316"></polygon>
                <polygon id="Path" fill="#E58B5A" points="136.7692 230.304 197.2174 261.2594 212.9655 237.4886"></polygon>
                <polygon id="Path" fill="#F59F68" points="212.9655 237.4886 267.0901 264.0175 267.0901 237.4886"></polygon>
                <polygon id="Path" fill="#BE5617" points="267.0901 264.0175 340.2056 237.4886 267.0901 237.4886"></polygon>
                <polygon id="Path" fill="#BE5617" points="340.2056 237.4886 353.5116 259.4206 422.8798 231.7417"></polygon>
                <polygon id="Path" fill="#AA3A17" points="79.4657 350.776 156.439 351.4034 71.2627 312.7445"></polygon>
                <polygon id="Path" fill="#E58B5A" points="168.7167 289.7601 71.2627 312.7445 134.6997 281.4857"></polygon>
                <polygon id="Path" fill="#AC4017" points="136.7692 230.304 168.7167 289.7601 197.2174 261.2594"></polygon>
                <polygon id="Path" fill="#BE5617" points="168.7167 289.7601 134.6997 281.4857 136.7692 230.304"></polygon>
                <polygon id="Path" fill="#E58B5A" points="197.2174 261.2594 267.0901 264.0175 212.9655 237.4886"></polygon>
                <polygon id="Path" fill="#AC4017" points="353.5116 259.4206 340.2056 237.4886 267.0901 264.0175"></polygon>
                <polygon id="Path" fill="#BE5617" points="71.2627 312.7445 156.439 351.4034 267.4908 313.04"></polygon>
                <polygon id="Path" fill="#AA3A17" points="156.439 351.4034 374.5044 349.3843 267.4908 313.04"></polygon>
                <polygon id="Path" fill="#BE5617" points="267.4908 313.04 452.2407 311.0209 374.5044 349.3843"></polygon>
                <polygon id="Path" fill="#AA3A17" points="374.5044 349.3843 449.2609 350.776 452.2407 311.0209"></polygon>
                <polygon id="Path" fill="#AC4017" points="168.7167 289.7601 267.4908 313.04 71.2627 312.7445"></polygon>
                <polygon id="Path" fill="#CF6D3C" points="267.4908 313.04 388.3895 289.242 452.2407 311.0209"></polygon>
                <polygon id="Path" fill="#BE5617" points="388.3895 289.242 427.0016 278.7149 452.2407 311.0209"></polygon>
                <polygon id="Path" fill="#AA3A17" points="422.8798 231.7417 388.3895 289.242 427.0016 278.7149"></polygon>
                <polygon id="Path" fill="#CF6D3C" points="353.5116 259.4206 422.8798 231.7417 388.3895 289.242"></polygon>
                <polygon id="Path" fill="#FDCC7E" points="79.4657 350.776 0.3706 419.5989 156.439 351.4034"></polygon>
                <polygon id="Path" fill="#E58B5A" points="0.3706 419.5989 158.5608 419.5989 156.439 351.4034"></polygon>
                <polygon id="Path" fill="#FDCC7E" points="158.5608 419.5989 374.2747 422.6806 156.439 351.4034"></polygon>
                <polygon id="Path" fill="#E58B5A" points="156.439 351.4034 374.2747 422.6806 374.5044 349.3843"></polygon>
                <polygon id="Path" fill="#CF6D3C" points="374.2747 422.6806 449.2609 350.776 374.5044 349.3843"></polygon>
                <polygon id="Path" fill="#E58B5A" points="374.2747 422.6806 532.4648 423.7078 449.2609 350.776"></polygon>
                <g id="Group" transform="translate(165.000000, 80.000000)">
                    <g id="Path">
                        <polygon fill="#E0E3EE" points="10.9424 21.6264 40.4985 32.1338 40.8627 0.2782"></polygon>
                        <polygon fill="#C3CBE9" points="58.209 28.0468 75.3676 1.4662 40.8627 0.2782"></polygon>
                        <polygon fill="#566CA8" points="75.3745 30.499 101.6152 22.5357 75.3676 1.4662"></polygon>
                        <polygon fill="#313C62" points="82.1862 83.358 77.9703 113.7021 107.1871 90.5429"></polygon>
                        <polygon fill="#435382" points="60.9337 88.5349 42.9614 114.7942 77.9703 113.7021"></polygon>
                        <polygon fill="#435382" points="40.4985 83.0855 12.7574 92.4823 42.9614 114.7942"></polygon>
                        <polygon fill="#C3CBE9" points="29.8722 66.7374 0.4647 59.0448 12.7574 92.4823"></polygon>
                        <polygon fill="#E0E3EE" points="29.0548 48.4819 10.9424 21.6264 0.4647 59.0448"></polygon>
                    </g>
                    <polygon id="Path" fill="#C3CBE9" points="82.1862 83.358 77.9703 113.7021 60.9337 88.5349"></polygon>
                    <polygon id="Path" fill="#C3CBE9" points="40.4985 83.0855 60.9337 88.5349 42.9614 114.7942"></polygon>
                    <polygon id="Path" fill="#6A8AC6" points="29.8722 66.7374 12.7574 92.4823 40.4985 83.0855"></polygon>
                    <polygon id="Path" fill="#6A8AC6" points="29.0548 48.4819 0.4647 59.0448 29.8722 66.7374"></polygon>
                    <polygon id="Path" fill="#6A8AC6" points="40.4985 32.1338 10.9424 21.6264 29.0548 48.4819"></polygon>
                    <polygon id="Path" fill="#6A8AC6" points="58.209 28.0468 40.8627 0.2782 40.4985 32.1338"></polygon>
                    <polygon id="Path" fill="#6A8AC6" points="75.3745 30.499 75.3676 1.4662 58.209 28.0468"></polygon>
                    <polygon id="Path" fill="#6A8AC6" points="120.8538 31.9772 120.8538 49.1581 137.5624 32.0588"></polygon>
                    <polygon id="Path" fill="#435382" points="120.8538 49.1581 137.5624 49.61 137.5624 32.0588"></polygon>
                    <polygon id="Path" fill="#6A8AC6" points="120.8538 65.1627 120.8538 82.3435 137.5624 65.2442"></polygon>
                    <polygon id="Path" fill="#303657" points="120.8538 82.3435 137.5624 82.7954 137.5624 65.2442"></polygon>
                    <polygon id="Path" fill="#6A8AC6" points="198.1139 111.3969 166.5218 6.9675 140.6339 6.9675"></polygon>
                    <polygon id="Path" fill="#303657" points="224.8795 111.3969 198.1139 111.3969 166.5218 6.9675"></polygon>
                </g>
            </g>
        </g>
    </g>
</svg>