
<svg width="40px" height="40px" viewBox="0 0 40 40" version="1.1" xmlns="http://www.w3.org/2000/svg" xmlns:xlink="http://www.w3.org/1999/xlink">
    <g id="Pages" stroke="none" stroke-width="1" fill="none" fill-rule="evenodd">
        <g id="Desktop-HD" transform="translate(-1381.000000, -18.000000)" fill="#000000" fill-rule="nonzero">
            <g id="burger" transform="translate(1381.000000, 18.000000)">
                <path d="M23.6096328,4.51423596 C25.9728973,4.9015384 28.1649678,5.78144657 29.9488713,7.05847365 C31.6740235,8.29355779 32.9423772,9.84098253 33.6170334,11.5338688 C33.7328494,11.8250893 33.9996197,12 34.2804454,12 C34.3737728,12 34.4685058,11.9806646 34.5598655,11.9399116 C34.9261476,11.7763046 35.0976228,11.3298062 34.9432951,10.9422064 C34.1601317,8.97684011 32.7118697,7.19768826 30.7553666,5.79691486 C28.7966147,4.39465415 26.4018662,3.43056265 23.8297394,3.00905153 C23.4375954,2.9447986 23.0693456,3.22947484 23.0086265,3.64533406 C22.9476263,4.06059838 23.2166456,4.44968558 23.6096328,4.51423596 L23.6096328,4.51423596 Z" id="Path"></path>
                <path d="M7.07195497,11.3808671 C7.23089246,11.7618293 7.63549612,12.0185476 8.04834086,11.9989507 C8.45608403,11.979354 8.83046999,11.6912807 8.95448041,11.3028717 C9.08006059,10.9097596 8.93956772,10.4508021 8.60991975,10.2003548 C8.2688911,9.94167676 7.76774772,9.93227029 7.41769298,10.1791902 C7.04526928,10.4417876 6.89967474,10.9611032 7.07195497,11.3808671 Z" id="Path"></path>
                <path d="M11.072743,8.38048373 C11.2331038,8.76548014 11.6443959,9.02475537 12.0619614,8.99812286 C12.4646279,8.97188199 12.8308308,8.68519099 12.9543361,8.3017612 C13.0801938,7.91167332 12.9390449,7.45735409 12.6151867,7.20591185 C12.2729006,6.94076178 11.7635883,6.92979545 11.4122844,7.1839792 C11.0468657,7.44834601 10.8986593,7.96337171 11.072743,8.38048373 Z" id="Path"></path>
                <path d="M15.0718522,11.3808671 C15.2307113,11.7618293 15.6355077,12.0185476 16.048149,11.9989507 C16.4556911,11.979354 16.830677,11.6912807 16.9546262,11.3028717 C17.0801444,10.9093677 16.9389364,10.4504102 16.6090587,10.2003548 C16.2681982,9.94167676 15.7676941,9.93227029 15.4174197,10.1791902 C15.0455719,10.4417876 14.8996569,10.9611032 15.0718522,11.3808671 Z" id="Path"></path>
                <path d="M40,25.025176 C40,23.2865283 38.8946533,21.804807 37.3574829,21.257335 L37.3574829,19.2815008 C37.6046753,19.1892788 37.8427124,19.0677554 38.0664062,18.9160054 C38.9559937,18.3117814 39.4662476,17.3581007 39.4662476,16.2986267 C39.4662476,15.6361085 39.2636109,15.0090603 38.8870239,14.4816365 C39.0774536,14.0254613 39.1348266,13.5190112 39.0423584,13.0199634 C38.3734131,9.40387238 36.0760498,6.09374877 32.5735473,3.69875161 C29.085083,1.31362436 24.6197509,0 20,0 C15.3802491,0 10.914917,1.31362436 7.42645266,3.69875161 C3.92395016,6.09344036 1.62658688,9.40387238 0.957641563,13.0199634 C0.841674844,13.6457779 0.960998516,14.2830045 1.28387453,14.8181391 C1.04064937,15.2690709 0.914001484,15.7712029 0.914001484,16.2986267 C0.914001484,17.3581007 1.42425539,18.3123983 2.31414797,18.9163138 C2.42034914,18.9884877 2.53051758,19.0529505 2.64251711,19.1118616 L2.64251711,21.257335 C1.10534672,21.804807 0,23.2865283 0,25.025176 L0,25.1855621 C0,26.3372582 0.485534688,27.376067 1.25976562,28.105824 C1.03393555,28.5450353 0.914001484,29.0335963 0.914001484,29.5366536 C0.914001484,30.3271724 1.19842531,31.0584715 1.71203609,31.6300015 L1.71203609,34.4793233 C1.71203609,37.5232675 4.1622925,40 7.17437742,40 L32.8256226,40 C35.8377075,40 38.2879639,37.5232675 38.2879639,34.4793233 L38.2879639,31.9880944 C39.0396118,31.3826366 39.4662476,30.5039056 39.4662476,29.5363451 C39.4662476,28.9296537 39.2971802,28.3553478 38.9813233,27.8587677 C39.6139527,27.1506011 40,26.2129589 40,25.1855621 L40,25.025176 Z M38.4375,25.025176 L38.4375,25.1855621 C38.4375,26.0007557 38.0352783,26.7224934 37.4212647,27.1601625 C37.0211792,27.4451564 36.5374756,27.6006076 36.0479736,27.6006076 L23.9334106,27.6006076 L28.9154053,22.6101305 L36.0476684,22.6101305 C37.3654175,22.6101305 38.4375,23.6936624 38.4375,25.025176 Z M11.8411255,22.6101305 L11.9650269,22.7356635 L12.7664184,23.5453052 L11.0888672,25.2410804 L8.48571781,22.6101305 L11.8411255,22.6101305 Z M19.2175293,27.8319338 L14.4244384,22.9879633 C14.4244384,22.9876548 14.4241333,22.9873464 14.4238281,22.987038 L14.0509033,22.6101305 L26.6925048,22.6101305 L21.4712524,27.8288494 C21.4709473,27.8291579 21.4706421,27.8294663 21.4703369,27.8300832 C21.4697266,27.8307001 21.468811,27.8313169 21.4682007,27.8319338 L20.3427124,28.9694418 L19.2175293,27.8319338 Z M2.49328609,13.3098923 C3.08502195,10.112039 5.14801023,7.16309267 8.30200195,5.00651569 C11.534729,2.79627098 15.6890869,1.57918681 20,1.57918681 C24.3109131,1.57918681 28.465271,2.79627098 31.697998,5.00651569 C34.8519898,7.16309267 36.9146728,10.112039 37.5067139,13.3098923 C37.616272,13.9030126 37.147522,14.4696076 36.5518188,14.4696076 L3.44818117,14.4696076 C2.8515625,14.4696076 2.38372805,13.9030126 2.49328609,13.3098923 Z M2.53417969,15.8769961 C2.82440187,15.9905002 3.13720703,16.0487944 3.44818117,16.0487944 L36.5518188,16.0487944 C36.9830322,16.0487944 37.416687,15.9359072 37.7926636,15.7221619 C37.8662109,15.9047553 37.9037476,16.1012284 37.9037476,16.2983182 C37.9037476,16.8229661 37.6455688,17.2991896 37.1951294,17.6048486 C36.7346191,17.9176016 36.1480712,17.9925513 35.6213379,17.8241458 C35.361023,17.7408684 35.1153564,17.6335331 34.8468017,17.5755473 C34.5562744,17.5126266 34.2590332,17.4848674 33.9620972,17.4848674 C32.5665283,17.4848674 31.817627,18.0190767 31.2161255,18.4481097 C30.6881714,18.8250171 30.2713012,19.1226569 29.371643,19.1226569 C28.4719848,19.1226569 28.0551148,18.8250171 27.5271606,18.4484181 C26.9256592,18.0187683 26.177063,17.4848674 24.781189,17.4848674 C23.3856202,17.4848674 22.6370239,18.0190767 22.0355225,18.4484181 C21.5075684,18.8250171 21.0906983,19.1226569 20.19104,19.1226569 C19.2913819,19.1226569 18.8742066,18.8250171 18.3462524,18.4481097 C17.7447509,18.0187683 16.9961548,17.4848674 15.6005859,17.4848674 C14.2050171,17.4848674 13.4561157,18.0190767 12.8546142,18.4481097 C12.3266602,18.8250171 11.9094848,19.1226569 11.0101319,19.1226569 C10.1101684,19.1226569 9.69329836,18.8250171 9.16503906,18.4481097 C8.56353758,18.0187683 7.81494141,17.4848674 6.41906734,17.4848674 C5.86700437,17.4848674 5.36926266,17.5795569 4.89715578,17.7741794 C4.33959961,18.0042718 3.68713375,17.9459776 3.18542484,17.605157 C2.73498531,17.299498 2.47680664,16.8232745 2.47680664,16.2986267 C2.47650148,16.1533538 2.49603273,16.0120906 2.53417969,15.8769961 Z M4.36035156,19.4884606 C4.77020266,19.4684124 5.15472414,19.3638529 5.53619383,19.2170379 C5.91674805,19.0702229 6.33178711,19.04123 6.7349243,19.0776253 C7.42462156,19.1396208 7.80181883,19.4088845 8.263855,19.738293 C8.86535641,20.1676344 9.61395266,20.7018437 11.0098266,20.7018437 C12.4053955,20.7018437 13.1539917,20.1676344 13.7554931,19.738293 C14.2834473,19.361694 14.7006226,19.0640542 15.6002808,19.0640542 C16.499939,19.0640542 16.9168091,19.361694 17.4447632,19.738293 C18.0462647,20.1676344 18.795166,20.7018437 20.1907348,20.7018437 C21.5863038,20.7018437 22.3348999,20.1676344 22.9364014,19.738293 C23.4643555,19.361694 23.8815308,19.0640542 24.7808838,19.0640542 C25.680542,19.0640542 26.0977173,19.361694 26.6256714,19.738293 C27.2271728,20.1676344 27.9757691,20.7018437 29.3713379,20.7018437 C30.7669067,20.7018437 31.515503,20.1676344 32.1170044,19.738293 C32.6452637,19.361694 33.0621338,19.0640542 33.961792,19.0640542 C34.2810059,19.0640542 34.5944214,19.1177219 34.8919678,19.2358525 C35.1821899,19.3512071 35.484314,19.4341761 35.7946777,19.4708799 L35.7946777,21.0312522 L28.5940552,21.0312522 C28.59375,21.0312522 28.59375,21.0312522 28.5934448,21.0312522 L28.5931397,21.0312522 L12.1670532,21.0312522 C12.1664429,21.0312522 12.1655273,21.0312522 12.164917,21.0312522 C12.1640015,21.0312522 12.1630859,21.0312522 12.1624756,21.0312522 L4.20501711,21.0312522 L4.20501711,19.4927788 C4.25689695,19.4924704 4.30847172,19.4909281 4.36035156,19.4884606 L4.36035156,19.4884606 Z M1.5625,25.025176 C1.5625,23.6936624 2.6345825,22.6101305 3.95202641,22.6101305 L6.27624516,22.6101305 L10.5364991,26.9161905 C10.6829834,27.0642393 10.8816528,27.1472083 11.0888672,27.1472083 C11.2960816,27.1472083 11.4947509,27.0642393 11.6412353,26.9161905 L13.87146,24.6621481 L16.7788696,27.6006076 L3.95202641,27.6006076 C3.53912352,27.6006076 3.12866211,27.4901879 2.77038578,27.283228 C2.04956055,26.8671494 1.5625,26.0831078 1.5625,25.1855621 L1.5625,25.025176 Z M2.60559078,28.9407574 C3.03558352,29.0983676 3.49456789,29.1797945 3.95202641,29.1797945 L18.3413696,29.1797945 L19.7903442,30.6442434 C20.0900269,30.9474349 20.592041,30.9480519 20.8926391,30.6467109 L22.3571777,29.1797945 L36.0476684,29.1797945 C36.4883423,29.1797945 36.9284058,29.1042278 37.3446655,28.9586466 C37.4319458,28.9281116 37.5210571,28.897268 37.6031494,28.854704 C37.6296997,28.8408245 37.6681519,28.809981 37.699585,28.81214 C37.7429199,28.8152243 37.7542114,28.871051 37.7697754,28.9062127 C37.8543091,29.0946663 37.8994751,29.3010094 37.9031372,29.5079692 C37.9162598,30.2528395 37.3855591,30.8761865 36.6925048,31.0791367 C36.2954712,31.1957251 35.8654785,31.1698165 35.4827881,31.0118978 C35.0115967,30.8172754 34.513855,30.7225859 33.961792,30.7225859 C32.5662231,30.7225859 31.817627,31.2567952 31.2161255,31.6861366 C30.6878662,32.063044 30.2709961,32.3606838 29.3713379,32.3606838 C28.4719848,32.3606838 28.0548095,32.063044 27.5268555,31.6861366 C26.925354,31.2567952 26.1767578,30.7225859 24.781189,30.7225859 C23.3856202,30.7225859 22.6370239,31.2567952 22.0352173,31.6861366 C21.5072632,32.063044 21.090393,32.3606838 20.1907348,32.3606838 C19.2910766,32.3606838 18.8742066,32.063044 18.3459473,31.6861366 C17.7444458,31.2567952 16.9958496,30.7225859 15.6002808,30.7225859 C14.2047119,30.7225859 13.4561157,31.2567952 12.8543091,31.6861366 C12.326355,32.063044 11.9094848,32.3606838 11.0098266,32.3606838 C10.1098633,32.3606838 9.69299312,32.0627356 9.16503906,31.6861366 C8.56323242,31.2567952 7.81463625,30.7225859 6.41876219,30.7225859 C5.86669922,30.7225859 5.3689575,30.8172754 4.89715578,31.0122063 C4.38720703,31.2225589 3.79272461,31.1947998 3.31146242,30.9209096 C2.88574219,30.6787881 2.56866453,30.2636347 2.49420164,29.7704473 C2.47192383,29.6245576 2.47070312,29.4752751 2.48992922,29.3287685 C2.49542234,29.2862045 2.56713867,28.9265693 2.60559078,28.9407574 L2.60559078,28.9407574 Z M36.7254639,34.4793233 C36.7254639,36.6525557 34.9758911,38.4208132 32.8256226,38.4208132 L7.17437742,38.4208132 C5.02410891,38.4208132 3.27453609,36.6525557 3.27453609,34.4793233 L3.27453609,32.6065064 C3.91601562,32.7903336 4.60845945,32.7773794 5.26824953,32.5556147 C5.28167727,32.5509881 5.295105,32.5463616 5.3082275,32.5420435 C5.36834719,32.5207615 5.4284668,32.4988626 5.48767094,32.4741879 C5.76843266,32.3582163 6.07299805,32.3020811 6.41876219,32.3020811 C7.31872562,32.3020811 7.7355957,32.5994124 8.26354984,32.9763199 C8.86535641,33.4056613 9.61395266,33.9398706 11.0098266,33.9398706 C12.4053955,33.9398706 13.1539917,33.4056613 13.7554931,32.9763199 C14.2834473,32.5994124 14.7006226,32.3020811 15.5999756,32.3020811 C16.4996337,32.3020811 16.9168091,32.5994124 17.4447632,32.9763199 C18.0462647,33.4056613 18.7948609,33.9398706 20.1907348,33.9398706 C21.5863037,33.9398706 22.3348999,33.4056613 22.9364014,32.9763199 C23.4643555,32.5994124 23.8815308,32.3020811 24.7808837,32.3020811 C25.680542,32.3020811 26.0977173,32.5994124 26.6253662,32.9763199 C27.2268677,33.4056613 27.9757691,33.9398706 29.3713379,33.9398706 C30.7669067,33.9398706 31.515503,33.4056613 32.1170044,32.9763199 C32.6449585,32.5994124 33.0621337,32.3020811 33.961792,32.3020811 C34.1946411,32.3020811 34.4281006,32.3282982 34.6530152,32.3915273 C34.8669434,32.4516721 35.0689697,32.54667 35.282898,32.6077402 C35.7473755,32.7400587 36.2487793,32.7681263 36.7251587,32.6897838 L36.7251587,34.4793233 L36.7254639,34.4793233 Z" id="Shape"></path>
                <path d="M17.0727573,8.38070102 C17.2315413,8.76142598 17.6361463,9.01994292 18.0489846,8.99879159 C18.456334,8.97803182 18.8299665,8.69131302 18.9542492,8.30353765 C19.0804922,7.91027854 18.9389589,7.45239011 18.6100212,7.20131534 C18.270106,6.94162329 17.7686623,6.93183101 17.4193376,7.17977224 C17.0488417,7.44220616 16.8975068,7.96119849 17.0727573,8.38070102 Z" id="Path"></path>
                <path d="M21.0718604,11.3808634 C21.2307375,11.7622188 21.6351876,12.0185462 22.0478758,11.9989493 C22.4558565,11.9793524 22.8289235,11.6908862 22.9540638,11.3032596 C23.0807732,10.9101461 22.9387645,10.450795 22.6092416,10.2003467 C22.2683423,9.94127587 21.767389,9.93265319 21.4174672,10.1791821 C21.045577,10.4417804 20.8996455,10.961098 21.0718604,11.3808634 L21.0718604,11.3808634 Z" id="Path"></path>
                <path d="M20.4416666,4.836498 C20.7989059,5.07423472 21.3012368,5.0507352 21.6333791,4.77892415 C21.9580708,4.51337954 22.087869,4.04299753 21.9380716,3.65055551 C21.7921957,3.26947168 21.405546,2.99805226 20.99576,3.00001053 C20.5902876,3.00236053 20.2048143,3.26829668 20.0612912,3.64742225 C19.900906,4.07198032 20.0648204,4.58348646 20.4416666,4.836498 L20.4416666,4.836498 Z" id="Path"></path>
            </g>
        </g>
    </g>
</svg>