
<svg width="400px" height="387px" viewBox="0 0 400 387" version="1.1" xmlns="http://www.w3.org/2000/svg" xmlns:xlink="http://www.w3.org/1999/xlink">
    <defs>
        <linearGradient x1="0%" y1="50%" x2="100%" y2="50%" id="linearGradient-1">
            <stop stop-color="#F0F2F5" offset="0%"></stop>
            <stop stop-color="#566CA8" offset="100%"></stop>
        </linearGradient>
    </defs>
    <g id="Page-1" stroke="none" stroke-width="1" fill="none" fill-rule="evenodd">
        <g id="Artboard" transform="translate(-424.000000, -294.000000)" fill-rule="nonzero">
            <g id="Group-2" transform="translate(424.000000, 294.000000)">
                <g id="zone_orange-blue" transform="translate(0.000000, 174.000000)">
                    <polygon id="Path" fill="#F59F68" points="356.440678 10.4237288 208.050847 0.0847457627 115.084746 3.38983051 13.3898305 15.7627119 0.508474576 29.4067797 39.4067797 124.915254 117.542373 196.864407 214.661017 212.966102 228.305085 209.661017 315.169492 188.135593 383.728814 114.152542 399.491525 25.6779661"></polygon>
                    <g id="Group" transform="translate(0.000000, 25.423729)">
                        <polygon id="Path" fill="#E58B5A" points="164.661017 28.8135593 235.762712 118.898305 300.677966 25.9322034"></polygon>
                        <polygon id="Path" fill="#CF6D3C" points="300.677966 25.9322034 332.457627 120.59322 235.762712 118.898305"></polygon>
                        <polygon id="Path" fill="#F59F68" points="164.661017 28.8135593 122.457627 130.932203 235.762712 118.898305"></polygon>
                        <polygon id="Path" fill="#FDCC7E" points="164.661017 28.8135593 45.1694915 20.0847458 122.457627 130.932203"></polygon>
                        <polygon id="Path" fill="#FDF28D" points="45.1694915 20.0847458 0.508474576 3.98305085 39.4067797 99.4915254"></polygon>
                        <polygon id="Path" fill="#FFE685" points="122.457627 130.932203 39.4067797 99.4915254 45.1694915 20.0847458"></polygon>
                        <polygon id="Path" fill="#CF6D3C" points="235.762712 118.898305 228.305085 184.237288 122.457627 130.932203"></polygon>
                        <polygon id="Path" fill="#BE5617" points="332.457627 120.59322 228.305085 184.237288 235.762712 118.898305"></polygon>
                        <polygon id="Path" fill="#BE5617" points="300.677966 25.9322034 388.305085 13.8983051 332.457627 120.59322"></polygon>
                        <polygon id="Path" fill="#AC4017" points="388.305085 13.8983051 383.728814 88.7288136 332.457627 120.59322"></polygon>
                        <polygon id="Path" fill="#FDCC7E" points="39.4067797 99.4915254 117.542373 171.440678 122.457627 130.932203"></polygon>
                        <polygon id="Path" fill="#F59F68" points="228.305085 184.237288 117.542373 171.440678 122.457627 130.932203"></polygon>
                        <polygon id="Path" fill="#AA3A17" points="383.728814 88.7288136 399.491525 0.254237288 388.305085 13.8983051"></polygon>
                        <polygon id="Path" fill="#AA3A17" points="228.305085 184.237288 214.661017 187.542373 117.542373 171.440678"></polygon>
                        <polygon id="Path" fill="#AA3A17" points="332.457627 120.59322 315.169492 162.711864 383.728814 88.7288136"></polygon>
                        <polygon id="Path" fill="#AC4017" points="228.305085 184.237288 315.169492 162.711864 332.457627 120.59322"></polygon>
                    </g>
                    <polygon id="Path" fill="url(#linearGradient-1)" points="399.491525 25.6779661 388.305085 39.3220339 300.677966 51.3559322 164.661017 54.2372881 45.1694915 45.5084746 0.508474576 29.4067797 13.3898305 15.7627119 115.084746 3.38983051 208.050847 0.0847457627 356.440678 10.4237288"></polygon>
                </g>
                <g id="object_tree" transform="translate(288.000000, 72.000000)">
                    <polygon id="Path" fill="#FFE685" points="20.761324 119 24 135 11 128.543446"></polygon>
                    <g id="Group">
                        <polygon id="Path" fill="#CF6D3C" points="29.9521127 113.206485 33.9319249 71.9232082 30.8723005 66.6015358 25.7652582 91.274744 16.3333333 64.4129693 13.5497653 70.5870307 21.256338 103.300341 10.7431925 128.549488 23.9478873 134.861775 32.3676056 130.346416 35.0591549 124.333618"></polygon>
                        <polygon id="Path" fill="#FDCC7E" points="10.7431925 128.549488 21.256338 103.300341 20.658216 119.219283"></polygon>
                        <polygon id="Path" fill="#FDCC7E" points="21.256338 103.300341 13.5497653 70.5870307 25.7652582 91.274744"></polygon>
                        <polygon id="Path" fill="#FDF28D" points="20.658216 119.219283 25.7652582 91.274744 21.256338 103.300341"></polygon>
                        <polygon id="Path" fill="#E58B5A" points="25.7652582 91.274744 16.3333333 64.4129693 13.5497653 70.5870307"></polygon>
                        <polygon id="Path" fill="#E58B5A" points="23.9478873 134.861775 25.7652582 91.274744 20.658216 119.219283"></polygon>
                        <polygon id="Path" fill="#BE5617" points="23.9478873 134.861775 32.3676056 130.346416 29.9521127 113.206485"></polygon>
                        <polygon id="Path" fill="#AC4017" points="32.3676056 130.346416 35.0591549 124.333618 29.9521127 113.206485"></polygon>
                        <polygon id="Path" fill="#BE5617" points="29.9521127 113.206485 30.8723005 66.6015358 25.7652582 91.274744"></polygon>
                        <polygon id="Path" fill="#AC4017" points="29.9521127 113.206485 33.9319249 71.9232082 30.8723005 66.6015358"></polygon>
                        <polygon id="Path" fill="#CF6D3C" points="25.7652582 91.274744 29.9521127 113.206485 23.9478873 134.861775"></polygon>
                        <polygon id="Path" fill="#2F768C" points="46.4694836 45.5682594 42.5356808 36.1228669 35.3122066 13.5230375 24.0169014 0.161262799 4.20985915 34.9249147 0.161032864 52.4564846 3.65774648 72.0383959 21.2793427 80.6313993 35.3352113 78.7653584 46.0323944 67.2005119 48.7929577 54.8984872"></polygon>
                        <g id="Path">
                            <path d="M30.6652582,26.1706485 C30.0671362,26.9078498 11.1802817,57.4786689 11.1802817,57.4786689 L30.228169,70.7713311 L30.6652582,26.1706485 Z" fill="#2F768C"></path>
                            <polygon fill="#1C5D66" points="11.157277 57.5017065 21.2793427 80.6313993 30.2051643 70.7943686"></polygon>
                            <polygon fill="#1C5D66" points="30.6652582 26.1706485 43.5938967 53.3319113 30.2051643 70.7943686"></polygon>
                            <polygon fill="#0B4645" points="43.5938967 53.3319113 42.5356808 36.1228669 30.6652582 26.1706485"></polygon>
                            <polygon fill="#2F768C" points="42.5356808 36.1228669 35.3122066 13.5230375 30.6652582 26.1706485"></polygon>
                            <polygon fill="#1C5D66" points="43.5938967 53.3319113 46.4694836 45.5682594 42.5356808 36.1228669"></polygon>
                            <polygon fill="#0B4645" points="21.2793427 80.6313993 35.3352113 78.7653584 30.2051643 70.7943686"></polygon>
                            <polygon fill="#0B403B" points="35.3352113 78.7653584 43.5938967 53.3319113 30.2051643 70.7943686"></polygon>
                            <polygon fill="#6BA9B5" points="21.2793427 80.6313993 3.65774648 72.0383959 11.157277 57.5017065"></polygon>
                            <polygon fill="#BDDFCD" points="3.65774648 72.0383959 0.161032864 52.4564846 11.157277 57.5017065"></polygon>
                            <polygon fill="#6BA9B5" points="0.161032864 52.4564846 11.7784038 36.6988055 11.157277 57.5017065"></polygon>
                            <polygon fill="#4393A8" points="11.7784038 36.6988055 30.6652582 26.1706485 11.157277 57.5017065"></polygon>
                            <polygon fill="#0B4645" points="43.5938967 53.3319113 46.0323944 67.2005119 35.3352113 78.7653584"></polygon>
                            <polygon fill="#4393A8" points="35.3122066 13.5230375 24.0169014 0.161262799 30.6652582 26.1706485"></polygon>
                            <polygon fill="#6BA9B5" points="11.7784038 36.6988055 24.0169014 0.161262799 30.6652582 26.1706485"></polygon>
                            <polygon fill="#CDE5D1" points="0.161032864 52.4564846 4.20985915 34.9249147 11.7784038 36.6988055"></polygon>
                            <polygon fill="#BDDFCD" points="4.20985915 34.9249147 24.0169014 0.161262799 11.7784038 36.6988055"></polygon>
                            <polygon fill="#0B403B" points="46.4694836 45.5682594 48.7929577 54.8984642 43.5938967 53.3319113"></polygon>
                            <polygon fill="#1C5D66" points="48.7929577 54.8984642 46.0323944 67.2005119 43.5938967 53.3319113"></polygon>
                        </g>
                    </g>
                </g>
                <g id="object_tree" transform="translate(313.000000, 0.000000)">
                    <polygon id="Path" fill="#FFE685" points="32.0174216 184 37 209 17 198.911635"></polygon>
                    <g id="Group">
                        <polygon id="Path" fill="#CF6D3C" points="46.456338 175.26041 52.629108 111.347782 47.8835681 103.109044 39.9624413 141.306826 25.3333333 99.7208191 21.0159624 109.279181 32.9690141 159.924232 16.6629108 199.013652 37.143662 208.786007 50.2028169 201.795563 54.3774648 192.48686"></polygon>
                        <polygon id="Path" fill="#FDCC7E" points="16.6629108 199.013652 32.9690141 159.924232 32.0413146 184.569113"></polygon>
                        <polygon id="Path" fill="#FDCC7E" points="32.9690141 159.924232 21.0159624 109.279181 39.9624413 141.306826"></polygon>
                        <polygon id="Path" fill="#FDF28D" points="32.0413146 184.569113 39.9624413 141.306826 32.9690141 159.924232"></polygon>
                        <polygon id="Path" fill="#E58B5A" points="39.9624413 141.306826 25.3333333 99.7208191 21.0159624 109.279181"></polygon>
                        <polygon id="Path" fill="#E58B5A" points="37.143662 208.786007 39.9624413 141.306826 32.0413146 184.569113"></polygon>
                        <polygon id="Path" fill="#BE5617" points="37.143662 208.786007 50.2028169 201.795563 46.456338 175.26041"></polygon>
                        <polygon id="Path" fill="#AC4017" points="50.2028169 201.795563 54.3774648 192.48686 46.456338 175.26041"></polygon>
                        <polygon id="Path" fill="#BE5617" points="46.456338 175.26041 47.8835681 103.109044 39.9624413 141.306826"></polygon>
                        <polygon id="Path" fill="#AC4017" points="46.456338 175.26041 52.629108 111.347782 47.8835681 103.109044"></polygon>
                        <polygon id="Path" fill="#CF6D3C" points="39.9624413 141.306826 46.456338 175.26041 37.143662 208.786007"></polygon>
                        <polygon id="Path" fill="#2F768C" points="72.0751174 70.5464164 65.9737089 55.9235495 54.7699531 20.9356655 37.2507042 0.249658703 6.52957746 54.068942 0.249765258 81.2104096 5.67323944 111.526109 33.0046948 124.829352 54.8056338 121.940444 71.3971831 104.036348 75.6788732 84.9909913"></polygon>
                        <g id="Path">
                            <path d="M47.5624413,40.516041 C46.6347418,41.6573379 17.3408451,88.9854949 17.3408451,88.9854949 L46.884507,109.564505 L47.5624413,40.516041 Z" fill="#2F768C"></path>
                            <polygon fill="#1C5D66" points="17.3051643 89.0211604 33.0046948 124.829352 46.8488263 109.600171"></polygon>
                            <polygon fill="#1C5D66" points="47.5624413 40.516041 67.6150235 82.5656997 46.8488263 109.600171"></polygon>
                            <polygon fill="#0B4645" points="67.6150235 82.5656997 65.9737089 55.9235495 47.5624413 40.516041"></polygon>
                            <polygon fill="#2F768C" points="65.9737089 55.9235495 54.7699531 20.9356655 47.5624413 40.516041"></polygon>
                            <polygon fill="#1C5D66" points="67.6150235 82.5656997 72.0751174 70.5464164 65.9737089 55.9235495"></polygon>
                            <polygon fill="#0B4645" points="33.0046948 124.829352 54.8056338 121.940444 46.8488263 109.600171"></polygon>
                            <polygon fill="#0B403B" points="54.8056338 121.940444 67.6150235 82.5656997 46.8488263 109.600171"></polygon>
                            <polygon fill="#6BA9B5" points="33.0046948 124.829352 5.67323944 111.526109 17.3051643 89.0211604"></polygon>
                            <polygon fill="#BDDFCD" points="5.67323944 111.526109 0.249765258 81.2104096 17.3051643 89.0211604"></polygon>
                            <polygon fill="#6BA9B5" points="0.249765258 81.2104096 18.2685446 56.8151877 17.3051643 89.0211604"></polygon>
                            <polygon fill="#4393A8" points="18.2685446 56.8151877 47.5624413 40.516041 17.3051643 89.0211604"></polygon>
                            <polygon fill="#0B4645" points="67.6150235 82.5656997 71.3971831 104.036348 54.8056338 121.940444"></polygon>
                            <polygon fill="#4393A8" points="54.7699531 20.9356655 37.2507042 0.249658703 47.5624413 40.516041"></polygon>
                            <polygon fill="#6BA9B5" points="18.2685446 56.8151877 37.2507042 0.249658703 47.5624413 40.516041"></polygon>
                            <polygon fill="#CDE5D1" points="0.249765258 81.2104096 6.52957746 54.068942 18.2685446 56.8151877"></polygon>
                            <polygon fill="#BDDFCD" points="6.52957746 54.068942 37.2507042 0.249658703 18.2685446 56.8151877"></polygon>
                            <polygon fill="#0B403B" points="72.0751174 70.5464164 75.6788732 84.9909556 67.6150235 82.5656997"></polygon>
                            <polygon fill="#1C5D66" points="75.6788732 84.9909556 71.3971831 104.036348 67.6150235 82.5656997"></polygon>
                        </g>
                    </g>
                </g>
                <g id="object_tree" transform="translate(49.000000, 122.000000) scale(-1, 1) translate(-49.000000, -122.000000) translate(21.000000, 45.000000)">
                    <polygon id="Path" fill="#FFE685" points="23.2630662 136 27 154 12 146.736377"></polygon>
                    <g id="Group">
                        <polygon id="Path" fill="#CF6D3C" points="34.2309859 129.139249 38.7793427 82.0457338 35.2826291 75.9750853 29.4460094 104.120819 18.6666667 73.4784983 15.485446 80.5215017 24.2929577 117.838908 12.2779343 146.641638 27.3690141 153.842321 36.9915493 148.691468 40.0676056 141.832423"></polygon>
                        <polygon id="Path" fill="#FDCC7E" points="12.2779343 146.641638 24.2929577 117.838908 23.6093897 135.998294"></polygon>
                        <polygon id="Path" fill="#FDCC7E" points="24.2929577 117.838908 15.485446 80.5215017 29.4460094 104.120819"></polygon>
                        <polygon id="Path" fill="#FDF28D" points="23.6093897 135.998294 29.4460094 104.120819 24.2929577 117.838908"></polygon>
                        <polygon id="Path" fill="#E58B5A" points="29.4460094 104.120819 18.6666667 73.4784983 15.485446 80.5215017"></polygon>
                        <polygon id="Path" fill="#E58B5A" points="27.3690141 153.842321 29.4460094 104.120819 23.6093897 135.998294"></polygon>
                        <polygon id="Path" fill="#BE5617" points="27.3690141 153.842321 36.9915493 148.691468 34.2309859 129.139249"></polygon>
                        <polygon id="Path" fill="#AC4017" points="36.9915493 148.691468 40.0676056 141.832423 34.2309859 129.139249"></polygon>
                        <polygon id="Path" fill="#BE5617" points="34.2309859 129.139249 35.2826291 75.9750853 29.4460094 104.120819"></polygon>
                        <polygon id="Path" fill="#AC4017" points="34.2309859 129.139249 38.7793427 82.0457338 35.2826291 75.9750853"></polygon>
                        <polygon id="Path" fill="#CF6D3C" points="29.4460094 104.120819 34.2309859 129.139249 27.3690141 153.842321"></polygon>
                        <polygon id="Path" fill="#2F768C" points="53.1079812 51.98157 48.6122066 41.2068259 40.3568075 15.4262799 27.4478873 0.183959044 4.81126761 39.840273 0.184037559 59.8392491 4.18028169 82.1771331 24.3192488 91.9795222 40.3830986 89.8508532 52.6084507 76.6583618 55.7633803 62.624941"></polygon>
                        <g id="Path">
                            <path d="M35.0460094,29.8539249 C34.3624413,30.6948805 12.7774648,65.5682594 12.7774648,65.5682594 L34.5464789,80.7317406 L35.0460094,29.8539249 Z" fill="#2F768C"></path>
                            <polygon fill="#1C5D66" points="12.7511737 65.5945392 24.3192488 91.9795222 34.5201878 80.7580205"></polygon>
                            <polygon fill="#1C5D66" points="35.0460094 29.8539249 49.8215962 60.837884 34.5201878 80.7580205"></polygon>
                            <polygon fill="#0B4645" points="49.8215962 60.837884 48.6122066 41.2068259 35.0460094 29.8539249"></polygon>
                            <polygon fill="#2F768C" points="48.6122066 41.2068259 40.3568075 15.4262799 35.0460094 29.8539249"></polygon>
                            <polygon fill="#1C5D66" points="49.8215962 60.837884 53.1079812 51.98157 48.6122066 41.2068259"></polygon>
                            <polygon fill="#0B4645" points="24.3192488 91.9795222 40.3830986 89.8508532 34.5201878 80.7580205"></polygon>
                            <polygon fill="#0B403B" points="40.3830986 89.8508532 49.8215962 60.837884 34.5201878 80.7580205"></polygon>
                            <polygon fill="#6BA9B5" points="24.3192488 91.9795222 4.18028169 82.1771331 12.7511737 65.5945392"></polygon>
                            <polygon fill="#BDDFCD" points="4.18028169 82.1771331 0.184037559 59.8392491 12.7511737 65.5945392"></polygon>
                            <polygon fill="#6BA9B5" points="0.184037559 59.8392491 13.4610329 41.8638225 12.7511737 65.5945392"></polygon>
                            <polygon fill="#4393A8" points="13.4610329 41.8638225 35.0460094 29.8539249 12.7511737 65.5945392"></polygon>
                            <polygon fill="#0B4645" points="49.8215962 60.837884 52.6084507 76.6583618 40.3830986 89.8508532"></polygon>
                            <polygon fill="#4393A8" points="40.3568075 15.4262799 27.4478873 0.183959044 35.0460094 29.8539249"></polygon>
                            <polygon fill="#6BA9B5" points="13.4610329 41.8638225 27.4478873 0.183959044 35.0460094 29.8539249"></polygon>
                            <polygon fill="#CDE5D1" points="0.184037559 59.8392491 4.81126761 39.840273 13.4610329 41.8638225"></polygon>
                            <polygon fill="#BDDFCD" points="4.81126761 39.840273 27.4478873 0.183959044 13.4610329 41.8638225"></polygon>
                            <polygon fill="#0B403B" points="53.1079812 51.98157 55.7633803 62.6249147 49.8215962 60.837884"></polygon>
                            <polygon fill="#1C5D66" points="55.7633803 62.6249147 52.6084507 76.6583618 49.8215962 60.837884"></polygon>
                        </g>
                    </g>
                </g>
                <g id="object_ufo" transform="translate(63.000000, 106.000000)">
                    <g id="Group" transform="translate(36.000000, 0.000000)" fill="#6BA9B5">
                        <polygon id="Path" points="165.95102 54.5422764 150.681633 38.9333333 126.47551 24.5707317 83.4489796 12.6414634 40.0673469 25.6390244 20.477551 38.0430894 6.9244898 52.3463415 0.118367347 55.5512195 31.7816327 64.0382114 54.922449 68.5487805 82.6795918 72.6439024 112.44898 69.4390244 141.922449 64.9284553 173.585714 57.8065041"></polygon>
                        <polygon id="Path" points="83.4489796 0.534146341 79.1877551 5.75691057 83.4489796 12.6414634 88.1244898 5.75691057"></polygon>
                    </g>
                    <polygon id="Path" fill="#F59F68" points="233.950286 81.5735661 220.761621 66.19202 209.830475 57.2743142 178.04698 64.4563591 148.461596 69.0049875 118.57917 72.2369077 90.7166294 68.1072319 67.4879443 63.5586035 35.7044494 55 19.1889137 62.1820449 5.46557296 77.1446384 0 91.1496259 0.415858812 98.4513716 16.6343525 80.4962594 40.51653 72.2369077 67.3097191 75.0498753 89.8255034 74.3915212 118.995029 97.9127182 149.768581 76.2468828 172.224957 76.8453865 199.136962 75.5885287 222.722098 84.6259352 238.405916 103 239 95.7581047"></polygon>
                    <polygon id="Path" fill="#6BA9B5" points="118.927461 63 143 24 97 25.0556391"></polygon>
                    <polygon id="Path" fill="#9DD3CC" points="143 23.9714286 119.702073 13 97 25"></polygon>
                    <polygon id="Path" fill="#BDDFCD" points="96.6493861 25.4657534 76 26 119 13"></polygon>
                    <polygon id="Path" fill="#2F768C" points="143.126547 24.4626866 163 25 120 13"></polygon>
                    <polygon id="Path" fill="#1C5D66" points="162.665904 25 187 39 161 36.6859504"></polygon>
                    <polygon id="Path" fill="#BDDFCD" points="75.702381 25 56 37.5787037 81 38"></polygon>
                    <polygon id="Path" fill="#4393A8" points="160.333333 37 142 24 162 24.5545024"></polygon>
                    <polygon id="Path" fill="#CDE5D1" points="81.3096591 38 97 25 76 25.52"></polygon>
                    <polygon id="Path" fill="#9DD3CC" points="81 38.2148377 118 63 96.4215531 25"></polygon>
                    <polygon id="Path" fill="#2F768C" points="142.831461 24 119 63 161 36.3744361"></polygon>
                    <polygon id="Path" fill="#0B403B" points="186.554324 39 202 55.2441176 175 60"></polygon>
                    <polygon id="Path" fill="#BDDFCD" points="55.5936073 38 42 52.5619335 68 58"></polygon>
                    <polygon id="Path" fill="#0B4645" points="161 37 175.517162 60 187 39.4210526"></polygon>
                    <polygon id="Path" fill="#9DD3CC" points="68.4404762 58 81 38.4229607 56 38"></polygon>
                    <polygon id="Path" fill="#6BA9B5" points="118 63 68 57.1943128 80.5296912 38"></polygon>
                    <polygon id="Path" fill="#1C5D66" points="160.707113 37 175 59.5991189 119 64"></polygon>
                    <polygon id="Path" fill="#313C62" points="202.284112 54 210 57.4571429 178 65"></polygon>
                    <polygon id="Path" fill="#303657" points="177.694013 65 175 58.84 202 54"></polygon>
                    <polygon id="Path" fill="#435382" points="178 65.6321839 149 70 175.379518 60"></polygon>
                    <polygon id="Path" fill="#313C62" points="148.464435 70 119 64.2528736 175 60"></polygon>
                    <polygon id="Path" fill="#435382" points="119 64 119 73 148 69.8441558"></polygon>
                    <polygon id="Path" fill="#566CA8" points="118 73 90 68.9675325 118 64"></polygon>
                    <polygon id="Path" fill="#566CA8" points="68.0588235 57 67 63.431694 90 68"></polygon>
                    <polygon id="Path" fill="#909FD1" points="118 62.8907104 90.1496437 68 68 57"></polygon>
                    <polygon id="Path" fill="#C3CBE9" points="42.8785047 52 36 55.2893401 68 64"></polygon>
                    <polygon id="Path" fill="#909FD1" points="68 57.4822335 42 52 66.9315068 64"></polygon>
                    <polygon id="Path" fill="#F08DB9" points="119 12 115 5 119 5.24137931"></polygon>
                    <polygon id="Path" fill="#F8CDE1" points="115 5.7826087 119 1 119 6"></polygon>
                    <polygon id="Path" fill="#9D2855" points="120 12 124 5 120 5.24137931"></polygon>
                    <polygon id="Path" fill="#BF569B" points="120 1 124 5.7826087 120 6"></polygon>
                    <polygon id="Path" fill="#FDF28D" points="36.0204082 55 19 61.9902913 40 67"></polygon>
                    <polygon id="Path" fill="#FFE685" points="18.6829268 62 5 77 39 67.16"></polygon>
                    <polygon id="Path" fill="#E58B5A" points="5.25714286 77 0 91 16 80.3504274"></polygon>
                    <polygon id="Path" fill="#F59F68" points="16.1358885 80 39 67 5 76.6909091"></polygon>
                    <polygon id="Path" fill="#FFE685" points="39.8878505 67 68 63.3300971 36 55"></polygon>
                    <polygon id="Path" fill="#F59F68" points="90 68 118 97 117.588235 72.0180723"></polygon>
                    <polygon id="Path" fill="#E58B5A" points="91 69.0666667 66 71 67.558753 64"></polygon>
                    <polygon id="Path" fill="#F59F68" points="65.4510638 71 39 68.2 67 64"></polygon>
                    <polygon id="Path" fill="#BE5617" points="66 69.9333333 90.1007194 75 91 68"></polygon>
                    <polygon id="Path" fill="#AC4017" points="89 74.1144578 118 97 89.885947 68"></polygon>
                    <polygon id="Path" fill="#E58B5A" points="40 68 66 70.0487805 40.9369369 72"></polygon>
                    <polygon id="Path" fill="#CF6D3C" points="40 71.8454545 16 80 39.0447761 67"></polygon>
                    <polygon id="Path" fill="#BE5617" points="0 91.0866667 0.4 98 16 81"></polygon>
                    <polygon id="Path" fill="#AC4017" points="209.8 57 221 65.6473214 200 70"></polygon>
                    <polygon id="Path" fill="#CF6D3C" points="220.687831 66 234 81 200 70.3774319"></polygon>
                    <polygon id="Path" fill="#FDCC7E" points="234.036496 81 239 95 223 84.0126582"></polygon>
                    <polygon id="Path" fill="#F59F68" points="222.666667 85 200 71 234 81.9356223"></polygon>
                    <polygon id="Path" fill="#E58B5A" points="149 69.6060606 175.903614 73 178 65"></polygon>
                    <polygon id="Path" fill="#F59F68" points="176 73 200 71.3030303 178.107317 65"></polygon>
                    <polygon id="Path" fill="#BE5617" points="176 72.7024793 150.285714 77 149 69"></polygon>
                    <polygon id="Path" fill="#AC4017" points="150 76.0144928 120 97 148.725869 69"></polygon>
                    <polygon id="Path" fill="#E58B5A" points="200 72 176 73.3658537 198.887805 76"></polygon>
                    <polygon id="Path" fill="#CF6D3C" points="199 75.9270386 223 85 200.148615 71"></polygon>
                    <polygon id="Path" fill="#BE5617" points="239 95.9055375 238.416058 103 223 85"></polygon>
                    <polygon id="Path" fill="#BE5617" points="210 57 178 63.9642857 200.370093 70"></polygon>
                    <polygon id="Path" fill="#FDCC7E" points="148 69 119.403579 97 119 72.1304348"></polygon>
                    <polygon id="Path" fill="#566CA8" points="40 73.2988506 67 76 65.6230599 71"></polygon>
                    <polygon id="Path" fill="#313C62" points="90 75.3678161 67.3731343 76 66 71"></polygon>
                    <polygon id="Path" fill="#435382" points="199 75.88 172 77 175.695364 73"></polygon>
                    <polygon id="Path" fill="#303657" points="150 76.4666667 172.336364 77 176 73"></polygon>
                </g>
            </g>
        </g>
    </g>
</svg>